{"glyphs":{"0":{"ha":833,"x_min":68,"x_max":765,"o":"m 417 -12 q 158 117 249 -12 q 68 490 68 247 q 158 865 68 738 q 417 992 249 992 q 676 865 586 992 q 765 492 765 738 q 675 117 765 247 q 417 -12 585 -12 m 417 97 q 583 193 528 97 q 638 492 638 289 q 583 788 638 694 q 417 882 528 882 q 251 788 307 882 q 196 492 196 694 q 251 193 196 289 q 417 97 307 97 z "},"1":{"ha":833,"x_min":172,"x_max":746,"o":"m 172 0 l 172 110 l 401 110 l 401 869 l 467 869 l 193 700 l 193 826 l 438 979 l 531 979 l 531 110 l 746 110 l 746 0 l 172 0 z "},"2":{"ha":833,"x_min":81,"x_max":761,"o":"m 118 0 l 118 96 l 460 454 q 559 585 526 522 q 592 714 592 647 q 541 838 592 796 q 393 881 490 881 q 252 853 318 881 q 126 771 186 826 l 81 869 q 224 958 138 925 q 407 992 311 992 q 639 923 557 992 q 721 726 721 854 q 676 549 721 633 q 543 376 631 465 l 244 74 l 244 110 l 761 110 l 761 0 l 118 0 z "},"3":{"ha":833,"x_min":67,"x_max":750,"o":"m 410 -12 q 219 18 310 -12 q 67 104 128 49 l 113 204 q 253 124 181 149 q 406 99 325 99 q 568 144 513 99 q 624 274 624 189 q 567 400 624 357 q 403 443 511 443 l 253 443 l 253 550 l 393 550 q 540 597 485 550 q 596 726 596 644 q 545 841 596 801 q 401 881 494 881 q 129 771 244 881 l 83 869 q 228 960 142 928 q 410 992 314 992 q 639 925 556 992 q 722 739 722 858 q 672 584 722 649 q 533 499 621 519 l 533 514 q 693 430 636 496 q 750 265 750 364 q 659 62 750 136 q 410 -12 568 -12 z "},"4":{"ha":833,"x_min":67,"x_max":800,"o":"m 526 0 l 526 207 l 67 207 l 67 300 l 547 979 l 653 979 l 653 310 l 800 310 l 800 207 l 653 207 l 653 0 l 526 0 m 526 310 l 526 826 l 558 826 l 171 279 l 171 310 l 526 310 z "},"5":{"ha":833,"x_min":97,"x_max":776,"o":"m 433 -12 q 308 1 369 -12 q 192 41 246 15 q 97 104 138 67 l 143 204 q 282 124 211 150 q 431 99 353 99 q 592 153 533 99 q 650 297 650 207 q 594 448 650 390 q 440 506 539 506 q 317 478 372 506 q 221 393 263 451 l 129 393 l 129 979 l 717 979 l 717 869 l 254 869 l 254 499 l 221 499 q 323 585 258 554 q 468 615 388 615 q 631 576 563 615 q 738 467 700 538 q 776 304 776 397 q 735 140 776 211 q 616 28 693 68 q 433 -12 539 -12 z "},"6":{"ha":833,"x_min":75,"x_max":771,"o":"m 449 -12 q 172 114 269 -12 q 75 467 75 240 q 124 753 75 636 q 265 931 174 869 q 485 992 357 992 q 640 961 563 992 q 769 876 718 931 l 722 776 q 609 855 671 829 q 483 881 547 881 q 273 783 346 881 q 200 492 200 685 l 200 368 l 186 368 q 234 501 196 446 q 333 588 272 557 q 469 618 393 618 q 625 578 557 618 q 732 468 693 538 q 771 307 771 399 q 729 142 771 215 q 615 28 688 69 q 449 -12 543 -12 m 442 94 q 549 121 503 94 q 622 194 596 147 q 647 303 647 242 q 622 411 647 364 q 549 485 596 458 q 442 511 503 511 q 334 485 381 511 q 261 411 288 458 q 235 303 235 364 q 261 194 235 242 q 334 121 288 147 q 442 94 381 94 z "},"7":{"ha":833,"x_min":88,"x_max":747,"o":"m 147 0 l 629 921 l 629 868 l 88 868 l 88 979 l 747 979 l 747 883 l 290 0 l 147 0 z "},"8":{"ha":833,"x_min":61,"x_max":772,"o":"m 417 -12 q 154 60 247 -12 q 61 261 61 132 q 124 430 61 363 q 289 511 188 497 l 289 489 q 141 574 196 508 q 86 731 86 639 q 174 922 86 853 q 417 992 263 992 q 660 922 572 992 q 749 731 749 853 q 697 572 749 639 q 553 489 644 506 l 553 511 q 713 430 654 497 q 772 261 772 363 q 680 60 772 132 q 417 -12 588 -12 m 417 92 q 592 136 535 92 q 650 268 650 181 q 592 400 650 357 q 417 443 535 443 q 242 400 300 443 q 183 268 183 357 q 242 136 183 181 q 417 92 300 92 m 417 549 q 572 594 518 549 q 625 719 625 639 q 572 843 625 799 q 417 888 518 888 q 263 843 317 888 q 208 719 208 799 q 263 594 208 639 q 417 549 317 549 z "},"9":{"ha":833,"x_min":64,"x_max":760,"o":"m 350 -12 q 194 19 272 -12 q 65 104 117 51 l 113 203 q 226 125 164 151 q 351 99 288 99 q 561 197 488 99 q 635 488 635 294 l 635 611 l 649 611 q 601 478 640 535 q 501 392 561 422 q 365 361 442 361 q 210 401 278 361 q 103 512 142 442 q 64 672 64 582 q 105 838 64 765 q 218 951 146 910 q 385 992 290 992 q 663 866 565 992 q 760 513 760 740 q 710 227 760 344 q 569 49 661 110 q 350 -12 478 -12 m 393 468 q 501 494 454 468 q 574 568 547 521 q 600 676 600 615 q 574 785 600 739 q 501 859 547 832 q 393 886 454 886 q 285 859 332 886 q 213 785 239 832 q 188 676 188 739 q 213 568 188 615 q 285 494 239 521 q 393 468 332 468 z "},"A":{"ha":1025,"x_min":19,"x_max":1006,"o":"m 19 0 l 453 979 l 565 979 l 1006 0 l 872 0 l 751 278 l 807 244 l 211 244 l 272 278 l 151 0 l 19 0 m 507 835 l 290 321 l 257 350 l 761 350 l 735 321 l 513 835 l 507 835 z "},"Á":{"ha":1025,"x_min":19,"x_max":1006,"o":"m 19 0 l 453 979 l 565 979 l 1006 0 l 872 0 l 751 278 l 807 244 l 211 244 l 272 278 l 151 0 l 19 0 m 507 835 l 290 321 l 257 350 l 761 350 l 735 321 l 513 835 l 507 835 m 463 1063 l 626 1301 l 765 1301 l 557 1063 l 463 1063 z "},"Ă":{"ha":1025,"x_min":19,"x_max":1006,"o":"m 19 0 l 453 979 l 565 979 l 1006 0 l 872 0 l 751 278 l 807 244 l 211 244 l 272 278 l 151 0 l 19 0 m 507 835 l 290 321 l 257 350 l 761 350 l 735 321 l 513 835 l 507 835 m 510 1056 q 344 1119 410 1056 q 271 1290 279 1182 l 347 1300 q 397 1181 354 1224 q 508 1138 439 1138 q 623 1181 579 1138 q 672 1300 667 1224 l 749 1290 q 675 1119 740 1182 q 510 1056 610 1056 z "},"Ắ":{"ha":1025,"x_min":19,"x_max":1006,"o":"m 19 0 l 453 979 l 565 979 l 1006 0 l 872 0 l 751 278 l 807 244 l 211 244 l 272 278 l 151 0 l 19 0 m 507 835 l 290 321 l 257 350 l 761 350 l 735 321 l 513 835 l 507 835 m 510 1056 q 356 1112 415 1056 q 288 1265 296 1168 l 357 1272 q 404 1170 365 1207 q 510 1133 443 1133 q 616 1170 578 1133 q 663 1272 654 1207 l 732 1265 q 665 1112 724 1168 q 510 1056 606 1056 m 460 1218 l 575 1413 l 704 1413 l 543 1218 l 460 1218 z "},"Ặ":{"ha":1025,"x_min":19,"x_max":1006,"o":"m 19 0 l 453 979 l 565 979 l 1006 0 l 872 0 l 751 278 l 807 244 l 211 244 l 272 278 l 151 0 l 19 0 m 507 835 l 290 321 l 257 350 l 761 350 l 735 321 l 513 835 l 507 835 m 442 -265 l 442 -135 l 578 -135 l 578 -265 l 442 -265 m 510 1056 q 344 1119 410 1056 q 271 1290 279 1182 l 347 1300 q 397 1181 354 1224 q 508 1138 439 1138 q 623 1181 579 1138 q 672 1300 667 1224 l 749 1290 q 675 1119 740 1182 q 510 1056 610 1056 z "},"Ằ":{"ha":1025,"x_min":19,"x_max":1006,"o":"m 19 0 l 453 979 l 565 979 l 1006 0 l 872 0 l 751 278 l 807 244 l 211 244 l 272 278 l 151 0 l 19 0 m 507 835 l 290 321 l 257 350 l 761 350 l 735 321 l 513 835 l 507 835 m 510 1056 q 356 1112 415 1056 q 288 1265 296 1168 l 357 1272 q 404 1170 365 1207 q 510 1133 443 1133 q 616 1170 578 1133 q 663 1272 654 1207 l 732 1265 q 665 1112 724 1168 q 510 1056 606 1056 m 476 1218 l 315 1413 l 444 1413 l 560 1218 l 476 1218 z "},"Ẳ":{"ha":1025,"x_min":19,"x_max":1006,"o":"m 19 0 l 453 979 l 565 979 l 1006 0 l 872 0 l 751 278 l 807 244 l 211 244 l 272 278 l 151 0 l 19 0 m 507 835 l 290 321 l 257 350 l 761 350 l 735 321 l 513 835 l 507 835 m 510 1056 q 356 1112 415 1056 q 288 1265 296 1168 l 357 1272 q 404 1170 365 1207 q 510 1133 443 1133 q 616 1170 578 1133 q 663 1272 654 1207 l 732 1265 q 665 1113 724 1169 q 510 1056 606 1056 m 472 1218 q 484 1263 472 1247 q 512 1290 496 1279 q 540 1310 528 1300 q 551 1336 551 1321 q 536 1356 551 1351 q 492 1361 521 1361 q 453 1358 474 1361 q 408 1346 433 1354 l 392 1401 q 447 1419 417 1413 q 515 1425 476 1425 q 609 1406 576 1425 q 642 1353 642 1386 q 628 1310 642 1326 q 595 1283 614 1294 q 563 1257 576 1271 q 549 1218 549 1243 l 472 1218 z "},"Ẵ":{"ha":1025,"x_min":19,"x_max":1006,"o":"m 19 0 l 453 979 l 565 979 l 1006 0 l 872 0 l 751 278 l 807 244 l 211 244 l 272 278 l 151 0 l 19 0 m 507 835 l 290 321 l 257 350 l 761 350 l 735 321 l 513 835 l 507 835 m 510 1056 q 366 1097 425 1056 q 288 1210 307 1139 l 357 1225 q 411 1158 372 1182 q 510 1133 450 1133 q 608 1158 569 1133 q 663 1225 647 1182 l 732 1210 q 654 1097 714 1139 q 510 1056 594 1056 m 351 1278 l 286 1281 q 328 1388 292 1351 q 419 1424 364 1424 q 471 1414 447 1424 q 524 1385 494 1404 q 568 1360 553 1365 q 597 1354 583 1354 q 645 1371 629 1354 q 668 1426 661 1388 l 733 1422 q 693 1315 729 1351 q 601 1279 657 1279 q 549 1290 574 1279 q 490 1322 524 1300 q 458 1341 475 1332 q 422 1350 440 1350 q 375 1333 392 1350 q 351 1278 358 1315 z "},"Ǎ":{"ha":1025,"x_min":19,"x_max":1006,"o":"m 19 0 l 453 979 l 565 979 l 1006 0 l 872 0 l 751 278 l 807 244 l 211 244 l 272 278 l 151 0 l 19 0 m 507 835 l 290 321 l 257 350 l 761 350 l 735 321 l 513 835 l 507 835 m 451 1063 l 282 1301 l 374 1301 l 510 1142 l 646 1301 l 738 1301 l 568 1063 l 451 1063 z "},"Â":{"ha":1025,"x_min":19,"x_max":1006,"o":"m 19 0 l 453 979 l 565 979 l 1006 0 l 872 0 l 751 278 l 807 244 l 211 244 l 272 278 l 151 0 l 19 0 m 507 835 l 290 321 l 257 350 l 761 350 l 735 321 l 513 835 l 507 835 m 282 1063 l 451 1301 l 568 1301 l 738 1063 l 646 1063 l 510 1222 l 374 1063 l 282 1063 z "},"Ấ":{"ha":1025,"x_min":19,"x_max":1006,"o":"m 19 0 l 453 979 l 565 979 l 1006 0 l 872 0 l 751 278 l 807 244 l 211 244 l 272 278 l 151 0 l 19 0 m 507 835 l 290 321 l 257 350 l 761 350 l 735 321 l 513 835 l 507 835 m 299 1063 l 451 1288 l 568 1288 l 721 1063 l 636 1063 l 510 1211 l 383 1063 l 299 1063 m 646 1208 l 764 1417 l 881 1417 l 724 1208 l 646 1208 z "},"Ậ":{"ha":1025,"x_min":19,"x_max":1006,"o":"m 19 0 l 453 979 l 565 979 l 1006 0 l 872 0 l 751 278 l 807 244 l 211 244 l 272 278 l 151 0 l 19 0 m 507 835 l 290 321 l 257 350 l 761 350 l 735 321 l 513 835 l 507 835 m 442 -265 l 442 -135 l 578 -135 l 578 -265 l 442 -265 m 282 1063 l 451 1301 l 568 1301 l 738 1063 l 646 1063 l 510 1222 l 374 1063 l 282 1063 z "},"Ầ":{"ha":1025,"x_min":19,"x_max":1006,"o":"m 19 0 l 453 979 l 565 979 l 1006 0 l 872 0 l 751 278 l 807 244 l 211 244 l 272 278 l 151 0 l 19 0 m 507 835 l 290 321 l 257 350 l 761 350 l 735 321 l 513 835 l 507 835 m 299 1063 l 451 1288 l 568 1288 l 721 1063 l 636 1063 l 510 1211 l 383 1063 l 299 1063 m 700 1208 l 544 1417 l 661 1417 l 781 1208 l 700 1208 z "},"Ẩ":{"ha":1025,"x_min":19,"x_max":1006,"o":"m 19 0 l 453 979 l 565 979 l 1006 0 l 872 0 l 751 278 l 807 244 l 211 244 l 272 278 l 151 0 l 19 0 m 507 835 l 290 321 l 257 350 l 761 350 l 735 321 l 513 835 l 507 835 m 299 1063 l 451 1288 l 568 1288 l 721 1063 l 636 1063 l 510 1211 l 383 1063 l 299 1063 m 654 1208 q 666 1253 654 1236 q 694 1283 678 1271 q 722 1306 710 1294 q 733 1332 733 1317 q 718 1353 733 1347 q 675 1358 703 1358 q 635 1355 656 1358 q 592 1342 614 1351 l 572 1397 q 628 1415 599 1408 q 696 1422 658 1422 q 790 1403 757 1422 q 824 1350 824 1383 q 809 1306 824 1322 q 776 1277 794 1290 q 744 1248 758 1264 q 729 1208 729 1232 l 654 1208 z "},"Ẫ":{"ha":1025,"x_min":19,"x_max":1006,"o":"m 19 0 l 453 979 l 565 979 l 1006 0 l 872 0 l 751 278 l 807 244 l 211 244 l 272 278 l 151 0 l 19 0 m 507 835 l 290 321 l 257 350 l 761 350 l 735 321 l 513 835 l 507 835 m 299 1063 l 451 1246 l 568 1246 l 721 1063 l 639 1063 l 510 1176 l 381 1063 l 299 1063 m 351 1278 l 286 1281 q 328 1388 292 1351 q 419 1424 364 1424 q 471 1414 447 1424 q 524 1385 494 1404 q 568 1360 553 1365 q 597 1354 583 1354 q 645 1371 629 1354 q 668 1426 661 1388 l 733 1422 q 693 1315 729 1351 q 601 1279 657 1279 q 549 1290 574 1279 q 490 1322 524 1300 q 458 1341 475 1332 q 422 1350 440 1350 q 375 1333 392 1350 q 351 1278 358 1315 z "},"Ȁ":{"ha":1025,"x_min":19,"x_max":1006,"o":"m 19 0 l 453 979 l 565 979 l 1006 0 l 872 0 l 751 278 l 807 244 l 211 244 l 272 278 l 151 0 l 19 0 m 507 835 l 290 321 l 257 350 l 761 350 l 735 321 l 513 835 l 507 835 m 564 1063 l 397 1301 l 519 1301 l 638 1063 l 564 1063 m 382 1063 l 207 1301 l 329 1301 l 456 1063 l 382 1063 z "},"Ä":{"ha":1025,"x_min":19,"x_max":1006,"o":"m 19 0 l 453 979 l 565 979 l 1006 0 l 872 0 l 751 278 l 807 244 l 211 244 l 272 278 l 151 0 l 19 0 m 507 835 l 290 321 l 257 350 l 761 350 l 735 321 l 513 835 l 507 835 m 568 1114 l 568 1243 l 697 1243 l 697 1114 l 568 1114 m 322 1114 l 322 1243 l 451 1243 l 451 1114 l 322 1114 z "},"Ȧ":{"ha":1025,"x_min":19,"x_max":1006,"o":"m 19 0 l 453 979 l 565 979 l 1006 0 l 872 0 l 751 278 l 807 244 l 211 244 l 272 278 l 151 0 l 19 0 m 507 835 l 290 321 l 257 350 l 761 350 l 735 321 l 513 835 l 507 835 m 442 1117 l 442 1247 l 578 1247 l 578 1117 l 442 1117 z "},"Ạ":{"ha":1025,"x_min":19,"x_max":1006,"o":"m 19 0 l 453 979 l 565 979 l 1006 0 l 872 0 l 751 278 l 807 244 l 211 244 l 272 278 l 151 0 l 19 0 m 507 835 l 290 321 l 257 350 l 761 350 l 735 321 l 513 835 l 507 835 m 442 -265 l 442 -135 l 578 -135 l 578 -265 l 442 -265 z "},"À":{"ha":1025,"x_min":19,"x_max":1006,"o":"m 19 0 l 453 979 l 565 979 l 1006 0 l 872 0 l 751 278 l 807 244 l 211 244 l 272 278 l 151 0 l 19 0 m 507 835 l 290 321 l 257 350 l 761 350 l 735 321 l 513 835 l 507 835 m 463 1063 l 254 1301 l 393 1301 l 557 1063 l 463 1063 z "},"Ả":{"ha":1025,"x_min":19,"x_max":1006,"o":"m 19 0 l 453 979 l 565 979 l 1006 0 l 872 0 l 751 278 l 807 244 l 211 244 l 272 278 l 151 0 l 19 0 m 507 835 l 290 321 l 257 350 l 761 350 l 735 321 l 513 835 l 507 835 m 467 1063 l 467 1085 q 480 1129 467 1113 q 510 1158 493 1146 q 540 1182 526 1171 q 553 1208 553 1193 q 538 1232 553 1224 q 490 1240 522 1240 q 449 1235 469 1240 q 404 1221 428 1231 l 383 1282 q 518 1311 436 1311 q 618 1288 582 1311 q 654 1225 654 1264 q 639 1177 654 1194 q 603 1147 624 1160 q 568 1119 583 1133 q 553 1078 553 1104 l 553 1063 l 467 1063 z "},"Ȃ":{"ha":1025,"x_min":19,"x_max":1006,"o":"m 19 0 l 453 979 l 565 979 l 1006 0 l 872 0 l 751 278 l 807 244 l 211 244 l 272 278 l 151 0 l 19 0 m 507 835 l 290 321 l 257 350 l 761 350 l 735 321 l 513 835 l 507 835 m 347 1056 l 271 1065 q 344 1238 279 1175 q 510 1300 410 1300 q 675 1238 610 1300 q 749 1065 740 1175 l 672 1056 q 623 1176 667 1133 q 508 1218 579 1218 q 397 1176 439 1218 q 347 1056 354 1133 z "},"Ā":{"ha":1025,"x_min":19,"x_max":1006,"o":"m 19 0 l 453 979 l 565 979 l 1006 0 l 872 0 l 751 278 l 807 244 l 211 244 l 272 278 l 151 0 l 19 0 m 507 835 l 290 321 l 257 350 l 761 350 l 735 321 l 513 835 l 507 835 m 279 1129 l 279 1211 l 740 1211 l 740 1129 l 279 1129 z "},"Ą":{"ha":1025,"x_min":19,"x_max":1056,"o":"m 19 0 l 453 979 l 565 979 l 1006 0 l 872 0 l 751 278 l 807 244 l 211 244 l 272 278 l 151 0 l 19 0 m 507 835 l 290 321 l 257 350 l 761 350 l 735 321 l 513 835 l 507 835 m 944 -268 q 835 -231 876 -268 q 794 -131 794 -193 q 831 -26 794 -75 q 929 51 867 24 l 972 0 q 929 -26 950 -10 q 894 -66 908 -43 q 881 -117 881 -89 q 904 -174 881 -154 q 961 -193 928 -193 q 999 -189 981 -193 q 1036 -176 1017 -185 l 1056 -244 q 1007 -262 1035 -256 q 944 -268 979 -268 z "},"Å":{"ha":1025,"x_min":19,"x_max":1006,"o":"m 19 0 l 453 979 l 565 979 l 1006 0 l 872 0 l 751 278 l 807 244 l 211 244 l 272 278 l 151 0 l 19 0 m 507 835 l 290 321 l 257 350 l 761 350 l 735 321 l 513 835 l 507 835 m 510 1051 q 426 1074 464 1051 q 365 1133 388 1096 q 343 1215 343 1171 q 365 1298 343 1261 q 425 1356 388 1335 q 510 1378 463 1378 q 594 1356 557 1378 q 654 1298 632 1335 q 676 1215 676 1261 q 654 1133 676 1169 q 595 1074 632 1096 q 510 1051 558 1051 m 510 1117 q 580 1145 553 1117 q 607 1215 607 1174 q 581 1285 607 1257 q 510 1313 554 1313 q 440 1284 468 1313 q 413 1215 413 1256 q 440 1145 413 1174 q 510 1117 467 1117 z "},"Ǻ":{"ha":1025,"x_min":19,"x_max":1006,"o":"m 19 0 l 453 979 l 565 979 l 1006 0 l 872 0 l 751 278 l 807 244 l 211 244 l 272 278 l 151 0 l 19 0 m 507 835 l 290 321 l 257 350 l 761 350 l 735 321 l 513 835 l 507 835 m 510 1051 q 427 1073 464 1051 q 369 1131 390 1094 q 347 1211 347 1167 q 369 1291 347 1256 q 427 1348 390 1326 q 510 1369 464 1369 q 559 1363 536 1369 q 601 1343 582 1356 l 697 1432 l 814 1432 l 650 1292 q 672 1211 672 1256 q 651 1131 672 1167 q 592 1073 629 1094 q 510 1051 556 1051 m 510 1113 q 580 1141 553 1113 q 607 1211 607 1169 q 581 1281 607 1253 q 510 1308 554 1308 q 440 1281 468 1308 q 413 1211 413 1253 q 440 1141 413 1169 q 510 1113 467 1113 z "},"Ã":{"ha":1025,"x_min":19,"x_max":1006,"o":"m 19 0 l 453 979 l 565 979 l 1006 0 l 872 0 l 751 278 l 807 244 l 211 244 l 272 278 l 151 0 l 19 0 m 507 835 l 290 321 l 257 350 l 761 350 l 735 321 l 513 835 l 507 835 m 285 1083 l 215 1088 q 270 1228 224 1179 q 386 1278 317 1278 q 451 1265 418 1278 q 529 1222 483 1251 q 594 1187 571 1197 q 638 1176 618 1176 q 702 1203 678 1176 q 735 1282 726 1231 l 804 1278 q 750 1138 796 1188 q 635 1088 704 1088 q 569 1101 603 1088 q 486 1146 535 1115 q 425 1181 447 1172 q 382 1190 403 1190 q 317 1163 342 1190 q 285 1083 293 1136 z "},"Æ":{"ha":1400,"x_min":-8,"x_max":1333,"o":"m -8 0 l 593 979 l 1333 979 l 1333 874 l 786 874 l 817 906 l 851 515 l 826 550 l 1304 550 l 1304 444 l 835 444 l 856 458 l 890 72 l 874 106 l 1333 106 l 1333 0 l 776 0 l 753 272 l 789 244 l 260 244 l 303 279 l 133 0 l -8 0 m 657 872 l 326 319 l 313 350 l 761 350 l 750 317 l 700 872 l 657 872 z "},"Ǽ":{"ha":1400,"x_min":-8,"x_max":1333,"o":"m -8 0 l 593 979 l 1333 979 l 1333 874 l 786 874 l 817 906 l 851 515 l 826 550 l 1304 550 l 1304 444 l 835 444 l 856 458 l 890 72 l 874 106 l 1333 106 l 1333 0 l 776 0 l 753 272 l 789 244 l 260 244 l 303 279 l 133 0 l -8 0 m 657 872 l 326 319 l 313 350 l 761 350 l 750 317 l 700 872 l 657 872 m 671 1063 l 835 1301 l 974 1301 l 765 1063 l 671 1063 z "},"B":{"ha":949,"x_min":119,"x_max":871,"o":"m 119 0 l 119 979 l 518 979 q 761 913 676 979 q 846 725 846 846 q 791 572 846 633 q 642 490 736 511 l 642 511 q 810 436 750 499 q 871 271 871 374 q 783 70 871 140 q 536 0 696 0 l 119 0 m 244 103 l 524 103 q 685 142 626 103 q 744 274 744 182 q 685 406 744 367 q 524 444 626 444 l 244 444 l 244 103 m 244 547 l 500 547 q 664 590 610 547 q 718 713 718 632 q 664 835 718 793 q 500 878 610 878 l 244 878 l 244 547 z "},"Ɓ":{"ha":1136,"x_min":-1,"x_max":1057,"o":"m 306 0 l 306 882 l 261 882 q 145 847 182 882 q 108 736 108 811 l 108 672 l -1 672 l -1 740 q 66 920 -1 861 q 274 979 133 979 l 706 979 q 947 913 863 979 q 1032 725 1032 846 q 978 572 1032 633 q 829 490 924 511 l 829 511 q 997 435 936 499 q 1057 271 1057 372 q 969 70 1057 140 q 722 0 882 0 l 306 0 m 432 103 l 710 103 q 876 144 821 103 q 931 274 931 186 q 876 402 931 360 q 710 444 822 444 l 432 444 l 432 103 m 432 547 l 686 547 q 849 590 794 547 q 904 713 904 632 q 849 835 904 793 q 686 878 794 878 l 432 878 l 432 547 z "},"C":{"ha":951,"x_min":83,"x_max":882,"o":"m 551 -12 q 299 49 404 -12 q 139 223 194 110 q 83 490 83 336 q 139 757 83 644 q 299 931 194 869 q 551 992 404 992 q 739 960 657 992 q 882 869 821 929 l 835 765 q 703 849 768 824 q 554 875 639 875 q 306 775 392 875 q 219 490 219 675 q 306 205 219 306 q 554 104 392 104 q 703 130 639 104 q 835 214 768 156 l 882 111 q 738 19 821 51 q 551 -12 656 -12 z "},"Ć":{"ha":951,"x_min":83,"x_max":882,"o":"m 551 -12 q 299 49 404 -12 q 139 223 194 110 q 83 490 83 336 q 139 757 83 644 q 299 931 194 869 q 551 992 404 992 q 739 960 657 992 q 882 869 821 929 l 835 765 q 703 849 768 824 q 554 875 639 875 q 306 775 392 875 q 219 490 219 675 q 306 205 219 306 q 554 104 392 104 q 703 130 639 104 q 835 214 768 156 l 882 111 q 738 19 821 51 q 551 -12 656 -12 m 499 1063 l 663 1301 l 801 1301 l 593 1063 l 499 1063 z "},"Č":{"ha":951,"x_min":83,"x_max":882,"o":"m 551 -12 q 299 49 404 -12 q 139 223 194 110 q 83 490 83 336 q 139 757 83 644 q 299 931 194 869 q 551 992 404 992 q 739 960 657 992 q 882 869 821 929 l 835 765 q 703 849 768 824 q 554 875 639 875 q 306 775 392 875 q 219 490 219 675 q 306 205 219 306 q 554 104 392 104 q 703 130 639 104 q 835 214 768 156 l 882 111 q 738 19 821 51 q 551 -12 656 -12 m 488 1063 l 318 1301 l 410 1301 l 546 1142 l 682 1301 l 774 1301 l 604 1063 l 488 1063 z "},"Ç":{"ha":951,"x_min":83,"x_max":882,"o":"m 551 -12 q 299 49 404 -12 q 139 223 194 110 q 83 490 83 336 q 139 757 83 644 q 299 931 194 869 q 551 992 404 992 q 739 960 657 992 q 882 869 821 929 l 835 765 q 703 849 768 824 q 554 875 639 875 q 306 775 392 875 q 219 490 219 675 q 306 205 219 306 q 554 104 392 104 q 703 130 639 104 q 835 214 768 156 l 882 111 q 738 19 821 51 q 551 -12 656 -12 m 549 -268 q 477 -260 511 -268 q 419 -240 443 -253 l 439 -175 q 488 -193 465 -187 q 542 -199 511 -199 q 601 -186 579 -199 q 622 -149 622 -174 q 569 -112 622 -112 q 540 -115 554 -112 q 506 -122 526 -117 l 482 -100 l 501 28 l 578 28 l 560 -78 l 524 -67 q 556 -60 539 -62 q 588 -57 574 -57 q 672 -82 639 -57 q 706 -153 706 -107 q 662 -236 706 -204 q 549 -268 618 -268 z "},"Ḉ":{"ha":951,"x_min":83,"x_max":882,"o":"m 551 -12 q 299 49 404 -12 q 139 223 194 110 q 83 490 83 336 q 139 757 83 644 q 299 931 194 869 q 551 992 404 992 q 739 960 657 992 q 882 869 821 929 l 835 765 q 703 849 768 824 q 554 875 639 875 q 306 775 392 875 q 219 490 219 675 q 306 205 219 306 q 554 104 392 104 q 703 130 639 104 q 835 214 768 156 l 882 111 q 738 19 821 51 q 551 -12 656 -12 m 549 -268 q 477 -260 511 -268 q 419 -240 443 -253 l 439 -175 q 488 -193 465 -187 q 542 -199 511 -199 q 601 -186 579 -199 q 622 -149 622 -174 q 569 -112 622 -112 q 540 -115 554 -112 q 506 -122 526 -117 l 482 -100 l 501 28 l 578 28 l 560 -78 l 524 -67 q 556 -60 539 -62 q 588 -57 574 -57 q 672 -82 639 -57 q 706 -153 706 -107 q 662 -236 706 -204 q 549 -268 618 -268 m 499 1063 l 663 1301 l 801 1301 l 593 1063 l 499 1063 z "},"Ĉ":{"ha":951,"x_min":83,"x_max":882,"o":"m 551 -12 q 299 49 404 -12 q 139 223 194 110 q 83 490 83 336 q 139 757 83 644 q 299 931 194 869 q 551 992 404 992 q 739 960 657 992 q 882 869 821 929 l 835 765 q 703 849 768 824 q 554 875 639 875 q 306 775 392 875 q 219 490 219 675 q 306 205 219 306 q 554 104 392 104 q 703 130 639 104 q 835 214 768 156 l 882 111 q 738 19 821 51 q 551 -12 656 -12 m 318 1063 l 488 1301 l 604 1301 l 774 1063 l 682 1063 l 546 1222 l 410 1063 l 318 1063 z "},"Ċ":{"ha":951,"x_min":83,"x_max":882,"o":"m 551 -12 q 299 49 404 -12 q 139 223 194 110 q 83 490 83 336 q 139 757 83 644 q 299 931 194 869 q 551 992 404 992 q 739 960 657 992 q 882 869 821 929 l 835 765 q 703 849 768 824 q 554 875 639 875 q 306 775 392 875 q 219 490 219 675 q 306 205 219 306 q 554 104 392 104 q 703 130 639 104 q 835 214 768 156 l 882 111 q 738 19 821 51 q 551 -12 656 -12 m 478 1117 l 478 1247 l 614 1247 l 614 1117 l 478 1117 z "},"D":{"ha":1042,"x_min":119,"x_max":958,"o":"m 119 0 l 119 979 l 451 979 q 728 922 615 979 q 900 756 842 865 q 958 490 958 647 q 900 224 958 333 q 728 57 842 114 q 451 0 615 0 l 119 0 m 249 110 l 442 110 q 732 204 638 110 q 826 490 826 299 q 732 776 826 682 q 442 869 638 869 l 249 869 l 249 110 z "},"Ǆ":{"ha":1853,"x_min":119,"x_max":1804,"o":"m 119 0 l 119 979 l 451 979 q 728 922 615 979 q 900 756 842 865 q 958 490 958 647 q 900 224 958 333 q 728 57 842 114 q 451 0 615 0 l 119 0 m 249 110 l 442 110 q 732 204 638 110 q 826 490 826 299 q 732 776 826 682 q 442 869 638 869 l 249 869 l 249 110 m 1082 0 l 1082 96 l 1664 915 l 1664 869 l 1082 869 l 1082 979 l 1788 979 l 1788 885 l 1204 64 l 1204 110 l 1804 110 l 1804 0 l 1082 0 m 1385 1063 l 1215 1301 l 1307 1301 l 1443 1142 l 1579 1301 l 1671 1301 l 1501 1063 l 1385 1063 z "},"Ð":{"ha":1042,"x_min":0,"x_max":958,"o":"m 119 0 l 119 979 l 451 979 q 728 922 615 979 q 900 756 842 865 q 958 490 958 647 q 900 224 958 333 q 728 57 842 114 q 451 0 615 0 l 119 0 m 249 110 l 442 110 q 732 204 638 110 q 826 490 826 299 q 732 776 826 682 q 442 869 638 869 l 249 869 l 249 110 m 0 447 l 0 546 l 522 546 l 522 447 l 0 447 z "},"Ď":{"ha":1042,"x_min":119,"x_max":958,"o":"m 119 0 l 119 979 l 451 979 q 728 922 615 979 q 900 756 842 865 q 958 490 958 647 q 900 224 958 333 q 728 57 842 114 q 451 0 615 0 l 119 0 m 249 110 l 442 110 q 732 204 638 110 q 826 490 826 299 q 732 776 826 682 q 442 869 638 869 l 249 869 l 249 110 m 471 1063 l 301 1301 l 393 1301 l 529 1142 l 665 1301 l 757 1301 l 588 1063 l 471 1063 z "},"Đ":{"ha":1042,"x_min":0,"x_max":958,"o":"m 119 0 l 119 979 l 451 979 q 728 922 615 979 q 900 756 842 865 q 958 490 958 647 q 900 224 958 333 q 728 57 842 114 q 451 0 615 0 l 119 0 m 249 110 l 442 110 q 732 204 638 110 q 826 490 826 299 q 732 776 826 682 q 442 869 638 869 l 249 869 l 249 110 m 0 447 l 0 546 l 522 546 l 522 447 l 0 447 z "},"Ḍ":{"ha":1042,"x_min":119,"x_max":958,"o":"m 119 0 l 119 979 l 451 979 q 728 922 615 979 q 900 756 842 865 q 958 490 958 647 q 900 224 958 333 q 728 57 842 114 q 451 0 615 0 l 119 0 m 249 110 l 442 110 q 732 204 638 110 q 826 490 826 299 q 732 776 826 682 q 442 869 638 869 l 249 869 l 249 110 m 461 -265 l 461 -135 l 597 -135 l 597 -265 l 461 -265 z "},"Ɗ":{"ha":1229,"x_min":-1,"x_max":1146,"o":"m 306 0 l 306 882 l 261 882 q 145 847 182 882 q 108 736 108 811 l 108 672 l -1 672 l -1 740 q 65 920 -1 861 q 265 979 132 979 l 639 979 q 1014 853 882 979 q 1146 490 1146 728 q 1014 126 1146 253 q 639 0 882 0 l 306 0 m 435 110 l 629 110 q 919 204 824 110 q 1014 490 1014 299 q 919 776 1014 682 q 629 869 824 869 l 435 869 l 435 110 z "},"Ḏ":{"ha":1042,"x_min":119,"x_max":958,"o":"m 119 0 l 119 979 l 451 979 q 728 922 615 979 q 900 756 842 865 q 958 490 958 647 q 900 224 958 333 q 728 57 842 114 q 451 0 615 0 l 119 0 m 249 110 l 442 110 q 732 204 638 110 q 826 490 826 299 q 732 776 826 682 q 442 869 638 869 l 249 869 l 249 110 m 319 -219 l 319 -137 l 739 -137 l 739 -219 l 319 -219 z "},"ǅ":{"ha":1764,"x_min":119,"x_max":1706,"o":"m 119 0 l 119 979 l 451 979 q 728 922 615 979 q 900 756 842 865 q 958 490 958 647 q 900 224 958 333 q 728 57 842 114 q 451 0 615 0 l 119 0 m 249 110 l 442 110 q 732 204 638 110 q 826 490 826 299 q 732 776 826 682 q 442 869 638 869 l 249 869 l 249 110 m 1110 0 l 1110 85 l 1574 633 l 1574 601 l 1110 601 l 1110 699 l 1690 699 l 1690 614 l 1224 63 l 1222 97 l 1706 97 l 1706 0 l 1110 0 m 1346 767 l 1193 1047 l 1278 1047 l 1404 847 l 1531 1047 l 1615 1047 l 1463 767 l 1346 767 z "},"E":{"ha":819,"x_min":119,"x_max":753,"o":"m 119 0 l 119 979 l 753 979 l 753 874 l 244 874 l 244 550 l 721 550 l 721 444 l 244 444 l 244 106 l 753 106 l 753 0 l 119 0 z "},"É":{"ha":819,"x_min":119,"x_max":753,"o":"m 119 0 l 119 979 l 753 979 l 753 874 l 244 874 l 244 550 l 721 550 l 721 444 l 244 444 l 244 106 l 753 106 l 753 0 l 119 0 m 410 1063 l 574 1301 l 713 1301 l 504 1063 l 410 1063 z "},"Ĕ":{"ha":819,"x_min":119,"x_max":753,"o":"m 119 0 l 119 979 l 753 979 l 753 874 l 244 874 l 244 550 l 721 550 l 721 444 l 244 444 l 244 106 l 753 106 l 753 0 l 119 0 m 457 1056 q 292 1119 357 1056 q 218 1290 226 1182 l 294 1300 q 344 1181 301 1224 q 456 1138 386 1138 q 570 1181 526 1138 q 619 1300 614 1224 l 696 1290 q 622 1119 688 1182 q 457 1056 557 1056 z "},"Ě":{"ha":819,"x_min":119,"x_max":753,"o":"m 119 0 l 119 979 l 753 979 l 753 874 l 244 874 l 244 550 l 721 550 l 721 444 l 244 444 l 244 106 l 753 106 l 753 0 l 119 0 m 399 1063 l 229 1301 l 321 1301 l 457 1142 l 593 1301 l 685 1301 l 515 1063 l 399 1063 z "},"Ȩ":{"ha":819,"x_min":119,"x_max":753,"o":"m 119 0 l 119 979 l 753 979 l 753 874 l 244 874 l 244 550 l 721 550 l 721 444 l 244 444 l 244 106 l 753 106 l 753 0 l 119 0 m 461 -268 q 390 -260 424 -268 q 332 -240 356 -253 l 351 -175 q 401 -193 378 -187 q 454 -199 424 -199 q 513 -186 492 -199 q 535 -149 535 -174 q 482 -112 535 -112 q 453 -115 467 -112 q 418 -122 439 -117 l 394 -100 l 414 28 l 490 28 l 472 -78 l 436 -67 q 469 -60 451 -62 q 500 -57 486 -57 q 585 -82 551 -57 q 618 -153 618 -107 q 574 -236 618 -204 q 461 -268 531 -268 z "},"Ḝ":{"ha":819,"x_min":119,"x_max":753,"o":"m 119 0 l 119 979 l 753 979 l 753 874 l 244 874 l 244 550 l 721 550 l 721 444 l 244 444 l 244 106 l 753 106 l 753 0 l 119 0 m 461 -268 q 390 -260 424 -268 q 332 -240 356 -253 l 351 -175 q 401 -193 378 -187 q 454 -199 424 -199 q 513 -186 492 -199 q 535 -149 535 -174 q 482 -112 535 -112 q 453 -115 467 -112 q 418 -122 439 -117 l 394 -100 l 414 28 l 490 28 l 472 -78 l 436 -67 q 469 -60 451 -62 q 500 -57 486 -57 q 585 -82 551 -57 q 618 -153 618 -107 q 574 -236 618 -204 q 461 -268 531 -268 m 457 1056 q 292 1119 357 1056 q 218 1290 226 1182 l 294 1300 q 344 1181 301 1224 q 456 1138 386 1138 q 570 1181 526 1138 q 619 1300 614 1224 l 696 1290 q 622 1119 688 1182 q 457 1056 557 1056 z "},"Ê":{"ha":819,"x_min":119,"x_max":753,"o":"m 119 0 l 119 979 l 753 979 l 753 874 l 244 874 l 244 550 l 721 550 l 721 444 l 244 444 l 244 106 l 753 106 l 753 0 l 119 0 m 229 1063 l 399 1301 l 515 1301 l 685 1063 l 593 1063 l 457 1222 l 321 1063 l 229 1063 z "},"Ế":{"ha":819,"x_min":119,"x_max":828,"o":"m 119 0 l 119 979 l 753 979 l 753 874 l 244 874 l 244 550 l 721 550 l 721 444 l 244 444 l 244 106 l 753 106 l 753 0 l 119 0 m 246 1063 l 399 1288 l 515 1288 l 668 1063 l 583 1063 l 457 1211 l 331 1063 l 246 1063 m 593 1208 l 711 1417 l 828 1417 l 671 1208 l 593 1208 z "},"Ệ":{"ha":819,"x_min":119,"x_max":753,"o":"m 119 0 l 119 979 l 753 979 l 753 874 l 244 874 l 244 550 l 721 550 l 721 444 l 244 444 l 244 106 l 753 106 l 753 0 l 119 0 m 389 -265 l 389 -135 l 525 -135 l 525 -265 l 389 -265 m 229 1063 l 399 1301 l 515 1301 l 685 1063 l 593 1063 l 457 1222 l 321 1063 l 229 1063 z "},"Ề":{"ha":819,"x_min":119,"x_max":753,"o":"m 119 0 l 119 979 l 753 979 l 753 874 l 244 874 l 244 550 l 721 550 l 721 444 l 244 444 l 244 106 l 753 106 l 753 0 l 119 0 m 246 1063 l 399 1288 l 515 1288 l 668 1063 l 583 1063 l 457 1211 l 331 1063 l 246 1063 m 647 1208 l 492 1417 l 608 1417 l 728 1208 l 647 1208 z "},"Ể":{"ha":819,"x_min":119,"x_max":769,"o":"m 119 0 l 119 979 l 753 979 l 753 874 l 244 874 l 244 550 l 721 550 l 721 444 l 244 444 l 244 106 l 753 106 l 753 0 l 119 0 m 246 1063 l 399 1288 l 515 1288 l 668 1063 l 583 1063 l 457 1211 l 331 1063 l 246 1063 m 601 1208 q 613 1253 601 1236 q 641 1283 625 1271 q 669 1306 657 1294 q 681 1332 681 1317 q 665 1353 681 1347 q 622 1358 650 1358 q 582 1355 603 1358 q 539 1342 561 1351 l 519 1397 q 576 1415 546 1408 q 643 1422 606 1422 q 738 1403 704 1422 q 771 1350 771 1383 q 756 1306 771 1322 q 724 1277 742 1290 q 691 1248 706 1264 q 676 1208 676 1232 l 601 1208 z "},"Ễ":{"ha":819,"x_min":119,"x_max":753,"o":"m 119 0 l 119 979 l 753 979 l 753 874 l 244 874 l 244 550 l 721 550 l 721 444 l 244 444 l 244 106 l 753 106 l 753 0 l 119 0 m 246 1063 l 399 1246 l 515 1246 l 668 1063 l 586 1063 l 457 1176 l 328 1063 l 246 1063 m 299 1278 l 233 1281 q 275 1388 239 1351 q 367 1424 311 1424 q 418 1414 394 1424 q 471 1385 442 1404 q 515 1360 500 1365 q 544 1354 531 1354 q 592 1371 576 1354 q 615 1426 608 1388 l 681 1422 q 640 1315 676 1351 q 549 1279 604 1279 q 496 1290 521 1279 q 438 1322 471 1300 q 405 1341 422 1332 q 369 1350 388 1350 q 322 1333 339 1350 q 299 1278 306 1315 z "},"Ȅ":{"ha":819,"x_min":119,"x_max":753,"o":"m 119 0 l 119 979 l 753 979 l 753 874 l 244 874 l 244 550 l 721 550 l 721 444 l 244 444 l 244 106 l 753 106 l 753 0 l 119 0 m 511 1063 l 344 1301 l 467 1301 l 585 1063 l 511 1063 m 329 1063 l 154 1301 l 276 1301 l 403 1063 l 329 1063 z "},"Ë":{"ha":819,"x_min":119,"x_max":753,"o":"m 119 0 l 119 979 l 753 979 l 753 874 l 244 874 l 244 550 l 721 550 l 721 444 l 244 444 l 244 106 l 753 106 l 753 0 l 119 0 m 515 1114 l 515 1243 l 644 1243 l 644 1114 l 515 1114 m 269 1114 l 269 1243 l 399 1243 l 399 1114 l 269 1114 z "},"Ė":{"ha":819,"x_min":119,"x_max":753,"o":"m 119 0 l 119 979 l 753 979 l 753 874 l 244 874 l 244 550 l 721 550 l 721 444 l 244 444 l 244 106 l 753 106 l 753 0 l 119 0 m 389 1117 l 389 1247 l 525 1247 l 525 1117 l 389 1117 z "},"Ẹ":{"ha":819,"x_min":119,"x_max":753,"o":"m 119 0 l 119 979 l 753 979 l 753 874 l 244 874 l 244 550 l 721 550 l 721 444 l 244 444 l 244 106 l 753 106 l 753 0 l 119 0 m 389 -265 l 389 -135 l 525 -135 l 525 -265 l 389 -265 z "},"È":{"ha":819,"x_min":119,"x_max":753,"o":"m 119 0 l 119 979 l 753 979 l 753 874 l 244 874 l 244 550 l 721 550 l 721 444 l 244 444 l 244 106 l 753 106 l 753 0 l 119 0 m 410 1063 l 201 1301 l 340 1301 l 504 1063 l 410 1063 z "},"Ẻ":{"ha":819,"x_min":119,"x_max":753,"o":"m 119 0 l 119 979 l 753 979 l 753 874 l 244 874 l 244 550 l 721 550 l 721 444 l 244 444 l 244 106 l 753 106 l 753 0 l 119 0 m 414 1063 l 414 1085 q 427 1129 414 1113 q 457 1158 440 1146 q 487 1182 474 1171 q 500 1208 500 1193 q 485 1232 500 1224 q 438 1240 469 1240 q 396 1235 417 1240 q 351 1221 375 1231 l 331 1282 q 465 1311 383 1311 q 565 1288 529 1311 q 601 1225 601 1264 q 586 1177 601 1194 q 551 1147 571 1160 q 515 1119 531 1133 q 500 1078 500 1104 l 500 1063 l 414 1063 z "},"Ȇ":{"ha":819,"x_min":119,"x_max":753,"o":"m 119 0 l 119 979 l 753 979 l 753 874 l 244 874 l 244 550 l 721 550 l 721 444 l 244 444 l 244 106 l 753 106 l 753 0 l 119 0 m 294 1056 l 218 1065 q 292 1238 226 1175 q 457 1300 357 1300 q 622 1238 557 1300 q 696 1065 688 1175 l 619 1056 q 570 1176 614 1133 q 456 1218 526 1218 q 344 1176 386 1218 q 294 1056 301 1133 z "},"Ē":{"ha":819,"x_min":119,"x_max":753,"o":"m 119 0 l 119 979 l 753 979 l 753 874 l 244 874 l 244 550 l 721 550 l 721 444 l 244 444 l 244 106 l 753 106 l 753 0 l 119 0 m 226 1129 l 226 1211 l 688 1211 l 688 1129 l 226 1129 z "},"Ḗ":{"ha":819,"x_min":119,"x_max":753,"o":"m 119 0 l 119 979 l 753 979 l 753 874 l 244 874 l 244 550 l 721 550 l 721 444 l 244 444 l 244 106 l 753 106 l 753 0 l 119 0 m 247 1094 l 247 1178 l 667 1178 l 667 1094 l 247 1094 m 415 1229 l 531 1422 l 660 1422 l 499 1229 l 415 1229 z "},"Ḕ":{"ha":819,"x_min":119,"x_max":753,"o":"m 119 0 l 119 979 l 753 979 l 753 874 l 244 874 l 244 550 l 721 550 l 721 444 l 244 444 l 244 106 l 753 106 l 753 0 l 119 0 m 415 1229 l 254 1422 l 383 1422 l 499 1229 l 415 1229 m 247 1094 l 247 1178 l 667 1178 l 667 1094 l 247 1094 z "},"Ę":{"ha":819,"x_min":119,"x_max":788,"o":"m 119 0 l 119 979 l 753 979 l 753 874 l 244 874 l 244 550 l 721 550 l 721 444 l 244 444 l 244 106 l 753 106 l 753 0 l 119 0 m 675 -268 q 566 -231 607 -268 q 525 -131 525 -193 q 561 -26 525 -75 q 660 51 597 24 l 703 0 q 660 -26 681 -10 q 625 -66 639 -43 q 611 -117 611 -89 q 635 -174 611 -154 q 692 -193 658 -193 q 729 -189 711 -193 q 767 -176 747 -185 l 786 -244 q 738 -262 765 -256 q 675 -268 710 -268 z "},"Ẽ":{"ha":819,"x_min":119,"x_max":753,"o":"m 119 0 l 119 979 l 753 979 l 753 874 l 244 874 l 244 550 l 721 550 l 721 444 l 244 444 l 244 106 l 753 106 l 753 0 l 119 0 m 232 1083 l 163 1088 q 217 1228 171 1179 q 333 1278 264 1278 q 398 1265 365 1278 q 476 1222 431 1251 q 542 1187 518 1197 q 585 1176 565 1176 q 649 1203 625 1176 q 682 1282 674 1231 l 751 1278 q 697 1138 743 1188 q 582 1088 651 1088 q 516 1101 550 1088 q 433 1146 482 1115 q 372 1181 394 1172 q 329 1190 350 1190 q 265 1163 289 1190 q 232 1083 240 1136 z "},"F":{"ha":785,"x_min":119,"x_max":739,"o":"m 119 0 l 119 979 l 739 979 l 739 874 l 249 874 l 249 546 l 707 546 l 707 440 l 249 440 l 249 0 l 119 0 z "},"G":{"ha":1018,"x_min":83,"x_max":911,"o":"m 574 -12 q 303 48 413 -12 q 138 221 193 108 q 83 489 83 333 q 142 757 83 644 q 309 931 200 869 q 571 992 418 992 q 757 961 678 992 q 899 872 836 931 l 850 769 q 764 832 806 808 q 677 866 722 856 q 571 876 632 876 q 310 775 400 876 q 219 488 219 674 q 307 200 219 299 q 579 101 394 101 q 707 114 644 101 q 826 150 769 126 l 800 85 l 800 417 l 554 417 l 554 517 l 911 517 l 911 58 q 757 7 849 26 q 574 -12 665 -12 z "},"Ğ":{"ha":1018,"x_min":83,"x_max":911,"o":"m 574 -12 q 303 48 413 -12 q 138 221 193 108 q 83 489 83 333 q 142 757 83 644 q 309 931 200 869 q 571 992 418 992 q 757 961 678 992 q 899 872 836 931 l 850 769 q 764 832 806 808 q 677 866 722 856 q 571 876 632 876 q 310 775 400 876 q 219 488 219 674 q 307 200 219 299 q 579 101 394 101 q 707 114 644 101 q 826 150 769 126 l 800 85 l 800 417 l 554 417 l 554 517 l 911 517 l 911 58 q 757 7 849 26 q 574 -12 665 -12 m 558 1056 q 393 1119 458 1056 q 319 1290 328 1182 l 396 1300 q 445 1181 403 1224 q 557 1138 488 1138 q 672 1181 628 1138 q 721 1300 715 1224 l 797 1290 q 724 1119 789 1182 q 558 1056 658 1056 z "},"Ǧ":{"ha":1018,"x_min":83,"x_max":911,"o":"m 574 -12 q 303 48 413 -12 q 138 221 193 108 q 83 489 83 333 q 142 757 83 644 q 309 931 200 869 q 571 992 418 992 q 757 961 678 992 q 899 872 836 931 l 850 769 q 764 832 806 808 q 677 866 722 856 q 571 876 632 876 q 310 775 400 876 q 219 488 219 674 q 307 200 219 299 q 579 101 394 101 q 707 114 644 101 q 826 150 769 126 l 800 85 l 800 417 l 554 417 l 554 517 l 911 517 l 911 58 q 757 7 849 26 q 574 -12 665 -12 m 500 1063 l 331 1301 l 422 1301 l 558 1142 l 694 1301 l 786 1301 l 617 1063 l 500 1063 z "},"Ĝ":{"ha":1018,"x_min":83,"x_max":911,"o":"m 574 -12 q 303 48 413 -12 q 138 221 193 108 q 83 489 83 333 q 142 757 83 644 q 309 931 200 869 q 571 992 418 992 q 757 961 678 992 q 899 872 836 931 l 850 769 q 764 832 806 808 q 677 866 722 856 q 571 876 632 876 q 310 775 400 876 q 219 488 219 674 q 307 200 219 299 q 579 101 394 101 q 707 114 644 101 q 826 150 769 126 l 800 85 l 800 417 l 554 417 l 554 517 l 911 517 l 911 58 q 757 7 849 26 q 574 -12 665 -12 m 331 1063 l 500 1301 l 617 1301 l 786 1063 l 694 1063 l 558 1222 l 422 1063 l 331 1063 z "},"Ģ":{"ha":1018,"x_min":83,"x_max":911,"o":"m 574 -12 q 303 48 413 -12 q 138 221 193 108 q 83 489 83 333 q 142 757 83 644 q 309 931 200 869 q 571 992 418 992 q 757 961 678 992 q 899 872 836 931 l 850 769 q 764 832 806 808 q 677 866 722 856 q 571 876 632 876 q 310 775 400 876 q 219 488 219 674 q 307 200 219 299 q 579 101 394 101 q 707 114 644 101 q 826 150 769 126 l 800 85 l 800 417 l 554 417 l 554 517 l 911 517 l 911 58 q 757 7 849 26 q 574 -12 665 -12 m 576 -375 l 522 -337 q 565 -275 554 -304 q 575 -212 575 -246 l 606 -229 l 503 -229 l 503 -108 l 650 -108 l 650 -194 q 633 -293 650 -247 q 576 -375 615 -339 z "},"Ġ":{"ha":1018,"x_min":83,"x_max":911,"o":"m 574 -12 q 303 48 413 -12 q 138 221 193 108 q 83 489 83 333 q 142 757 83 644 q 309 931 200 869 q 571 992 418 992 q 757 961 678 992 q 899 872 836 931 l 850 769 q 764 832 806 808 q 677 866 722 856 q 571 876 632 876 q 310 775 400 876 q 219 488 219 674 q 307 200 219 299 q 579 101 394 101 q 707 114 644 101 q 826 150 769 126 l 800 85 l 800 417 l 554 417 l 554 517 l 911 517 l 911 58 q 757 7 849 26 q 574 -12 665 -12 m 490 1117 l 490 1247 l 626 1247 l 626 1117 l 490 1117 z "},"Ḡ":{"ha":1018,"x_min":83,"x_max":911,"o":"m 574 -12 q 303 48 413 -12 q 138 221 193 108 q 83 489 83 333 q 142 757 83 644 q 309 931 200 869 q 571 992 418 992 q 757 961 678 992 q 899 872 836 931 l 850 769 q 764 832 806 808 q 677 866 722 856 q 571 876 632 876 q 310 775 400 876 q 219 488 219 674 q 307 200 219 299 q 579 101 394 101 q 707 114 644 101 q 826 150 769 126 l 800 85 l 800 417 l 554 417 l 554 517 l 911 517 l 911 58 q 757 7 849 26 q 574 -12 665 -12 m 328 1129 l 328 1211 l 789 1211 l 789 1129 l 328 1129 z "},"H":{"ha":1067,"x_min":119,"x_max":949,"o":"m 119 0 l 119 979 l 249 979 l 249 551 l 818 551 l 818 979 l 949 979 l 949 0 l 818 0 l 818 442 l 249 442 l 249 0 l 119 0 z "},"Ħ":{"ha":1110,"x_min":14,"x_max":1096,"o":"m 142 0 l 142 719 l 14 719 l 14 818 l 142 818 l 142 979 l 271 979 l 271 818 l 839 818 l 839 979 l 968 979 l 968 818 l 1096 818 l 1096 719 l 968 719 l 968 0 l 839 0 l 839 432 l 271 432 l 271 0 l 142 0 m 271 543 l 839 543 l 839 719 l 271 719 l 271 543 z "},"Ḫ":{"ha":1067,"x_min":119,"x_max":949,"o":"m 119 0 l 119 979 l 249 979 l 249 551 l 818 551 l 818 979 l 949 979 l 949 0 l 818 0 l 818 442 l 249 442 l 249 0 l 119 0 m 535 -299 q 381 -242 440 -299 q 317 -89 321 -186 l 393 -82 q 435 -182 399 -146 q 535 -218 472 -218 q 634 -182 597 -218 q 676 -82 671 -146 l 753 -89 q 690 -242 749 -186 q 535 -299 631 -299 z "},"Ĥ":{"ha":1067,"x_min":119,"x_max":949,"o":"m 119 0 l 119 979 l 249 979 l 249 551 l 818 551 l 818 979 l 949 979 l 949 0 l 818 0 l 818 442 l 249 442 l 249 0 l 119 0 m 307 1063 l 476 1301 l 593 1301 l 763 1063 l 671 1063 l 535 1222 l 399 1063 l 307 1063 z "},"Ḥ":{"ha":1067,"x_min":119,"x_max":949,"o":"m 119 0 l 119 979 l 249 979 l 249 551 l 818 551 l 818 979 l 949 979 l 949 0 l 818 0 l 818 442 l 249 442 l 249 0 l 119 0 m 467 -265 l 467 -135 l 603 -135 l 603 -265 l 467 -265 z "},"I":{"ha":367,"x_min":119,"x_max":249,"o":"m 119 0 l 119 979 l 249 979 l 249 0 l 119 0 z "},"Ĳ":{"ha":835,"x_min":119,"x_max":715,"o":"m 119 0 l 119 979 l 249 979 l 249 0 l 119 0 m 481 -260 q 428 -257 457 -260 q 368 -247 399 -254 l 368 -142 q 418 -150 394 -147 q 458 -153 442 -153 q 553 -114 522 -153 q 585 10 585 -75 l 585 979 l 715 979 l 715 8 q 690 -139 715 -79 q 614 -229 665 -199 q 481 -260 563 -260 z "},"Í":{"ha":367,"x_min":119,"x_max":439,"o":"m 119 0 l 119 979 l 249 979 l 249 0 l 119 0 m 136 1063 l 300 1301 l 439 1301 l 231 1063 l 136 1063 z "},"Ĭ":{"ha":367,"x_min":-56,"x_max":424,"o":"m 119 0 l 119 979 l 249 979 l 249 0 l 119 0 m 183 1056 q 18 1119 83 1056 q -56 1290 -47 1182 l 21 1300 q 70 1181 28 1224 q 182 1138 113 1138 q 297 1181 253 1138 q 346 1300 340 1224 l 422 1290 q 349 1119 414 1182 q 183 1056 283 1056 z "},"Î":{"ha":367,"x_min":-44,"x_max":413,"o":"m 119 0 l 119 979 l 249 979 l 249 0 l 119 0 m -44 1063 l 125 1301 l 242 1301 l 411 1063 l 319 1063 l 183 1222 l 47 1063 l -44 1063 z "},"Ȉ":{"ha":367,"x_min":-118,"x_max":311,"o":"m 119 0 l 119 979 l 249 979 l 249 0 l 119 0 m 238 1063 l 71 1301 l 193 1301 l 311 1063 l 238 1063 m 56 1063 l -119 1301 l 3 1301 l 129 1063 l 56 1063 z "},"Ï":{"ha":367,"x_min":-4,"x_max":371,"o":"m 119 0 l 119 979 l 249 979 l 249 0 l 119 0 m 242 1114 l 242 1243 l 371 1243 l 371 1114 l 242 1114 m -4 1114 l -4 1243 l 125 1243 l 125 1114 l -4 1114 z "},"Ḯ":{"ha":367,"x_min":-4,"x_max":386,"o":"m 119 0 l 119 979 l 249 979 l 249 0 l 119 0 m 142 1229 l 257 1422 l 386 1422 l 225 1229 l 142 1229 m -4 1069 l -4 1176 l 125 1176 l 125 1069 l -4 1069 m 242 1069 l 242 1176 l 371 1176 l 371 1069 l 242 1069 z "},"İ":{"ha":367,"x_min":115,"x_max":251,"o":"m 119 0 l 119 979 l 249 979 l 249 0 l 119 0 m 115 1117 l 115 1247 l 251 1247 l 251 1117 l 115 1117 z "},"Ị":{"ha":367,"x_min":115,"x_max":251,"o":"m 119 0 l 119 979 l 249 979 l 249 0 l 119 0 m 115 -265 l 115 -135 l 251 -135 l 251 -265 l 115 -265 z "},"Ì":{"ha":367,"x_min":-72,"x_max":249,"o":"m 119 0 l 119 979 l 249 979 l 249 0 l 119 0 m 136 1063 l -72 1301 l 67 1301 l 231 1063 l 136 1063 z "},"Ỉ":{"ha":367,"x_min":57,"x_max":328,"o":"m 119 0 l 119 979 l 249 979 l 249 0 l 119 0 m 140 1063 l 140 1085 q 153 1129 140 1113 q 183 1158 167 1146 q 213 1182 200 1171 q 226 1208 226 1193 q 211 1232 226 1224 q 164 1240 196 1240 q 122 1235 143 1240 q 78 1221 101 1231 l 57 1282 q 192 1311 110 1311 q 292 1288 256 1311 q 328 1225 328 1264 q 313 1177 328 1194 q 277 1147 297 1160 q 242 1119 257 1133 q 226 1078 226 1104 l 226 1063 l 140 1063 z "},"Ȋ":{"ha":367,"x_min":-56,"x_max":424,"o":"m 119 0 l 119 979 l 249 979 l 249 0 l 119 0 m 21 1056 l -56 1065 q 18 1238 -47 1175 q 183 1300 83 1300 q 349 1238 283 1300 q 422 1065 414 1175 l 346 1056 q 297 1176 340 1133 q 182 1218 253 1218 q 70 1176 113 1218 q 21 1056 28 1133 z "},"Ī":{"ha":367,"x_min":-46,"x_max":414,"o":"m 119 0 l 119 979 l 249 979 l 249 0 l 119 0 m -47 1129 l -47 1211 l 414 1211 l 414 1129 l -47 1129 z "},"Į":{"ha":367,"x_min":47,"x_max":310,"o":"m 119 0 l 119 979 l 249 979 l 249 0 l 119 0 m 199 -268 q 90 -231 131 -268 q 49 -131 49 -193 q 85 -26 49 -75 q 183 51 121 24 l 226 0 q 183 -26 204 -10 q 149 -66 163 -43 q 135 -117 135 -89 q 158 -174 135 -154 q 215 -193 182 -193 q 253 -189 235 -193 q 290 -176 271 -185 l 310 -244 q 261 -262 289 -256 q 199 -268 233 -268 z "},"Ĩ":{"ha":367,"x_min":-111,"x_max":478,"o":"m 119 0 l 119 979 l 249 979 l 249 0 l 119 0 m -42 1083 l -111 1088 q -56 1228 -103 1179 q 60 1278 -10 1278 q 124 1265 92 1278 q 203 1222 157 1251 q 268 1187 244 1197 q 311 1176 292 1176 q 376 1203 351 1176 q 408 1282 400 1231 l 478 1278 q 424 1138 469 1188 q 308 1088 378 1088 q 242 1101 276 1088 q 160 1146 208 1115 q 99 1181 121 1172 q 56 1190 76 1190 q -9 1163 15 1190 q -42 1083 -33 1136 z "},"J":{"ha":468,"x_min":1,"x_max":349,"o":"m 114 -260 q 61 -257 90 -260 q 1 -247 32 -254 l 1 -142 q 51 -150 28 -147 q 92 -153 75 -153 q 187 -114 156 -153 q 218 10 218 -75 l 218 979 l 349 979 l 349 8 q 324 -139 349 -79 q 247 -229 299 -199 q 114 -260 196 -260 z "},"Ĵ":{"ha":468,"x_min":1,"x_max":513,"o":"m 114 -260 q 61 -257 90 -260 q 1 -247 32 -254 l 1 -142 q 51 -150 28 -147 q 92 -153 75 -153 q 187 -114 156 -153 q 218 10 218 -75 l 218 979 l 349 979 l 349 8 q 324 -139 349 -79 q 247 -229 299 -199 q 114 -260 196 -260 m 57 1063 l 226 1301 l 343 1301 l 513 1063 l 421 1063 l 285 1222 l 149 1063 l 57 1063 z "},"K":{"ha":890,"x_min":119,"x_max":911,"o":"m 119 0 l 119 979 l 249 979 l 249 536 l 251 536 l 711 979 l 874 979 l 340 472 l 342 535 l 911 0 l 743 0 l 251 460 l 249 460 l 249 0 l 119 0 z "},"Ķ":{"ha":890,"x_min":119,"x_max":911,"o":"m 119 0 l 119 979 l 249 979 l 249 536 l 251 536 l 711 979 l 874 979 l 340 472 l 342 535 l 911 0 l 743 0 l 251 460 l 249 460 l 249 0 l 119 0 m 454 -375 l 400 -337 q 442 -275 432 -304 q 453 -212 453 -246 l 483 -229 l 381 -229 l 381 -108 l 528 -108 l 528 -194 q 510 -293 528 -247 q 454 -375 493 -339 z "},"L":{"ha":763,"x_min":119,"x_max":736,"o":"m 119 0 l 119 979 l 249 979 l 249 111 l 736 111 l 736 0 l 119 0 z "},"Ǉ":{"ha":1285,"x_min":119,"x_max":1165,"o":"m 119 0 l 119 979 l 249 979 l 249 111 l 736 111 l 736 0 l 119 0 m 932 -260 q 879 -257 908 -260 q 819 -247 850 -254 l 819 -142 q 869 -150 846 -147 q 910 -153 893 -153 q 1005 -114 974 -153 q 1036 10 1036 -75 l 1036 979 l 1167 979 l 1167 8 q 1142 -139 1167 -79 q 1065 -229 1117 -199 q 932 -260 1014 -260 z "},"Ĺ":{"ha":763,"x_min":119,"x_max":736,"o":"m 119 0 l 119 979 l 249 979 l 249 111 l 736 111 l 736 0 l 119 0 m 136 1063 l 300 1301 l 439 1301 l 231 1063 l 136 1063 z "},"Ľ":{"ha":763,"x_min":119,"x_max":736,"o":"m 119 0 l 119 979 l 249 979 l 249 111 l 736 111 l 736 0 l 119 0 m 401 663 l 401 979 l 508 979 l 479 663 l 401 663 z "},"Ļ":{"ha":763,"x_min":119,"x_max":736,"o":"m 119 0 l 119 979 l 249 979 l 249 111 l 736 111 l 736 0 l 119 0 m 429 -375 l 375 -337 q 417 -275 407 -304 q 428 -212 428 -246 l 458 -229 l 356 -229 l 356 -108 l 503 -108 l 503 -194 q 485 -293 503 -247 q 429 -375 468 -339 z "},"Ŀ":{"ha":763,"x_min":119,"x_max":736,"o":"m 119 0 l 119 979 l 249 979 l 249 111 l 736 111 l 736 0 l 119 0 m 493 472 l 493 611 l 647 611 l 647 472 l 493 472 z "},"Ḷ":{"ha":763,"x_min":119,"x_max":736,"o":"m 119 0 l 119 979 l 249 979 l 249 111 l 736 111 l 736 0 l 119 0 m 361 -265 l 361 -135 l 497 -135 l 497 -265 l 361 -265 z "},"ǈ":{"ha":1100,"x_min":119,"x_max":1013,"o":"m 119 0 l 119 979 l 249 979 l 249 111 l 736 111 l 736 0 l 119 0 m 782 -306 q 731 -301 761 -306 q 682 -289 701 -297 l 682 -185 q 721 -195 699 -190 q 761 -200 743 -200 q 847 -165 818 -200 q 875 -49 875 -129 l 875 699 l 1001 699 l 1001 -60 q 947 -243 1001 -181 q 782 -306 893 -306 m 863 851 l 863 988 l 1013 988 l 1013 851 l 863 851 z "},"Ḻ":{"ha":763,"x_min":119,"x_max":736,"o":"m 119 0 l 119 979 l 249 979 l 249 111 l 736 111 l 736 0 l 119 0 m 219 -219 l 219 -137 l 639 -137 l 639 -219 l 219 -219 z "},"Ł":{"ha":763,"x_min":-33,"x_max":736,"o":"m 119 0 l 119 979 l 249 979 l 249 111 l 736 111 l 736 0 l 119 0 m 17 346 l -33 435 l 479 729 l 529 640 l 17 346 z "},"M":{"ha":1196,"x_min":119,"x_max":1076,"o":"m 119 0 l 119 979 l 233 979 l 619 110 l 578 110 l 964 979 l 1076 979 l 1076 0 l 958 0 l 958 807 l 1001 807 l 639 0 l 557 0 l 194 807 l 238 807 l 238 0 l 119 0 z "},"Ṃ":{"ha":1196,"x_min":119,"x_max":1076,"o":"m 119 0 l 119 979 l 233 979 l 619 110 l 578 110 l 964 979 l 1076 979 l 1076 0 l 958 0 l 958 807 l 1001 807 l 639 0 l 557 0 l 194 807 l 238 807 l 238 0 l 119 0 m 529 -265 l 529 -135 l 665 -135 l 665 -265 l 529 -265 z "},"N":{"ha":1039,"x_min":119,"x_max":921,"o":"m 119 0 l 119 979 l 219 979 l 833 168 l 800 168 l 800 979 l 921 979 l 921 0 l 822 0 l 208 811 l 240 811 l 240 0 l 119 0 z "},"Ǌ":{"ha":1507,"x_min":119,"x_max":1388,"o":"m 119 0 l 119 979 l 219 979 l 833 168 l 800 168 l 800 979 l 921 979 l 921 0 l 822 0 l 208 811 l 240 811 l 240 0 l 119 0 m 1153 -260 q 1100 -257 1129 -260 q 1040 -247 1071 -254 l 1040 -142 q 1090 -150 1067 -147 q 1131 -153 1114 -153 q 1226 -114 1194 -153 q 1257 10 1257 -75 l 1257 979 l 1388 979 l 1388 8 q 1363 -139 1388 -79 q 1286 -229 1338 -199 q 1153 -260 1235 -260 z "},"Ń":{"ha":1039,"x_min":119,"x_max":921,"o":"m 119 0 l 119 979 l 219 979 l 833 168 l 800 168 l 800 979 l 921 979 l 921 0 l 822 0 l 208 811 l 240 811 l 240 0 l 119 0 m 475 1063 l 639 1301 l 778 1301 l 569 1063 l 475 1063 z "},"Ň":{"ha":1039,"x_min":119,"x_max":921,"o":"m 119 0 l 119 979 l 219 979 l 833 168 l 800 168 l 800 979 l 921 979 l 921 0 l 822 0 l 208 811 l 240 811 l 240 0 l 119 0 m 464 1063 l 294 1301 l 386 1301 l 522 1142 l 658 1301 l 750 1301 l 581 1063 l 464 1063 z "},"Ņ":{"ha":1039,"x_min":119,"x_max":921,"o":"m 119 0 l 119 979 l 219 979 l 833 168 l 800 168 l 800 979 l 921 979 l 921 0 l 822 0 l 208 811 l 240 811 l 240 0 l 119 0 m 522 -375 l 468 -337 q 510 -275 500 -304 q 521 -212 521 -246 l 551 -229 l 449 -229 l 449 -108 l 596 -108 l 596 -194 q 578 -293 596 -247 q 522 -375 561 -339 z "},"Ṅ":{"ha":1039,"x_min":119,"x_max":921,"o":"m 119 0 l 119 979 l 219 979 l 833 168 l 800 168 l 800 979 l 921 979 l 921 0 l 822 0 l 208 811 l 240 811 l 240 0 l 119 0 m 454 1117 l 454 1247 l 590 1247 l 590 1117 l 454 1117 z "},"Ṇ":{"ha":1039,"x_min":119,"x_max":921,"o":"m 119 0 l 119 979 l 219 979 l 833 168 l 800 168 l 800 979 l 921 979 l 921 0 l 822 0 l 208 811 l 240 811 l 240 0 l 119 0 m 454 -265 l 454 -135 l 590 -135 l 590 -265 l 454 -265 z "},"Ŋ":{"ha":1039,"x_min":119,"x_max":921,"o":"m 613 -268 l 603 -172 l 669 -167 q 767 -124 733 -161 q 800 -18 800 -87 l 800 57 l 822 0 l 208 811 l 240 811 l 240 0 l 119 0 l 119 979 l 219 979 l 833 168 l 800 168 l 800 979 l 921 979 l 921 -4 q 894 -142 921 -86 q 814 -228 868 -199 q 675 -264 760 -258 l 613 -268 z "},"ǋ":{"ha":1378,"x_min":119,"x_max":1290,"o":"m 119 0 l 119 979 l 219 979 l 833 168 l 800 168 l 800 979 l 921 979 l 921 0 l 822 0 l 208 811 l 240 811 l 240 0 l 119 0 m 1058 -306 q 1008 -301 1038 -306 q 958 -289 978 -297 l 958 -185 q 997 -195 975 -190 q 1038 -200 1019 -200 q 1123 -165 1094 -200 q 1151 -49 1151 -129 l 1151 699 l 1278 699 l 1278 -60 q 1224 -243 1278 -181 q 1058 -306 1169 -306 m 1139 851 l 1139 988 l 1289 988 l 1289 851 l 1139 851 z "},"Ṉ":{"ha":1039,"x_min":119,"x_max":921,"o":"m 119 0 l 119 979 l 219 979 l 833 168 l 800 168 l 800 979 l 921 979 l 921 0 l 822 0 l 208 811 l 240 811 l 240 0 l 119 0 m 313 -219 l 313 -137 l 732 -137 l 732 -219 l 313 -219 z "},"Ñ":{"ha":1039,"x_min":119,"x_max":921,"o":"m 119 0 l 119 979 l 219 979 l 833 168 l 800 168 l 800 979 l 921 979 l 921 0 l 822 0 l 208 811 l 240 811 l 240 0 l 119 0 m 297 1083 l 228 1088 q 283 1228 236 1179 q 399 1278 329 1278 q 463 1265 431 1278 q 542 1222 496 1251 q 607 1187 583 1197 q 650 1176 631 1176 q 715 1203 690 1176 q 747 1282 739 1231 l 817 1278 q 763 1138 808 1188 q 647 1088 717 1088 q 581 1101 615 1088 q 499 1146 547 1115 q 438 1181 460 1172 q 394 1190 415 1190 q 330 1163 354 1190 q 297 1083 306 1136 z "},"O":{"ha":1078,"x_min":83,"x_max":993,"o":"m 83 490 q 138 757 83 644 q 294 931 192 869 q 538 992 396 992 q 780 931 678 992 q 938 757 882 869 q 993 492 993 644 q 938 224 993 338 q 780 49 882 111 q 538 -12 678 -12 q 294 49 396 -12 q 138 224 193 111 q 83 490 83 338 m 219 490 q 300 204 219 307 q 538 101 381 101 q 773 203 689 101 q 857 490 857 306 q 774 776 857 675 q 538 878 690 878 q 300 776 381 878 q 219 490 219 675 z "},"Ó":{"ha":1078,"x_min":83,"x_max":993,"o":"m 83 490 q 138 757 83 644 q 294 931 192 869 q 538 992 396 992 q 780 931 678 992 q 938 757 882 869 q 993 492 993 644 q 938 224 993 338 q 780 49 882 111 q 538 -12 678 -12 q 294 49 396 -12 q 138 224 193 111 q 83 490 83 338 m 219 490 q 300 204 219 307 q 538 101 381 101 q 773 203 689 101 q 857 490 857 306 q 774 776 857 675 q 538 878 690 878 q 300 776 381 878 q 219 490 219 675 m 490 1063 l 654 1301 l 793 1301 l 585 1063 l 490 1063 z "},"Ŏ":{"ha":1078,"x_min":83,"x_max":993,"o":"m 83 490 q 138 757 83 644 q 294 931 192 869 q 538 992 396 992 q 780 931 678 992 q 938 757 882 869 q 993 492 993 644 q 938 224 993 338 q 780 49 882 111 q 538 -12 678 -12 q 294 49 396 -12 q 138 224 193 111 q 83 490 83 338 m 219 490 q 300 204 219 307 q 538 101 381 101 q 773 203 689 101 q 857 490 857 306 q 774 776 857 675 q 538 878 690 878 q 300 776 381 878 q 219 490 219 675 m 538 1056 q 372 1119 438 1056 q 299 1290 307 1182 l 375 1300 q 424 1181 382 1224 q 536 1138 467 1138 q 651 1181 607 1138 q 700 1300 694 1224 l 776 1290 q 703 1119 768 1182 q 538 1056 638 1056 z "},"Ô":{"ha":1078,"x_min":83,"x_max":993,"o":"m 83 490 q 138 757 83 644 q 294 931 192 869 q 538 992 396 992 q 780 931 678 992 q 938 757 882 869 q 993 492 993 644 q 938 224 993 338 q 780 49 882 111 q 538 -12 678 -12 q 294 49 396 -12 q 138 224 193 111 q 83 490 83 338 m 219 490 q 300 204 219 307 q 538 101 381 101 q 773 203 689 101 q 857 490 857 306 q 774 776 857 675 q 538 878 690 878 q 300 776 381 878 q 219 490 219 675 m 310 1063 l 479 1301 l 596 1301 l 765 1063 l 674 1063 l 538 1222 l 401 1063 l 310 1063 z "},"Ố":{"ha":1078,"x_min":83,"x_max":993,"o":"m 83 490 q 138 757 83 644 q 294 931 192 869 q 538 992 396 992 q 780 931 678 992 q 938 757 882 869 q 993 492 993 644 q 938 224 993 338 q 780 49 882 111 q 538 -12 678 -12 q 294 49 396 -12 q 138 224 193 111 q 83 490 83 338 m 219 490 q 300 204 219 307 q 538 101 381 101 q 773 203 689 101 q 857 490 857 306 q 774 776 857 675 q 538 878 690 878 q 300 776 381 878 q 219 490 219 675 m 326 1063 l 479 1288 l 596 1288 l 749 1063 l 664 1063 l 538 1211 l 411 1063 l 326 1063 m 674 1208 l 792 1417 l 908 1417 l 751 1208 l 674 1208 z "},"Ộ":{"ha":1078,"x_min":83,"x_max":993,"o":"m 83 490 q 138 757 83 644 q 294 931 192 869 q 538 992 396 992 q 780 931 678 992 q 938 757 882 869 q 993 492 993 644 q 938 224 993 338 q 780 49 882 111 q 538 -12 678 -12 q 294 49 396 -12 q 138 224 193 111 q 83 490 83 338 m 219 490 q 300 204 219 307 q 538 101 381 101 q 773 203 689 101 q 857 490 857 306 q 774 776 857 675 q 538 878 690 878 q 300 776 381 878 q 219 490 219 675 m 469 -265 l 469 -135 l 606 -135 l 606 -265 l 469 -265 m 310 1063 l 479 1301 l 596 1301 l 765 1063 l 674 1063 l 538 1222 l 401 1063 l 310 1063 z "},"Ồ":{"ha":1078,"x_min":83,"x_max":993,"o":"m 83 490 q 138 757 83 644 q 294 931 192 869 q 538 992 396 992 q 780 931 678 992 q 938 757 882 869 q 993 492 993 644 q 938 224 993 338 q 780 49 882 111 q 538 -12 678 -12 q 294 49 396 -12 q 138 224 193 111 q 83 490 83 338 m 219 490 q 300 204 219 307 q 538 101 381 101 q 773 203 689 101 q 857 490 857 306 q 774 776 857 675 q 538 878 690 878 q 300 776 381 878 q 219 490 219 675 m 326 1063 l 479 1288 l 596 1288 l 749 1063 l 664 1063 l 538 1211 l 411 1063 l 326 1063 m 728 1208 l 572 1417 l 689 1417 l 808 1208 l 728 1208 z "},"Ổ":{"ha":1078,"x_min":83,"x_max":993,"o":"m 83 490 q 138 757 83 644 q 294 931 192 869 q 538 992 396 992 q 780 931 678 992 q 938 757 882 869 q 993 492 993 644 q 938 224 993 338 q 780 49 882 111 q 538 -12 678 -12 q 294 49 396 -12 q 138 224 193 111 q 83 490 83 338 m 219 490 q 300 204 219 307 q 538 101 381 101 q 773 203 689 101 q 857 490 857 306 q 774 776 857 675 q 538 878 690 878 q 300 776 381 878 q 219 490 219 675 m 326 1063 l 479 1288 l 596 1288 l 749 1063 l 664 1063 l 538 1211 l 411 1063 l 326 1063 m 682 1208 q 694 1253 682 1236 q 722 1283 706 1271 q 749 1306 738 1294 q 761 1332 761 1317 q 746 1353 761 1347 q 703 1358 731 1358 q 663 1355 683 1358 q 619 1342 642 1351 l 600 1397 q 656 1415 626 1408 q 724 1422 686 1422 q 818 1403 785 1422 q 851 1350 851 1383 q 837 1306 851 1322 q 804 1277 822 1290 q 772 1248 786 1264 q 757 1208 757 1232 l 682 1208 z "},"Ỗ":{"ha":1078,"x_min":83,"x_max":993,"o":"m 83 490 q 138 757 83 644 q 294 931 192 869 q 538 992 396 992 q 780 931 678 992 q 938 757 882 869 q 993 492 993 644 q 938 224 993 338 q 780 49 882 111 q 538 -12 678 -12 q 294 49 396 -12 q 138 224 193 111 q 83 490 83 338 m 219 490 q 300 204 219 307 q 538 101 381 101 q 773 203 689 101 q 857 490 857 306 q 774 776 857 675 q 538 878 690 878 q 300 776 381 878 q 219 490 219 675 m 326 1063 l 479 1246 l 596 1246 l 749 1063 l 667 1063 l 538 1176 l 408 1063 l 326 1063 m 379 1278 l 314 1281 q 356 1388 319 1351 q 447 1424 392 1424 q 499 1414 475 1424 q 551 1385 522 1404 q 596 1360 581 1365 q 625 1354 611 1354 q 673 1371 657 1354 q 696 1426 689 1388 l 761 1422 q 721 1315 757 1351 q 629 1279 685 1279 q 576 1290 601 1279 q 518 1322 551 1300 q 485 1341 503 1332 q 450 1350 468 1350 q 403 1333 419 1350 q 379 1278 386 1315 z "},"Ȍ":{"ha":1078,"x_min":83,"x_max":993,"o":"m 83 490 q 138 757 83 644 q 294 931 192 869 q 538 992 396 992 q 780 931 678 992 q 938 757 882 869 q 993 492 993 644 q 938 224 993 338 q 780 49 882 111 q 538 -12 678 -12 q 294 49 396 -12 q 138 224 193 111 q 83 490 83 338 m 219 490 q 300 204 219 307 q 538 101 381 101 q 773 203 689 101 q 857 490 857 306 q 774 776 857 675 q 538 878 690 878 q 300 776 381 878 q 219 490 219 675 m 592 1063 l 425 1301 l 547 1301 l 665 1063 l 592 1063 m 410 1063 l 235 1301 l 357 1301 l 483 1063 l 410 1063 z "},"Ö":{"ha":1078,"x_min":83,"x_max":993,"o":"m 83 490 q 138 757 83 644 q 294 931 192 869 q 538 992 396 992 q 780 931 678 992 q 938 757 882 869 q 993 492 993 644 q 938 224 993 338 q 780 49 882 111 q 538 -12 678 -12 q 294 49 396 -12 q 138 224 193 111 q 83 490 83 338 m 219 490 q 300 204 219 307 q 538 101 381 101 q 773 203 689 101 q 857 490 857 306 q 774 776 857 675 q 538 878 690 878 q 300 776 381 878 q 219 490 219 675 m 596 1114 l 596 1243 l 725 1243 l 725 1114 l 596 1114 m 350 1114 l 350 1243 l 479 1243 l 479 1114 l 350 1114 z "},"Ȫ":{"ha":1078,"x_min":83,"x_max":993,"o":"m 83 490 q 138 757 83 644 q 294 931 192 869 q 538 992 396 992 q 780 931 678 992 q 938 757 882 869 q 993 492 993 644 q 938 224 993 338 q 780 49 882 111 q 538 -12 678 -12 q 294 49 396 -12 q 138 224 193 111 q 83 490 83 338 m 219 490 q 300 204 219 307 q 538 101 381 101 q 773 203 689 101 q 857 490 857 306 q 774 776 857 675 q 538 878 690 878 q 300 776 381 878 q 219 490 219 675 m 328 1285 l 328 1367 l 747 1367 l 747 1285 l 328 1285 m 350 1104 l 350 1210 l 479 1210 l 479 1104 l 350 1104 m 596 1104 l 596 1210 l 725 1210 l 725 1104 l 596 1104 z "},"Ȱ":{"ha":1078,"x_min":83,"x_max":993,"o":"m 83 490 q 138 757 83 644 q 294 931 192 869 q 538 992 396 992 q 780 931 678 992 q 938 757 882 869 q 993 492 993 644 q 938 224 993 338 q 780 49 882 111 q 538 -12 678 -12 q 294 49 396 -12 q 138 224 193 111 q 83 490 83 338 m 219 490 q 300 204 219 307 q 538 101 381 101 q 773 203 689 101 q 857 490 857 306 q 774 776 857 675 q 538 878 690 878 q 300 776 381 878 q 219 490 219 675 m 328 1285 l 328 1367 l 747 1367 l 747 1285 l 328 1285 m 474 1104 l 474 1210 l 603 1210 l 603 1104 l 474 1104 z "},"Ọ":{"ha":1078,"x_min":83,"x_max":993,"o":"m 83 490 q 138 757 83 644 q 294 931 192 869 q 538 992 396 992 q 780 931 678 992 q 938 757 882 869 q 993 492 993 644 q 938 224 993 338 q 780 49 882 111 q 538 -12 678 -12 q 294 49 396 -12 q 138 224 193 111 q 83 490 83 338 m 219 490 q 300 204 219 307 q 538 101 381 101 q 773 203 689 101 q 857 490 857 306 q 774 776 857 675 q 538 878 690 878 q 300 776 381 878 q 219 490 219 675 m 469 -265 l 469 -135 l 606 -135 l 606 -265 l 469 -265 z "},"Ò":{"ha":1078,"x_min":83,"x_max":993,"o":"m 83 490 q 138 757 83 644 q 294 931 192 869 q 538 992 396 992 q 780 931 678 992 q 938 757 882 869 q 993 492 993 644 q 938 224 993 338 q 780 49 882 111 q 538 -12 678 -12 q 294 49 396 -12 q 138 224 193 111 q 83 490 83 338 m 219 490 q 300 204 219 307 q 538 101 381 101 q 773 203 689 101 q 857 490 857 306 q 774 776 857 675 q 538 878 690 878 q 300 776 381 878 q 219 490 219 675 m 490 1063 l 282 1301 l 421 1301 l 585 1063 l 490 1063 z "},"Ỏ":{"ha":1078,"x_min":83,"x_max":993,"o":"m 83 490 q 138 757 83 644 q 294 931 192 869 q 538 992 396 992 q 780 931 678 992 q 938 757 882 869 q 993 492 993 644 q 938 224 993 338 q 780 49 882 111 q 538 -12 678 -12 q 294 49 396 -12 q 138 224 193 111 q 83 490 83 338 m 219 490 q 300 204 219 307 q 538 101 381 101 q 773 203 689 101 q 857 490 857 306 q 774 776 857 675 q 538 878 690 878 q 300 776 381 878 q 219 490 219 675 m 494 1063 l 494 1085 q 508 1129 494 1113 q 538 1158 521 1146 q 567 1182 554 1171 q 581 1208 581 1193 q 565 1232 581 1224 q 518 1240 550 1240 q 476 1235 497 1240 q 432 1221 456 1231 l 411 1282 q 546 1311 464 1311 q 646 1288 610 1311 q 682 1225 682 1264 q 667 1177 682 1194 q 631 1147 651 1160 q 596 1119 611 1133 q 581 1078 581 1104 l 581 1063 l 494 1063 z "},"Ơ":{"ha":1078,"x_min":83,"x_max":996,"o":"m 83 490 q 138 757 83 644 q 294 931 192 869 q 538 992 396 992 q 780 931 678 992 q 938 757 882 869 q 993 492 993 644 q 938 224 993 338 q 780 49 882 111 q 538 -12 678 -12 q 294 49 396 -12 q 138 224 193 111 q 83 490 83 338 m 219 490 q 300 204 219 307 q 538 101 381 101 q 773 203 689 101 q 857 490 857 306 q 774 776 857 675 q 538 878 690 878 q 300 776 381 878 q 219 490 219 675 m 690 906 l 624 985 q 684 981 658 983 q 735 979 710 979 q 824 994 792 979 q 871 1044 857 1010 q 885 1135 885 1079 l 885 1158 l 996 1158 l 996 1117 q 972 1007 996 1054 q 903 933 947 960 q 797 906 858 906 l 690 906 z "},"Ớ":{"ha":1078,"x_min":83,"x_max":996,"o":"m 83 490 q 138 757 83 644 q 294 931 192 869 q 538 992 396 992 q 780 931 678 992 q 938 757 882 869 q 993 492 993 644 q 938 224 993 338 q 780 49 882 111 q 538 -12 678 -12 q 294 49 396 -12 q 138 224 193 111 q 83 490 83 338 m 219 490 q 300 204 219 307 q 538 101 381 101 q 773 203 689 101 q 857 490 857 306 q 774 776 857 675 q 538 878 690 878 q 300 776 381 878 q 219 490 219 675 m 690 906 l 624 985 q 684 981 658 983 q 735 979 710 979 q 824 994 792 979 q 871 1044 857 1010 q 885 1135 885 1079 l 885 1158 l 996 1158 l 996 1117 q 972 1007 996 1054 q 903 933 947 960 q 797 906 858 906 l 690 906 m 501 1063 l 665 1301 l 804 1301 l 596 1063 l 501 1063 z "},"Ợ":{"ha":1078,"x_min":83,"x_max":996,"o":"m 83 490 q 138 757 83 644 q 294 931 192 869 q 538 992 396 992 q 780 931 678 992 q 938 757 882 869 q 993 492 993 644 q 938 224 993 338 q 780 49 882 111 q 538 -12 678 -12 q 294 49 396 -12 q 138 224 193 111 q 83 490 83 338 m 219 490 q 300 204 219 307 q 538 101 381 101 q 773 203 689 101 q 857 490 857 306 q 774 776 857 675 q 538 878 690 878 q 300 776 381 878 q 219 490 219 675 m 690 906 l 624 985 q 684 981 658 983 q 735 979 710 979 q 824 994 792 979 q 871 1044 857 1010 q 885 1135 885 1079 l 885 1158 l 996 1158 l 996 1117 q 972 1007 996 1054 q 903 933 947 960 q 797 906 858 906 l 690 906 m 482 -265 l 482 -135 l 618 -135 l 618 -265 l 482 -265 z "},"Ờ":{"ha":1078,"x_min":83,"x_max":996,"o":"m 83 490 q 138 757 83 644 q 294 931 192 869 q 538 992 396 992 q 780 931 678 992 q 938 757 882 869 q 993 492 993 644 q 938 224 993 338 q 780 49 882 111 q 538 -12 678 -12 q 294 49 396 -12 q 138 224 193 111 q 83 490 83 338 m 219 490 q 300 204 219 307 q 538 101 381 101 q 773 203 689 101 q 857 490 857 306 q 774 776 857 675 q 538 878 690 878 q 300 776 381 878 q 219 490 219 675 m 690 906 l 624 985 q 684 981 658 983 q 735 979 710 979 q 824 994 792 979 q 871 1044 857 1010 q 885 1135 885 1079 l 885 1158 l 996 1158 l 996 1117 q 972 1007 996 1054 q 903 933 947 960 q 797 906 858 906 l 690 906 m 501 1063 l 293 1301 l 432 1301 l 596 1063 l 501 1063 z "},"Ở":{"ha":1078,"x_min":83,"x_max":996,"o":"m 83 490 q 138 757 83 644 q 294 931 192 869 q 538 992 396 992 q 780 931 678 992 q 938 757 882 869 q 993 492 993 644 q 938 224 993 338 q 780 49 882 111 q 538 -12 678 -12 q 294 49 396 -12 q 138 224 193 111 q 83 490 83 338 m 219 490 q 300 204 219 307 q 538 101 381 101 q 773 203 689 101 q 857 490 857 306 q 774 776 857 675 q 538 878 690 878 q 300 776 381 878 q 219 490 219 675 m 690 906 l 624 985 q 684 981 658 983 q 735 979 710 979 q 824 994 792 979 q 871 1044 857 1010 q 885 1135 885 1079 l 885 1158 l 996 1158 l 996 1117 q 972 1007 996 1054 q 903 933 947 960 q 797 906 858 906 l 690 906 m 506 1063 l 506 1085 q 519 1129 506 1113 q 549 1158 532 1146 q 578 1182 565 1171 q 592 1208 592 1193 q 576 1232 592 1224 q 529 1240 561 1240 q 488 1235 508 1240 q 443 1221 467 1231 l 422 1282 q 557 1311 475 1311 q 657 1288 621 1311 q 693 1225 693 1264 q 678 1177 693 1194 q 642 1147 663 1160 q 607 1119 622 1133 q 592 1078 592 1104 l 592 1063 l 506 1063 z "},"Ỡ":{"ha":1078,"x_min":83,"x_max":996,"o":"m 83 490 q 138 757 83 644 q 294 931 192 869 q 538 992 396 992 q 780 931 678 992 q 938 757 882 869 q 993 492 993 644 q 938 224 993 338 q 780 49 882 111 q 538 -12 678 -12 q 294 49 396 -12 q 138 224 193 111 q 83 490 83 338 m 219 490 q 300 204 219 307 q 538 101 381 101 q 773 203 689 101 q 857 490 857 306 q 774 776 857 675 q 538 878 690 878 q 300 776 381 878 q 219 490 219 675 m 690 906 l 624 985 q 684 981 658 983 q 735 979 710 979 q 824 994 792 979 q 871 1044 857 1010 q 885 1135 885 1079 l 885 1158 l 996 1158 l 996 1117 q 972 1007 996 1054 q 903 933 947 960 q 797 906 858 906 l 690 906 m 338 1083 l 268 1088 q 320 1228 276 1179 q 432 1278 364 1278 q 494 1264 465 1278 q 557 1222 524 1250 q 607 1188 586 1199 q 650 1176 628 1176 q 712 1203 689 1176 q 743 1282 735 1231 l 813 1278 q 761 1138 804 1188 q 650 1088 718 1088 q 586 1103 615 1088 q 524 1144 557 1118 q 473 1180 494 1169 q 432 1190 451 1190 q 369 1163 392 1190 q 338 1083 346 1136 z "},"Ő":{"ha":1078,"x_min":83,"x_max":993,"o":"m 83 490 q 138 757 83 644 q 294 931 192 869 q 538 992 396 992 q 780 931 678 992 q 938 757 882 869 q 993 492 993 644 q 938 224 993 338 q 780 49 882 111 q 538 -12 678 -12 q 294 49 396 -12 q 138 224 193 111 q 83 490 83 338 m 219 490 q 300 204 219 307 q 538 101 381 101 q 773 203 689 101 q 857 490 857 306 q 774 776 857 675 q 538 878 690 878 q 300 776 381 878 q 219 490 219 675 m 410 1063 l 528 1301 l 650 1301 l 483 1063 l 410 1063 m 592 1063 l 718 1301 l 840 1301 l 665 1063 l 592 1063 z "},"Ȏ":{"ha":1078,"x_min":83,"x_max":993,"o":"m 83 490 q 138 757 83 644 q 294 931 192 869 q 538 992 396 992 q 780 931 678 992 q 938 757 882 869 q 993 492 993 644 q 938 224 993 338 q 780 49 882 111 q 538 -12 678 -12 q 294 49 396 -12 q 138 224 193 111 q 83 490 83 338 m 219 490 q 300 204 219 307 q 538 101 381 101 q 773 203 689 101 q 857 490 857 306 q 774 776 857 675 q 538 878 690 878 q 300 776 381 878 q 219 490 219 675 m 375 1056 l 299 1065 q 372 1238 307 1175 q 538 1300 438 1300 q 703 1238 638 1300 q 776 1065 768 1175 l 700 1056 q 651 1176 694 1133 q 536 1218 607 1218 q 424 1176 467 1218 q 375 1056 382 1133 z "},"Ō":{"ha":1078,"x_min":83,"x_max":993,"o":"m 83 490 q 138 757 83 644 q 294 931 192 869 q 538 992 396 992 q 780 931 678 992 q 938 757 882 869 q 993 492 993 644 q 938 224 993 338 q 780 49 882 111 q 538 -12 678 -12 q 294 49 396 -12 q 138 224 193 111 q 83 490 83 338 m 219 490 q 300 204 219 307 q 538 101 381 101 q 773 203 689 101 q 857 490 857 306 q 774 776 857 675 q 538 878 690 878 q 300 776 381 878 q 219 490 219 675 m 307 1129 l 307 1211 l 768 1211 l 768 1129 l 307 1129 z "},"Ṓ":{"ha":1078,"x_min":83,"x_max":993,"o":"m 83 490 q 138 757 83 644 q 294 931 192 869 q 538 992 396 992 q 780 931 678 992 q 938 757 882 869 q 993 492 993 644 q 938 224 993 338 q 780 49 882 111 q 538 -12 678 -12 q 294 49 396 -12 q 138 224 193 111 q 83 490 83 338 m 219 490 q 300 204 219 307 q 538 101 381 101 q 773 203 689 101 q 857 490 857 306 q 774 776 857 675 q 538 878 690 878 q 300 776 381 878 q 219 490 219 675 m 328 1094 l 328 1178 l 747 1178 l 747 1094 l 328 1094 m 496 1229 l 611 1422 l 740 1422 l 579 1229 l 496 1229 z "},"Ṑ":{"ha":1078,"x_min":83,"x_max":993,"o":"m 83 490 q 138 757 83 644 q 294 931 192 869 q 538 992 396 992 q 780 931 678 992 q 938 757 882 869 q 993 492 993 644 q 938 224 993 338 q 780 49 882 111 q 538 -12 678 -12 q 294 49 396 -12 q 138 224 193 111 q 83 490 83 338 m 219 490 q 300 204 219 307 q 538 101 381 101 q 773 203 689 101 q 857 490 857 306 q 774 776 857 675 q 538 878 690 878 q 300 776 381 878 q 219 490 219 675 m 496 1229 l 335 1422 l 464 1422 l 579 1229 l 496 1229 m 328 1094 l 328 1178 l 747 1178 l 747 1094 l 328 1094 z "},"Ǫ":{"ha":1078,"x_min":83,"x_max":993,"o":"m 83 490 q 138 757 83 644 q 294 931 192 869 q 538 992 396 992 q 780 931 678 992 q 938 757 882 869 q 993 492 993 644 q 938 224 993 338 q 780 49 882 111 q 538 -12 678 -12 q 294 49 396 -12 q 138 224 193 111 q 83 490 83 338 m 219 490 q 300 204 219 307 q 538 101 381 101 q 773 203 689 101 q 857 490 857 306 q 774 776 857 675 q 538 878 690 878 q 300 776 381 878 q 219 490 219 675 m 597 -268 q 488 -231 529 -268 q 447 -131 447 -193 q 483 -26 447 -75 q 582 51 519 24 l 625 0 q 582 -26 603 -10 q 547 -66 561 -43 q 533 -117 533 -89 q 557 -174 533 -154 q 614 -193 581 -193 q 651 -189 633 -193 q 689 -176 669 -185 l 708 -244 q 660 -262 688 -256 q 597 -268 632 -268 z "},"Ø":{"ha":1078,"x_min":83,"x_max":993,"o":"m 83 490 q 138 757 83 644 q 294 931 192 869 q 538 992 396 992 q 780 931 678 992 q 938 757 882 869 q 993 492 993 644 q 938 224 993 338 q 780 49 882 111 q 538 -12 678 -12 q 294 49 396 -12 q 138 224 193 111 q 83 490 83 338 m 219 490 q 300 204 219 307 q 538 101 381 101 q 773 203 689 101 q 857 490 857 306 q 774 776 857 675 q 538 878 690 878 q 300 776 381 878 q 219 490 219 675 m 353 65 l 275 -69 l 189 -18 l 267 115 l 307 172 l 708 858 l 732 915 l 810 1049 l 897 997 l 819 864 l 778 807 l 378 121 l 353 65 z "},"Ǿ":{"ha":1078,"x_min":83,"x_max":993,"o":"m 83 490 q 138 757 83 644 q 294 931 192 869 q 538 992 396 992 q 780 931 678 992 q 938 757 882 869 q 993 492 993 644 q 938 224 993 338 q 780 49 882 111 q 538 -12 678 -12 q 294 49 396 -12 q 138 224 193 111 q 83 490 83 338 m 219 490 q 300 204 219 307 q 538 101 381 101 q 773 203 689 101 q 857 490 857 306 q 774 776 857 675 q 538 878 690 878 q 300 776 381 878 q 219 490 219 675 m 353 65 l 275 -69 l 189 -18 l 267 115 l 307 172 l 708 858 l 732 915 l 810 1049 l 897 997 l 819 864 l 778 807 l 378 121 l 353 65 m 490 1063 l 654 1301 l 793 1301 l 585 1063 l 490 1063 z "},"Õ":{"ha":1078,"x_min":83,"x_max":993,"o":"m 83 490 q 138 757 83 644 q 294 931 192 869 q 538 992 396 992 q 780 931 678 992 q 938 757 882 869 q 993 492 993 644 q 938 224 993 338 q 780 49 882 111 q 538 -12 678 -12 q 294 49 396 -12 q 138 224 193 111 q 83 490 83 338 m 219 490 q 300 204 219 307 q 538 101 381 101 q 773 203 689 101 q 857 490 857 306 q 774 776 857 675 q 538 878 690 878 q 300 776 381 878 q 219 490 219 675 m 313 1083 l 243 1088 q 298 1228 251 1179 q 414 1278 344 1278 q 478 1265 446 1278 q 557 1222 511 1251 q 622 1187 599 1197 q 665 1176 646 1176 q 730 1203 706 1176 q 763 1282 754 1231 l 832 1278 q 778 1138 824 1188 q 663 1088 732 1088 q 597 1101 631 1088 q 514 1146 563 1115 q 453 1181 475 1172 q 410 1190 431 1190 q 345 1163 369 1190 q 313 1083 321 1136 z "},"Ṍ":{"ha":1078,"x_min":83,"x_max":993,"o":"m 83 490 q 138 757 83 644 q 294 931 192 869 q 538 992 396 992 q 780 931 678 992 q 938 757 882 869 q 993 492 993 644 q 938 224 993 338 q 780 49 882 111 q 538 -12 678 -12 q 294 49 396 -12 q 138 224 193 111 q 83 490 83 338 m 219 490 q 300 204 219 307 q 538 101 381 101 q 773 203 689 101 q 857 490 857 306 q 774 776 857 675 q 538 878 690 878 q 300 776 381 878 q 219 490 219 675 m 496 1229 l 611 1422 l 740 1422 l 579 1229 l 496 1229 m 629 1065 q 578 1076 603 1065 q 522 1106 553 1086 q 480 1131 496 1125 q 450 1136 464 1136 q 403 1119 419 1136 q 379 1064 386 1101 l 314 1068 q 356 1175 319 1139 q 447 1211 392 1211 q 493 1203 471 1211 q 547 1174 515 1194 q 594 1147 576 1154 q 625 1140 611 1140 q 673 1158 657 1140 q 696 1213 689 1175 l 761 1208 q 720 1101 756 1138 q 629 1065 685 1065 z "},"Ṏ":{"ha":1078,"x_min":83,"x_max":993,"o":"m 83 490 q 138 757 83 644 q 294 931 192 869 q 538 992 396 992 q 780 931 678 992 q 938 757 882 869 q 993 492 993 644 q 938 224 993 338 q 780 49 882 111 q 538 -12 678 -12 q 294 49 396 -12 q 138 224 193 111 q 83 490 83 338 m 219 490 q 300 204 219 307 q 538 101 381 101 q 773 203 689 101 q 857 490 857 306 q 774 776 857 675 q 538 878 690 878 q 300 776 381 878 q 219 490 219 675 m 629 1065 q 578 1076 603 1065 q 522 1106 553 1086 q 480 1131 496 1125 q 450 1136 464 1136 q 403 1119 419 1136 q 379 1064 386 1101 l 314 1068 q 356 1175 319 1139 q 447 1211 392 1211 q 493 1203 471 1211 q 547 1174 515 1194 q 594 1147 576 1154 q 625 1140 611 1140 q 673 1158 657 1140 q 696 1213 689 1175 l 761 1208 q 720 1101 756 1138 q 629 1065 685 1065 m 350 1267 l 350 1372 l 479 1372 l 479 1267 l 350 1267 m 596 1267 l 596 1372 l 725 1372 l 725 1267 l 596 1267 z "},"Ȭ":{"ha":1078,"x_min":83,"x_max":993,"o":"m 83 490 q 138 757 83 644 q 294 931 192 869 q 538 992 396 992 q 780 931 678 992 q 938 757 882 869 q 993 492 993 644 q 938 224 993 338 q 780 49 882 111 q 538 -12 678 -12 q 294 49 396 -12 q 138 224 193 111 q 83 490 83 338 m 219 490 q 300 204 219 307 q 538 101 381 101 q 773 203 689 101 q 857 490 857 306 q 774 776 857 675 q 538 878 690 878 q 300 776 381 878 q 219 490 219 675 m 328 1285 l 328 1367 l 747 1367 l 747 1285 l 328 1285 m 629 1065 q 578 1076 603 1065 q 522 1106 553 1086 q 480 1131 496 1125 q 450 1136 464 1136 q 403 1119 419 1136 q 379 1064 386 1101 l 314 1068 q 356 1175 319 1139 q 447 1211 392 1211 q 493 1203 471 1211 q 547 1174 515 1194 q 594 1147 576 1154 q 625 1140 611 1140 q 673 1158 657 1140 q 696 1213 689 1175 l 761 1208 q 720 1101 756 1138 q 629 1065 685 1065 z "},"Œ":{"ha":1467,"x_min":83,"x_max":1400,"o":"m 772 0 l 772 979 l 1400 979 l 1400 874 l 897 874 l 897 550 l 1369 550 l 1369 444 l 897 444 l 897 106 l 1400 106 l 1400 0 l 772 0 m 529 -12 q 290 49 390 -12 q 137 224 190 111 q 83 490 83 338 q 136 757 83 644 q 289 931 189 869 q 529 992 389 992 q 675 974 607 992 q 793 913 743 957 l 793 768 q 689 853 753 828 q 538 878 625 878 q 300 776 381 878 q 219 490 219 675 q 300 204 219 307 q 538 101 381 101 q 692 131 626 101 q 799 222 758 160 l 799 81 q 723 29 765 50 q 631 -2 681 8 q 529 -12 582 -12 z "},"P":{"ha":910,"x_min":119,"x_max":849,"o":"m 119 0 l 119 979 l 525 979 q 765 904 682 979 q 849 697 849 829 q 765 490 849 565 q 525 414 682 414 l 249 414 l 249 0 l 119 0 m 249 519 l 513 519 q 668 566 615 519 q 721 697 721 613 q 668 828 721 782 q 513 874 615 874 l 249 874 l 249 519 z "},"Þ":{"ha":910,"x_min":119,"x_max":849,"o":"m 119 0 l 119 979 l 249 979 l 249 796 l 522 796 q 763 721 678 796 q 849 513 849 646 q 763 306 849 382 q 522 229 678 229 l 249 229 l 249 0 l 119 0 m 249 335 l 514 335 q 668 381 615 335 q 721 513 721 428 q 668 644 721 597 q 514 690 615 690 l 249 690 l 249 335 z "},"Q":{"ha":1078,"x_min":83,"x_max":993,"o":"m 801 -267 q 717 -199 761 -240 q 635 -106 674 -157 q 569 -1 597 -54 l 679 40 q 773 -91 715 -32 q 890 -192 831 -150 l 801 -267 m 83 490 q 138 757 83 644 q 294 931 192 869 q 538 992 396 992 q 780 931 678 992 q 938 757 882 869 q 993 492 993 644 q 938 224 993 338 q 780 49 882 111 q 538 -12 678 -12 q 294 49 396 -12 q 138 224 193 111 q 83 490 83 338 m 219 490 q 300 204 219 307 q 538 101 381 101 q 773 203 689 101 q 857 490 857 306 q 774 776 857 675 q 538 878 690 878 q 300 776 381 878 q 219 490 219 675 z "},"R":{"ha":965,"x_min":119,"x_max":913,"o":"m 119 0 l 119 979 l 525 979 q 767 906 682 979 q 853 700 853 832 q 814 551 853 613 q 705 458 775 490 q 542 426 635 426 l 565 446 l 599 446 q 700 417 656 446 q 774 325 744 389 l 913 0 l 769 0 l 635 322 q 566 400 611 382 q 453 418 521 418 l 249 418 l 249 0 l 119 0 m 249 518 l 506 518 q 669 564 613 518 q 725 697 725 610 q 669 828 725 783 q 506 874 613 874 l 249 874 l 249 518 z "},"Ŕ":{"ha":965,"x_min":119,"x_max":913,"o":"m 119 0 l 119 979 l 525 979 q 767 906 682 979 q 853 700 853 832 q 814 551 853 613 q 705 458 775 490 q 542 426 635 426 l 565 446 l 599 446 q 700 417 656 446 q 774 325 744 389 l 913 0 l 769 0 l 635 322 q 566 400 611 382 q 453 418 521 418 l 249 418 l 249 0 l 119 0 m 249 518 l 506 518 q 669 564 613 518 q 725 697 725 610 q 669 828 725 783 q 506 874 613 874 l 249 874 l 249 518 m 435 1063 l 599 1301 l 738 1301 l 529 1063 l 435 1063 z "},"Ř":{"ha":965,"x_min":119,"x_max":913,"o":"m 119 0 l 119 979 l 525 979 q 767 906 682 979 q 853 700 853 832 q 814 551 853 613 q 705 458 775 490 q 542 426 635 426 l 565 446 l 599 446 q 700 417 656 446 q 774 325 744 389 l 913 0 l 769 0 l 635 322 q 566 400 611 382 q 453 418 521 418 l 249 418 l 249 0 l 119 0 m 249 518 l 506 518 q 669 564 613 518 q 725 697 725 610 q 669 828 725 783 q 506 874 613 874 l 249 874 l 249 518 m 424 1063 l 254 1301 l 346 1301 l 482 1142 l 618 1301 l 710 1301 l 540 1063 l 424 1063 z "},"Ŗ":{"ha":965,"x_min":119,"x_max":913,"o":"m 119 0 l 119 979 l 525 979 q 767 906 682 979 q 853 700 853 832 q 814 551 853 613 q 705 458 775 490 q 542 426 635 426 l 565 446 l 599 446 q 700 417 656 446 q 774 325 744 389 l 913 0 l 769 0 l 635 322 q 566 400 611 382 q 453 418 521 418 l 249 418 l 249 0 l 119 0 m 249 518 l 506 518 q 669 564 613 518 q 725 697 725 610 q 669 828 725 783 q 506 874 613 874 l 249 874 l 249 518 m 483 -375 l 429 -337 q 472 -275 461 -304 q 482 -212 482 -246 l 513 -229 l 410 -229 l 410 -108 l 557 -108 l 557 -194 q 540 -293 557 -247 q 483 -375 522 -339 z "},"Ȑ":{"ha":965,"x_min":119,"x_max":913,"o":"m 119 0 l 119 979 l 525 979 q 767 906 682 979 q 853 700 853 832 q 814 551 853 613 q 705 458 775 490 q 542 426 635 426 l 565 446 l 599 446 q 700 417 656 446 q 774 325 744 389 l 913 0 l 769 0 l 635 322 q 566 400 611 382 q 453 418 521 418 l 249 418 l 249 0 l 119 0 m 249 518 l 506 518 q 669 564 613 518 q 725 697 725 610 q 669 828 725 783 q 506 874 613 874 l 249 874 l 249 518 m 536 1063 l 369 1301 l 492 1301 l 610 1063 l 536 1063 m 354 1063 l 179 1301 l 301 1301 l 428 1063 l 354 1063 z "},"Ṛ":{"ha":965,"x_min":119,"x_max":913,"o":"m 119 0 l 119 979 l 525 979 q 767 906 682 979 q 853 700 853 832 q 814 551 853 613 q 705 458 775 490 q 542 426 635 426 l 565 446 l 599 446 q 700 417 656 446 q 774 325 744 389 l 913 0 l 769 0 l 635 322 q 566 400 611 382 q 453 418 521 418 l 249 418 l 249 0 l 119 0 m 249 518 l 506 518 q 669 564 613 518 q 725 697 725 610 q 669 828 725 783 q 506 874 613 874 l 249 874 l 249 518 m 415 -265 l 415 -135 l 551 -135 l 551 -265 l 415 -265 z "},"Ȓ":{"ha":965,"x_min":119,"x_max":913,"o":"m 119 0 l 119 979 l 525 979 q 767 906 682 979 q 853 700 853 832 q 814 551 853 613 q 705 458 775 490 q 542 426 635 426 l 565 446 l 599 446 q 700 417 656 446 q 774 325 744 389 l 913 0 l 769 0 l 635 322 q 566 400 611 382 q 453 418 521 418 l 249 418 l 249 0 l 119 0 m 249 518 l 506 518 q 669 564 613 518 q 725 697 725 610 q 669 828 725 783 q 506 874 613 874 l 249 874 l 249 518 m 319 1056 l 243 1065 q 317 1238 251 1175 q 482 1300 382 1300 q 647 1238 582 1300 q 721 1065 713 1175 l 644 1056 q 595 1176 639 1133 q 481 1218 551 1218 q 369 1176 411 1218 q 319 1056 326 1133 z "},"Ṟ":{"ha":965,"x_min":119,"x_max":913,"o":"m 119 0 l 119 979 l 525 979 q 767 906 682 979 q 853 700 853 832 q 814 551 853 613 q 705 458 775 490 q 542 426 635 426 l 565 446 l 599 446 q 700 417 656 446 q 774 325 744 389 l 913 0 l 769 0 l 635 322 q 566 400 611 382 q 453 418 521 418 l 249 418 l 249 0 l 119 0 m 249 518 l 506 518 q 669 564 613 518 q 725 697 725 610 q 669 828 725 783 q 506 874 613 874 l 249 874 l 249 518 m 274 -219 l 274 -137 l 693 -137 l 693 -219 l 274 -219 z "},"S":{"ha":872,"x_min":67,"x_max":808,"o":"m 443 -12 q 231 18 325 -12 q 67 104 136 49 l 111 207 q 210 147 160 171 q 317 110 260 122 q 443 99 375 99 q 622 142 564 99 q 679 258 679 186 q 639 354 679 321 q 499 407 599 388 l 350 438 q 149 528 215 465 q 83 700 83 592 q 130 853 83 788 q 259 956 176 919 q 453 992 342 992 q 643 961 556 992 q 790 871 731 931 l 746 772 q 612 855 683 829 q 450 881 540 881 q 276 833 340 881 q 213 706 213 786 q 253 605 213 642 q 386 549 293 568 l 535 519 q 742 432 676 492 q 808 267 808 372 q 764 120 808 183 q 638 22 719 57 q 443 -12 556 -12 z "},"Ś":{"ha":872,"x_min":67,"x_max":808,"o":"m 443 -12 q 231 18 325 -12 q 67 104 136 49 l 111 207 q 210 147 160 171 q 317 110 260 122 q 443 99 375 99 q 622 142 564 99 q 679 258 679 186 q 639 354 679 321 q 499 407 599 388 l 350 438 q 149 528 215 465 q 83 700 83 592 q 130 853 83 788 q 259 956 176 919 q 453 992 342 992 q 643 961 556 992 q 790 871 731 931 l 746 772 q 612 855 683 829 q 450 881 540 881 q 276 833 340 881 q 213 706 213 786 q 253 605 213 642 q 386 549 293 568 l 535 519 q 742 432 676 492 q 808 267 808 372 q 764 120 808 183 q 638 22 719 57 q 443 -12 556 -12 m 403 1063 l 567 1301 l 706 1301 l 497 1063 l 403 1063 z "},"Ṥ":{"ha":872,"x_min":67,"x_max":808,"o":"m 443 -12 q 231 18 325 -12 q 67 104 136 49 l 111 207 q 210 147 160 171 q 317 110 260 122 q 443 99 375 99 q 622 142 564 99 q 679 258 679 186 q 639 354 679 321 q 499 407 599 388 l 350 438 q 149 528 215 465 q 83 700 83 592 q 130 853 83 788 q 259 956 176 919 q 453 992 342 992 q 643 961 556 992 q 790 871 731 931 l 746 772 q 612 855 683 829 q 450 881 540 881 q 276 833 340 881 q 213 706 213 786 q 253 605 213 642 q 386 549 293 568 l 535 519 q 742 432 676 492 q 808 267 808 372 q 764 120 808 183 q 638 22 719 57 q 443 -12 556 -12 m 321 1303 l 321 1410 l 450 1410 l 450 1303 l 321 1303 m 403 1063 l 567 1301 l 706 1301 l 497 1063 l 403 1063 z "},"Š":{"ha":872,"x_min":67,"x_max":808,"o":"m 443 -12 q 231 18 325 -12 q 67 104 136 49 l 111 207 q 210 147 160 171 q 317 110 260 122 q 443 99 375 99 q 622 142 564 99 q 679 258 679 186 q 639 354 679 321 q 499 407 599 388 l 350 438 q 149 528 215 465 q 83 700 83 592 q 130 853 83 788 q 259 956 176 919 q 453 992 342 992 q 643 961 556 992 q 790 871 731 931 l 746 772 q 612 855 683 829 q 450 881 540 881 q 276 833 340 881 q 213 706 213 786 q 253 605 213 642 q 386 549 293 568 l 535 519 q 742 432 676 492 q 808 267 808 372 q 764 120 808 183 q 638 22 719 57 q 443 -12 556 -12 m 392 1063 l 222 1301 l 314 1301 l 450 1142 l 586 1301 l 678 1301 l 508 1063 l 392 1063 z "},"Ṧ":{"ha":872,"x_min":67,"x_max":808,"o":"m 443 -12 q 231 18 325 -12 q 67 104 136 49 l 111 207 q 210 147 160 171 q 317 110 260 122 q 443 99 375 99 q 622 142 564 99 q 679 258 679 186 q 639 354 679 321 q 499 407 599 388 l 350 438 q 149 528 215 465 q 83 700 83 592 q 130 853 83 788 q 259 956 176 919 q 453 992 342 992 q 643 961 556 992 q 790 871 731 931 l 746 772 q 612 855 683 829 q 450 881 540 881 q 276 833 340 881 q 213 706 213 786 q 253 605 213 642 q 386 549 293 568 l 535 519 q 742 432 676 492 q 808 267 808 372 q 764 120 808 183 q 638 22 719 57 q 443 -12 556 -12 m 392 1063 l 239 1283 l 324 1283 l 450 1142 l 576 1283 l 661 1283 l 508 1063 l 392 1063 m 386 1344 l 386 1451 l 515 1451 l 515 1344 l 386 1344 z "},"Ş":{"ha":872,"x_min":67,"x_max":808,"o":"m 443 -12 q 231 18 325 -12 q 67 104 136 49 l 111 207 q 210 147 160 171 q 317 110 260 122 q 443 99 375 99 q 622 142 564 99 q 679 258 679 186 q 639 354 679 321 q 499 407 599 388 l 350 438 q 149 528 215 465 q 83 700 83 592 q 130 853 83 788 q 259 956 176 919 q 453 992 342 992 q 643 961 556 992 q 790 871 731 931 l 746 772 q 612 855 683 829 q 450 881 540 881 q 276 833 340 881 q 213 706 213 786 q 253 605 213 642 q 386 549 293 568 l 535 519 q 742 432 676 492 q 808 267 808 372 q 764 120 808 183 q 638 22 719 57 q 443 -12 556 -12 m 456 -268 q 384 -260 418 -268 q 326 -240 350 -253 l 346 -175 q 395 -193 372 -187 q 449 -199 418 -199 q 508 -186 486 -199 q 529 -149 529 -174 q 476 -112 529 -112 q 447 -115 461 -112 q 413 -122 433 -117 l 389 -100 l 408 28 l 485 28 l 467 -78 l 431 -67 q 463 -60 446 -62 q 494 -57 481 -57 q 579 -82 546 -57 q 613 -153 613 -107 q 569 -236 613 -204 q 456 -268 525 -268 z "},"Ŝ":{"ha":872,"x_min":67,"x_max":808,"o":"m 443 -12 q 231 18 325 -12 q 67 104 136 49 l 111 207 q 210 147 160 171 q 317 110 260 122 q 443 99 375 99 q 622 142 564 99 q 679 258 679 186 q 639 354 679 321 q 499 407 599 388 l 350 438 q 149 528 215 465 q 83 700 83 592 q 130 853 83 788 q 259 956 176 919 q 453 992 342 992 q 643 961 556 992 q 790 871 731 931 l 746 772 q 612 855 683 829 q 450 881 540 881 q 276 833 340 881 q 213 706 213 786 q 253 605 213 642 q 386 549 293 568 l 535 519 q 742 432 676 492 q 808 267 808 372 q 764 120 808 183 q 638 22 719 57 q 443 -12 556 -12 m 222 1063 l 392 1301 l 508 1301 l 678 1063 l 586 1063 l 450 1222 l 314 1063 l 222 1063 z "},"Ș":{"ha":872,"x_min":67,"x_max":808,"o":"m 443 -12 q 231 18 325 -12 q 67 104 136 49 l 111 207 q 210 147 160 171 q 317 110 260 122 q 443 99 375 99 q 622 142 564 99 q 679 258 679 186 q 639 354 679 321 q 499 407 599 388 l 350 438 q 149 528 215 465 q 83 700 83 592 q 130 853 83 788 q 259 956 176 919 q 453 992 342 992 q 643 961 556 992 q 790 871 731 931 l 746 772 q 612 855 683 829 q 450 881 540 881 q 276 833 340 881 q 213 706 213 786 q 253 605 213 642 q 386 549 293 568 l 535 519 q 742 432 676 492 q 808 267 808 372 q 764 120 808 183 q 638 22 719 57 q 443 -12 556 -12 m 451 -375 l 397 -337 q 440 -275 429 -304 q 450 -212 450 -246 l 481 -229 l 378 -229 l 378 -108 l 525 -108 l 525 -194 q 508 -293 525 -247 q 451 -375 490 -339 z "},"Ṡ":{"ha":872,"x_min":67,"x_max":808,"o":"m 443 -12 q 231 18 325 -12 q 67 104 136 49 l 111 207 q 210 147 160 171 q 317 110 260 122 q 443 99 375 99 q 622 142 564 99 q 679 258 679 186 q 639 354 679 321 q 499 407 599 388 l 350 438 q 149 528 215 465 q 83 700 83 592 q 130 853 83 788 q 259 956 176 919 q 453 992 342 992 q 643 961 556 992 q 790 871 731 931 l 746 772 q 612 855 683 829 q 450 881 540 881 q 276 833 340 881 q 213 706 213 786 q 253 605 213 642 q 386 549 293 568 l 535 519 q 742 432 676 492 q 808 267 808 372 q 764 120 808 183 q 638 22 719 57 q 443 -12 556 -12 m 382 1117 l 382 1247 l 518 1247 l 518 1117 l 382 1117 z "},"Ṣ":{"ha":872,"x_min":67,"x_max":808,"o":"m 443 -12 q 231 18 325 -12 q 67 104 136 49 l 111 207 q 210 147 160 171 q 317 110 260 122 q 443 99 375 99 q 622 142 564 99 q 679 258 679 186 q 639 354 679 321 q 499 407 599 388 l 350 438 q 149 528 215 465 q 83 700 83 592 q 130 853 83 788 q 259 956 176 919 q 453 992 342 992 q 643 961 556 992 q 790 871 731 931 l 746 772 q 612 855 683 829 q 450 881 540 881 q 276 833 340 881 q 213 706 213 786 q 253 605 213 642 q 386 549 293 568 l 535 519 q 742 432 676 492 q 808 267 808 372 q 764 120 808 183 q 638 22 719 57 q 443 -12 556 -12 m 383 -265 l 383 -135 l 519 -135 l 519 -265 l 383 -265 z "},"Ṩ":{"ha":872,"x_min":67,"x_max":808,"o":"m 443 -12 q 231 18 325 -12 q 67 104 136 49 l 111 207 q 210 147 160 171 q 317 110 260 122 q 443 99 375 99 q 622 142 564 99 q 679 258 679 186 q 639 354 679 321 q 499 407 599 388 l 350 438 q 149 528 215 465 q 83 700 83 592 q 130 853 83 788 q 259 956 176 919 q 453 992 342 992 q 643 961 556 992 q 790 871 731 931 l 746 772 q 612 855 683 829 q 450 881 540 881 q 276 833 340 881 q 213 706 213 786 q 253 605 213 642 q 386 549 293 568 l 535 519 q 742 432 676 492 q 808 267 808 372 q 764 120 808 183 q 638 22 719 57 q 443 -12 556 -12 m 383 -265 l 383 -135 l 519 -135 l 519 -265 l 383 -265 m 382 1117 l 382 1247 l 518 1247 l 518 1117 l 382 1117 z "},"ẞ":{"ha":969,"x_min":119,"x_max":893,"o":"m 574 -12 q 434 8 497 -12 q 317 72 371 28 l 363 168 q 457 111 411 128 q 564 94 503 94 q 713 141 661 94 q 765 269 765 188 q 710 396 765 353 q 538 439 654 439 l 372 439 l 372 543 l 504 543 q 656 588 601 543 q 711 714 711 632 q 658 840 711 797 q 496 883 606 883 q 301 822 358 883 q 244 633 244 760 l 244 0 l 119 0 l 119 636 q 214 902 119 813 q 504 992 308 992 q 752 922 667 992 q 838 732 838 853 q 788 578 838 643 q 653 492 739 513 l 653 513 q 827 435 761 501 q 893 261 893 369 q 809 59 893 131 q 574 -12 725 -12 z "},"Ə":{"ha":1047,"x_min":83,"x_max":963,"o":"m 521 -12 q 269 51 365 -12 q 128 227 174 114 q 83 492 83 340 l 83 546 l 856 546 l 856 442 l 182 442 l 215 490 q 244 275 215 363 q 339 142 272 188 q 515 97 406 97 q 749 199 668 97 q 831 492 831 301 q 743 778 831 678 q 481 878 656 878 q 364 867 417 878 q 266 831 311 856 q 172 768 221 807 l 124 868 q 283 960 193 929 q 494 992 372 992 q 748 932 643 992 q 908 760 853 872 q 963 490 963 647 q 909 223 963 336 q 756 49 856 110 q 521 -12 657 -12 z "},"T":{"ha":843,"x_min":15,"x_max":825,"o":"m 354 0 l 354 869 l 15 869 l 15 979 l 825 979 l 825 869 l 485 869 l 485 0 l 354 0 z "},"Ŧ":{"ha":843,"x_min":15,"x_max":825,"o":"m 354 0 l 354 869 l 15 869 l 15 979 l 825 979 l 825 869 l 485 869 l 485 0 l 354 0 m 161 447 l 161 546 l 683 546 l 683 447 l 161 447 z "},"Ť":{"ha":843,"x_min":15,"x_max":825,"o":"m 354 0 l 354 869 l 15 869 l 15 979 l 825 979 l 825 869 l 485 869 l 485 0 l 354 0 m 364 1063 l 194 1301 l 286 1301 l 422 1142 l 558 1301 l 650 1301 l 481 1063 l 364 1063 z "},"Ţ":{"ha":843,"x_min":15,"x_max":825,"o":"m 354 0 l 354 869 l 15 869 l 15 979 l 825 979 l 825 869 l 485 869 l 485 0 l 354 0 m 426 -268 q 355 -260 389 -268 q 297 -240 321 -253 l 317 -175 q 366 -193 343 -187 q 419 -199 389 -199 q 478 -186 457 -199 q 500 -149 500 -174 q 447 -112 500 -112 q 418 -115 432 -112 q 383 -122 404 -117 l 360 -100 l 379 28 l 456 28 l 438 -78 l 401 -67 q 434 -60 417 -62 q 465 -57 451 -57 q 550 -82 517 -57 q 583 -153 583 -107 q 540 -236 583 -204 q 426 -268 496 -268 z "},"Ț":{"ha":843,"x_min":15,"x_max":825,"o":"m 354 0 l 354 869 l 15 869 l 15 979 l 825 979 l 825 869 l 485 869 l 485 0 l 354 0 m 422 -375 l 368 -337 q 410 -275 400 -304 q 421 -212 421 -246 l 451 -229 l 349 -229 l 349 -108 l 496 -108 l 496 -194 q 478 -293 496 -247 q 422 -375 461 -339 z "},"Ṭ":{"ha":843,"x_min":15,"x_max":825,"o":"m 354 0 l 354 869 l 15 869 l 15 979 l 825 979 l 825 869 l 485 869 l 485 0 l 354 0 m 354 -265 l 354 -135 l 490 -135 l 490 -265 l 354 -265 z "},"Ṯ":{"ha":843,"x_min":15,"x_max":825,"o":"m 354 0 l 354 869 l 15 869 l 15 979 l 825 979 l 825 869 l 485 869 l 485 0 l 354 0 m 213 -219 l 213 -137 l 632 -137 l 632 -219 l 213 -219 z "},"U":{"ha":1018,"x_min":113,"x_max":906,"o":"m 510 -12 q 210 90 308 -12 q 113 390 113 192 l 113 979 l 243 979 l 243 394 q 307 175 243 249 q 510 101 371 101 q 710 175 643 101 q 778 394 778 249 l 778 979 l 906 979 l 906 390 q 806 90 906 192 q 510 -12 706 -12 z "},"Ú":{"ha":1018,"x_min":113,"x_max":906,"o":"m 510 -12 q 210 90 308 -12 q 113 390 113 192 l 113 979 l 243 979 l 243 394 q 307 175 243 249 q 510 101 371 101 q 710 175 643 101 q 778 394 778 249 l 778 979 l 906 979 l 906 390 q 806 90 906 192 q 510 -12 706 -12 m 463 1063 l 626 1301 l 765 1301 l 557 1063 l 463 1063 z "},"Ŭ":{"ha":1018,"x_min":113,"x_max":906,"o":"m 510 -12 q 210 90 308 -12 q 113 390 113 192 l 113 979 l 243 979 l 243 394 q 307 175 243 249 q 510 101 371 101 q 710 175 643 101 q 778 394 778 249 l 778 979 l 906 979 l 906 390 q 806 90 906 192 q 510 -12 706 -12 m 510 1056 q 344 1119 410 1056 q 271 1290 279 1182 l 347 1300 q 397 1181 354 1224 q 508 1138 439 1138 q 623 1181 579 1138 q 672 1300 667 1224 l 749 1290 q 675 1119 740 1182 q 510 1056 610 1056 z "},"Û":{"ha":1018,"x_min":113,"x_max":906,"o":"m 510 -12 q 210 90 308 -12 q 113 390 113 192 l 113 979 l 243 979 l 243 394 q 307 175 243 249 q 510 101 371 101 q 710 175 643 101 q 778 394 778 249 l 778 979 l 906 979 l 906 390 q 806 90 906 192 q 510 -12 706 -12 m 282 1063 l 451 1301 l 568 1301 l 738 1063 l 646 1063 l 510 1222 l 374 1063 l 282 1063 z "},"Ȕ":{"ha":1018,"x_min":113,"x_max":906,"o":"m 510 -12 q 210 90 308 -12 q 113 390 113 192 l 113 979 l 243 979 l 243 394 q 307 175 243 249 q 510 101 371 101 q 710 175 643 101 q 778 394 778 249 l 778 979 l 906 979 l 906 390 q 806 90 906 192 q 510 -12 706 -12 m 564 1063 l 397 1301 l 519 1301 l 638 1063 l 564 1063 m 382 1063 l 207 1301 l 329 1301 l 456 1063 l 382 1063 z "},"Ü":{"ha":1018,"x_min":113,"x_max":906,"o":"m 510 -12 q 210 90 308 -12 q 113 390 113 192 l 113 979 l 243 979 l 243 394 q 307 175 243 249 q 510 101 371 101 q 710 175 643 101 q 778 394 778 249 l 778 979 l 906 979 l 906 390 q 806 90 906 192 q 510 -12 706 -12 m 568 1114 l 568 1243 l 697 1243 l 697 1114 l 568 1114 m 322 1114 l 322 1243 l 451 1243 l 451 1114 l 322 1114 z "},"Ụ":{"ha":1018,"x_min":113,"x_max":906,"o":"m 510 -12 q 210 90 308 -12 q 113 390 113 192 l 113 979 l 243 979 l 243 394 q 307 175 243 249 q 510 101 371 101 q 710 175 643 101 q 778 394 778 249 l 778 979 l 906 979 l 906 390 q 806 90 906 192 q 510 -12 706 -12 m 442 -265 l 442 -135 l 578 -135 l 578 -265 l 442 -265 z "},"Ù":{"ha":1018,"x_min":113,"x_max":906,"o":"m 510 -12 q 210 90 308 -12 q 113 390 113 192 l 113 979 l 243 979 l 243 394 q 307 175 243 249 q 510 101 371 101 q 710 175 643 101 q 778 394 778 249 l 778 979 l 906 979 l 906 390 q 806 90 906 192 q 510 -12 706 -12 m 463 1063 l 254 1301 l 393 1301 l 557 1063 l 463 1063 z "},"Ủ":{"ha":1018,"x_min":113,"x_max":906,"o":"m 510 -12 q 210 90 308 -12 q 113 390 113 192 l 113 979 l 243 979 l 243 394 q 307 175 243 249 q 510 101 371 101 q 710 175 643 101 q 778 394 778 249 l 778 979 l 906 979 l 906 390 q 806 90 906 192 q 510 -12 706 -12 m 467 1063 l 467 1085 q 480 1129 467 1113 q 510 1158 493 1146 q 540 1182 526 1171 q 553 1208 553 1193 q 538 1232 553 1224 q 490 1240 522 1240 q 449 1235 469 1240 q 404 1221 428 1231 l 383 1282 q 518 1311 436 1311 q 618 1288 582 1311 q 654 1225 654 1264 q 639 1177 654 1194 q 603 1147 624 1160 q 568 1119 583 1133 q 553 1078 553 1104 l 553 1063 l 467 1063 z "},"Ư":{"ha":1018,"x_min":113,"x_max":1081,"o":"m 510 -12 q 210 90 308 -12 q 113 390 113 192 l 113 979 l 243 979 l 243 394 q 307 175 243 249 q 510 101 371 101 q 710 175 643 101 q 778 394 778 249 l 778 979 l 906 979 l 906 390 q 806 90 906 192 q 510 -12 706 -12 m 886 906 l 819 950 l 819 979 q 909 996 876 981 q 955 1046 942 1011 q 968 1135 968 1081 l 968 1158 l 1081 1158 l 1081 1117 q 1058 1009 1081 1054 q 991 937 1035 964 q 886 906 947 910 z "},"Ứ":{"ha":1018,"x_min":113,"x_max":1081,"o":"m 510 -12 q 210 90 308 -12 q 113 390 113 192 l 113 979 l 243 979 l 243 394 q 307 175 243 249 q 510 101 371 101 q 710 175 643 101 q 778 394 778 249 l 778 979 l 906 979 l 906 390 q 806 90 906 192 q 510 -12 706 -12 m 886 906 l 819 950 l 819 979 q 909 996 876 981 q 955 1046 942 1011 q 968 1135 968 1081 l 968 1158 l 1081 1158 l 1081 1117 q 1058 1009 1081 1054 q 991 937 1035 964 q 886 906 947 910 m 476 1063 l 640 1301 l 779 1301 l 571 1063 l 476 1063 z "},"Ự":{"ha":1018,"x_min":113,"x_max":1081,"o":"m 510 -12 q 210 90 308 -12 q 113 390 113 192 l 113 979 l 243 979 l 243 394 q 307 175 243 249 q 510 101 371 101 q 710 175 643 101 q 778 394 778 249 l 778 979 l 906 979 l 906 390 q 806 90 906 192 q 510 -12 706 -12 m 886 906 l 819 950 l 819 979 q 909 996 876 981 q 955 1046 942 1011 q 968 1135 968 1081 l 968 1158 l 1081 1158 l 1081 1117 q 1058 1009 1081 1054 q 991 937 1035 964 q 886 906 947 910 m 456 -265 l 456 -135 l 592 -135 l 592 -265 l 456 -265 z "},"Ừ":{"ha":1018,"x_min":113,"x_max":1081,"o":"m 510 -12 q 210 90 308 -12 q 113 390 113 192 l 113 979 l 243 979 l 243 394 q 307 175 243 249 q 510 101 371 101 q 710 175 643 101 q 778 394 778 249 l 778 979 l 906 979 l 906 390 q 806 90 906 192 q 510 -12 706 -12 m 886 906 l 819 950 l 819 979 q 909 996 876 981 q 955 1046 942 1011 q 968 1135 968 1081 l 968 1158 l 1081 1158 l 1081 1117 q 1058 1009 1081 1054 q 991 937 1035 964 q 886 906 947 910 m 476 1063 l 268 1301 l 407 1301 l 571 1063 l 476 1063 z "},"Ử":{"ha":1018,"x_min":113,"x_max":1081,"o":"m 510 -12 q 210 90 308 -12 q 113 390 113 192 l 113 979 l 243 979 l 243 394 q 307 175 243 249 q 510 101 371 101 q 710 175 643 101 q 778 394 778 249 l 778 979 l 906 979 l 906 390 q 806 90 906 192 q 510 -12 706 -12 m 886 906 l 819 950 l 819 979 q 909 996 876 981 q 955 1046 942 1011 q 968 1135 968 1081 l 968 1158 l 1081 1158 l 1081 1117 q 1058 1009 1081 1054 q 991 937 1035 964 q 886 906 947 910 m 481 1063 l 481 1085 q 494 1129 481 1113 q 524 1158 507 1146 q 553 1182 540 1171 q 567 1208 567 1193 q 551 1232 567 1224 q 504 1240 536 1240 q 463 1235 483 1240 q 418 1221 442 1231 l 397 1282 q 532 1311 450 1311 q 632 1288 596 1311 q 668 1225 668 1264 q 653 1177 668 1194 q 617 1147 638 1160 q 582 1119 597 1133 q 567 1078 567 1104 l 567 1063 l 481 1063 z "},"Ữ":{"ha":1018,"x_min":113,"x_max":1081,"o":"m 510 -12 q 210 90 308 -12 q 113 390 113 192 l 113 979 l 243 979 l 243 394 q 307 175 243 249 q 510 101 371 101 q 710 175 643 101 q 778 394 778 249 l 778 979 l 906 979 l 906 390 q 806 90 906 192 q 510 -12 706 -12 m 886 906 l 819 950 l 819 979 q 909 996 876 981 q 955 1046 942 1011 q 968 1135 968 1081 l 968 1158 l 1081 1158 l 1081 1117 q 1058 1009 1081 1054 q 991 937 1035 964 q 886 906 947 910 m 313 1083 l 243 1088 q 295 1228 251 1179 q 407 1278 339 1278 q 469 1264 440 1278 q 532 1222 499 1250 q 582 1188 561 1199 q 625 1176 603 1176 q 687 1203 664 1176 q 718 1282 710 1231 l 788 1278 q 736 1138 779 1188 q 625 1088 693 1088 q 561 1103 590 1088 q 499 1144 532 1118 q 448 1180 469 1169 q 407 1190 426 1190 q 344 1163 367 1190 q 313 1083 321 1136 z "},"Ű":{"ha":1018,"x_min":113,"x_max":906,"o":"m 510 -12 q 210 90 308 -12 q 113 390 113 192 l 113 979 l 243 979 l 243 394 q 307 175 243 249 q 510 101 371 101 q 710 175 643 101 q 778 394 778 249 l 778 979 l 906 979 l 906 390 q 806 90 906 192 q 510 -12 706 -12 m 382 1063 l 500 1301 l 622 1301 l 456 1063 l 382 1063 m 564 1063 l 690 1301 l 813 1301 l 638 1063 l 564 1063 z "},"Ȗ":{"ha":1018,"x_min":113,"x_max":906,"o":"m 510 -12 q 210 90 308 -12 q 113 390 113 192 l 113 979 l 243 979 l 243 394 q 307 175 243 249 q 510 101 371 101 q 710 175 643 101 q 778 394 778 249 l 778 979 l 906 979 l 906 390 q 806 90 906 192 q 510 -12 706 -12 m 347 1056 l 271 1065 q 344 1238 279 1175 q 510 1300 410 1300 q 675 1238 610 1300 q 749 1065 740 1175 l 672 1056 q 623 1176 667 1133 q 508 1218 579 1218 q 397 1176 439 1218 q 347 1056 354 1133 z "},"Ū":{"ha":1018,"x_min":113,"x_max":906,"o":"m 510 -12 q 210 90 308 -12 q 113 390 113 192 l 113 979 l 243 979 l 243 394 q 307 175 243 249 q 510 101 371 101 q 710 175 643 101 q 778 394 778 249 l 778 979 l 906 979 l 906 390 q 806 90 906 192 q 510 -12 706 -12 m 279 1129 l 279 1211 l 740 1211 l 740 1129 l 279 1129 z "},"Ṻ":{"ha":1018,"x_min":113,"x_max":906,"o":"m 510 -12 q 210 90 308 -12 q 113 390 113 192 l 113 979 l 243 979 l 243 394 q 307 175 243 249 q 510 101 371 101 q 710 175 643 101 q 778 394 778 249 l 778 979 l 906 979 l 906 390 q 806 90 906 192 q 510 -12 706 -12 m 300 1104 l 300 1188 l 719 1188 l 719 1104 l 300 1104 m 322 1263 l 322 1367 l 451 1367 l 451 1263 l 322 1263 m 568 1263 l 568 1367 l 697 1367 l 697 1263 l 568 1263 z "},"Ų":{"ha":1018,"x_min":113,"x_max":906,"o":"m 510 -12 q 210 90 308 -12 q 113 390 113 192 l 113 979 l 243 979 l 243 394 q 307 175 243 249 q 510 101 371 101 q 710 175 643 101 q 778 394 778 249 l 778 979 l 906 979 l 906 390 q 806 90 906 192 q 510 -12 706 -12 m 594 -268 q 485 -231 526 -268 q 444 -131 444 -193 q 481 -26 444 -75 q 579 51 517 24 l 622 0 q 579 -26 600 -10 q 544 -66 558 -43 q 531 -117 531 -89 q 554 -174 531 -154 q 611 -193 578 -193 q 649 -189 631 -193 q 686 -176 667 -185 l 706 -244 q 657 -262 685 -256 q 594 -268 629 -268 z "},"Ů":{"ha":1018,"x_min":113,"x_max":906,"o":"m 510 -12 q 210 90 308 -12 q 113 390 113 192 l 113 979 l 243 979 l 243 394 q 307 175 243 249 q 510 101 371 101 q 710 175 643 101 q 778 394 778 249 l 778 979 l 906 979 l 906 390 q 806 90 906 192 q 510 -12 706 -12 m 510 1051 q 426 1074 464 1051 q 365 1133 388 1096 q 343 1215 343 1171 q 365 1298 343 1261 q 425 1356 388 1335 q 510 1378 463 1378 q 594 1356 557 1378 q 654 1298 632 1335 q 676 1215 676 1261 q 654 1133 676 1169 q 595 1074 632 1096 q 510 1051 558 1051 m 510 1117 q 580 1145 553 1117 q 607 1215 607 1174 q 581 1285 607 1257 q 510 1313 554 1313 q 440 1284 468 1313 q 413 1215 413 1256 q 440 1145 413 1174 q 510 1117 467 1117 z "},"Ũ":{"ha":1018,"x_min":113,"x_max":906,"o":"m 510 -12 q 210 90 308 -12 q 113 390 113 192 l 113 979 l 243 979 l 243 394 q 307 175 243 249 q 510 101 371 101 q 710 175 643 101 q 778 394 778 249 l 778 979 l 906 979 l 906 390 q 806 90 906 192 q 510 -12 706 -12 m 285 1083 l 215 1088 q 270 1228 224 1179 q 386 1278 317 1278 q 451 1265 418 1278 q 529 1222 483 1251 q 594 1187 571 1197 q 638 1176 618 1176 q 702 1203 678 1176 q 735 1282 726 1231 l 804 1278 q 750 1138 796 1188 q 635 1088 704 1088 q 569 1101 603 1088 q 486 1146 535 1115 q 425 1181 447 1172 q 382 1190 403 1190 q 317 1163 342 1190 q 285 1083 293 1136 z "},"Ṹ":{"ha":1018,"x_min":113,"x_max":906,"o":"m 510 -12 q 210 90 308 -12 q 113 390 113 192 l 113 979 l 243 979 l 243 394 q 307 175 243 249 q 510 101 371 101 q 710 175 643 101 q 778 394 778 249 l 778 979 l 906 979 l 906 390 q 806 90 906 192 q 510 -12 706 -12 m 468 1229 l 583 1422 l 713 1422 l 551 1229 l 468 1229 m 601 1065 q 550 1076 575 1065 q 494 1106 525 1086 q 452 1131 468 1125 q 422 1136 436 1136 q 375 1119 392 1136 q 351 1064 358 1101 l 286 1068 q 328 1175 292 1139 q 419 1211 364 1211 q 465 1203 443 1211 q 519 1174 488 1194 q 566 1147 549 1154 q 597 1140 583 1140 q 645 1158 629 1140 q 668 1213 661 1175 l 733 1208 q 692 1101 728 1138 q 601 1065 657 1065 z "},"V":{"ha":976,"x_min":0,"x_max":976,"o":"m 429 0 l 0 979 l 140 979 l 514 107 l 467 107 l 842 979 l 976 979 l 544 0 l 429 0 z "},"W":{"ha":1547,"x_min":44,"x_max":1503,"o":"m 388 0 l 44 979 l 181 979 l 471 115 l 421 115 l 729 979 l 831 979 l 1119 115 l 1075 115 l 1375 979 l 1503 979 l 1157 0 l 1044 0 l 763 826 l 792 826 l 499 0 l 388 0 z "},"Ẃ":{"ha":1547,"x_min":44,"x_max":1503,"o":"m 388 0 l 44 979 l 181 979 l 471 115 l 421 115 l 729 979 l 831 979 l 1119 115 l 1075 115 l 1375 979 l 1503 979 l 1157 0 l 1044 0 l 763 826 l 792 826 l 499 0 l 388 0 m 726 1063 l 890 1301 l 1029 1301 l 821 1063 l 726 1063 z "},"Ŵ":{"ha":1547,"x_min":44,"x_max":1503,"o":"m 388 0 l 44 979 l 181 979 l 471 115 l 421 115 l 729 979 l 831 979 l 1119 115 l 1075 115 l 1375 979 l 1503 979 l 1157 0 l 1044 0 l 763 826 l 792 826 l 499 0 l 388 0 m 546 1063 l 715 1301 l 832 1301 l 1001 1063 l 910 1063 l 774 1222 l 638 1063 l 546 1063 z "},"Ẅ":{"ha":1547,"x_min":44,"x_max":1503,"o":"m 388 0 l 44 979 l 181 979 l 471 115 l 421 115 l 729 979 l 831 979 l 1119 115 l 1075 115 l 1375 979 l 1503 979 l 1157 0 l 1044 0 l 763 826 l 792 826 l 499 0 l 388 0 m 832 1114 l 832 1243 l 961 1243 l 961 1114 l 832 1114 m 586 1114 l 586 1243 l 715 1243 l 715 1114 l 586 1114 z "},"Ẁ":{"ha":1547,"x_min":44,"x_max":1503,"o":"m 388 0 l 44 979 l 181 979 l 471 115 l 421 115 l 729 979 l 831 979 l 1119 115 l 1075 115 l 1375 979 l 1503 979 l 1157 0 l 1044 0 l 763 826 l 792 826 l 499 0 l 388 0 m 726 1063 l 518 1301 l 657 1301 l 821 1063 l 726 1063 z "},"X":{"ha":913,"x_min":7,"x_max":906,"o":"m 7 0 l 401 525 l 401 475 l 24 979 l 176 979 l 478 568 l 438 568 l 735 979 l 889 979 l 511 475 l 511 525 l 906 0 l 751 0 l 432 436 l 481 436 l 160 0 l 7 0 z "},"Y":{"ha":850,"x_min":-21,"x_max":871,"o":"m 360 0 l 360 458 l 388 374 l -21 979 l 129 979 l 443 501 l 411 501 l 725 979 l 871 979 l 463 374 l 489 458 l 489 0 l 360 0 z "},"Ý":{"ha":850,"x_min":-21,"x_max":871,"o":"m 360 0 l 360 458 l 388 374 l -21 979 l 129 979 l 443 501 l 411 501 l 725 979 l 871 979 l 463 374 l 489 458 l 489 0 l 360 0 m 378 1063 l 542 1301 l 681 1301 l 472 1063 l 378 1063 z "},"Ŷ":{"ha":850,"x_min":-21,"x_max":871,"o":"m 360 0 l 360 458 l 388 374 l -21 979 l 129 979 l 443 501 l 411 501 l 725 979 l 871 979 l 463 374 l 489 458 l 489 0 l 360 0 m 197 1063 l 367 1301 l 483 1301 l 653 1063 l 561 1063 l 425 1222 l 289 1063 l 197 1063 z "},"Ÿ":{"ha":850,"x_min":-21,"x_max":871,"o":"m 360 0 l 360 458 l 388 374 l -21 979 l 129 979 l 443 501 l 411 501 l 725 979 l 871 979 l 463 374 l 489 458 l 489 0 l 360 0 m 483 1114 l 483 1243 l 613 1243 l 613 1114 l 483 1114 m 238 1114 l 238 1243 l 367 1243 l 367 1114 l 238 1114 z "},"Ẏ":{"ha":850,"x_min":-21,"x_max":871,"o":"m 360 0 l 360 458 l 388 374 l -21 979 l 129 979 l 443 501 l 411 501 l 725 979 l 871 979 l 463 374 l 489 458 l 489 0 l 360 0 m 357 1117 l 357 1247 l 493 1247 l 493 1117 l 357 1117 z "},"Ỵ":{"ha":850,"x_min":-21,"x_max":871,"o":"m 360 0 l 360 458 l 388 374 l -21 979 l 129 979 l 443 501 l 411 501 l 725 979 l 871 979 l 463 374 l 489 458 l 489 0 l 360 0 m 358 -265 l 358 -135 l 494 -135 l 494 -265 l 358 -265 z "},"Ỳ":{"ha":850,"x_min":-21,"x_max":871,"o":"m 360 0 l 360 458 l 388 374 l -21 979 l 129 979 l 443 501 l 411 501 l 725 979 l 871 979 l 463 374 l 489 458 l 489 0 l 360 0 m 378 1063 l 169 1301 l 308 1301 l 472 1063 l 378 1063 z "},"Ƴ":{"ha":850,"x_min":-21,"x_max":944,"o":"m 360 0 l 360 506 l 388 421 l -21 979 l 129 979 l 443 549 l 413 549 l 644 876 q 738 964 686 936 q 857 992 790 992 q 905 988 883 992 q 944 976 926 985 l 944 883 q 913 891 931 889 q 876 893 896 893 q 809 878 840 893 q 750 824 778 863 l 463 421 l 489 506 l 489 0 l 360 0 z "},"Ỷ":{"ha":850,"x_min":-21,"x_max":871,"o":"m 360 0 l 360 458 l 388 374 l -21 979 l 129 979 l 443 501 l 411 501 l 725 979 l 871 979 l 463 374 l 489 458 l 489 0 l 360 0 m 382 1063 l 382 1085 q 395 1129 382 1113 q 425 1158 408 1146 q 455 1182 442 1171 q 468 1208 468 1193 q 453 1232 468 1224 q 406 1240 438 1240 q 364 1235 385 1240 q 319 1221 343 1231 l 299 1282 q 433 1311 351 1311 q 533 1288 497 1311 q 569 1225 569 1264 q 554 1177 569 1194 q 519 1147 539 1160 q 483 1119 499 1133 q 468 1078 468 1104 l 468 1063 l 382 1063 z "},"Ȳ":{"ha":850,"x_min":-21,"x_max":871,"o":"m 360 0 l 360 458 l 388 374 l -21 979 l 129 979 l 443 501 l 411 501 l 725 979 l 871 979 l 463 374 l 489 458 l 489 0 l 360 0 m 194 1129 l 194 1211 l 656 1211 l 656 1129 l 194 1129 z "},"Ỹ":{"ha":850,"x_min":-21,"x_max":871,"o":"m 360 0 l 360 458 l 388 374 l -21 979 l 129 979 l 443 501 l 411 501 l 725 979 l 871 979 l 463 374 l 489 458 l 489 0 l 360 0 m 200 1083 l 131 1088 q 185 1228 139 1179 q 301 1278 232 1278 q 366 1265 333 1278 q 444 1222 399 1251 q 510 1187 486 1197 q 553 1176 533 1176 q 617 1203 593 1176 q 650 1282 642 1231 l 719 1278 q 665 1138 711 1188 q 550 1088 619 1088 q 484 1101 518 1088 q 401 1146 450 1115 q 340 1181 363 1172 q 297 1190 318 1190 q 233 1163 257 1190 q 200 1083 208 1136 z "},"Z":{"ha":832,"x_min":61,"x_max":783,"o":"m 61 0 l 61 96 l 643 915 l 643 869 l 61 869 l 61 979 l 767 979 l 767 885 l 183 64 l 183 110 l 783 110 l 783 0 l 61 0 z "},"Ź":{"ha":832,"x_min":61,"x_max":783,"o":"m 61 0 l 61 96 l 643 915 l 643 869 l 61 869 l 61 979 l 767 979 l 767 885 l 183 64 l 183 110 l 783 110 l 783 0 l 61 0 m 375 1063 l 539 1301 l 678 1301 l 469 1063 l 375 1063 z "},"Ž":{"ha":832,"x_min":61,"x_max":783,"o":"m 61 0 l 61 96 l 643 915 l 643 869 l 61 869 l 61 979 l 767 979 l 767 885 l 183 64 l 183 110 l 783 110 l 783 0 l 61 0 m 364 1063 l 194 1301 l 286 1301 l 422 1142 l 558 1301 l 650 1301 l 481 1063 l 364 1063 z "},"Ż":{"ha":832,"x_min":61,"x_max":783,"o":"m 61 0 l 61 96 l 643 915 l 643 869 l 61 869 l 61 979 l 767 979 l 767 885 l 183 64 l 183 110 l 783 110 l 783 0 l 61 0 m 354 1117 l 354 1247 l 490 1247 l 490 1117 l 354 1117 z "},"Ẓ":{"ha":832,"x_min":61,"x_max":783,"o":"m 61 0 l 61 96 l 643 915 l 643 869 l 61 869 l 61 979 l 767 979 l 767 885 l 183 64 l 183 110 l 783 110 l 783 0 l 61 0 m 354 -265 l 354 -135 l 490 -135 l 490 -265 l 354 -265 z "},"a":{"ha":840,"x_min":64,"x_max":746,"o":"m 372 -12 q 211 31 281 -12 q 103 156 142 74 q 64 350 64 238 q 103 544 64 463 q 211 668 142 625 q 372 711 281 711 q 534 665 465 711 q 625 538 603 618 l 608 538 l 624 699 l 746 699 q 738 615 742 657 q 735 533 735 574 l 735 0 l 608 0 l 608 160 l 624 160 q 533 34 601 81 q 372 -12 464 -12 m 401 88 q 553 154 496 88 q 610 350 610 221 q 553 544 610 479 q 401 610 496 610 q 249 544 307 610 q 192 350 192 479 q 249 154 192 221 q 401 88 306 88 z "},"á":{"ha":840,"x_min":64,"x_max":746,"o":"m 372 -12 q 211 31 281 -12 q 103 156 142 74 q 64 350 64 238 q 103 544 64 463 q 211 668 142 625 q 372 711 281 711 q 534 665 465 711 q 625 538 603 618 l 608 538 l 624 699 l 746 699 q 738 615 742 657 q 735 533 735 574 l 735 0 l 608 0 l 608 160 l 624 160 q 533 34 601 81 q 372 -12 464 -12 m 401 88 q 553 154 496 88 q 610 350 610 221 q 553 544 610 479 q 401 610 496 610 q 249 544 307 610 q 192 350 192 479 q 249 154 192 221 q 401 88 306 88 m 368 767 l 511 1047 l 643 1047 l 457 767 l 368 767 z "},"ă":{"ha":840,"x_min":64,"x_max":746,"o":"m 372 -12 q 211 31 281 -12 q 103 156 142 74 q 64 350 64 238 q 103 544 64 463 q 211 668 142 625 q 372 711 281 711 q 534 665 465 711 q 625 538 603 618 l 608 538 l 624 699 l 746 699 q 738 615 742 657 q 735 533 735 574 l 735 0 l 608 0 l 608 160 l 624 160 q 533 34 601 81 q 372 -12 464 -12 m 401 88 q 553 154 496 88 q 610 350 610 221 q 553 544 610 479 q 401 610 496 610 q 249 544 307 610 q 192 350 192 479 q 249 154 192 221 q 401 88 306 88 m 413 763 q 301 795 349 763 q 226 887 253 828 q 194 1028 199 946 l 271 1036 q 313 895 276 944 q 413 846 350 846 q 512 895 475 846 q 554 1036 549 944 l 631 1028 q 600 887 628 946 q 524 795 572 828 q 413 763 476 763 z "},"ắ":{"ha":840,"x_min":64,"x_max":746,"o":"m 372 -12 q 211 31 281 -12 q 103 156 142 74 q 64 350 64 238 q 103 544 64 463 q 211 668 142 625 q 372 711 281 711 q 534 665 465 711 q 625 538 603 618 l 608 538 l 624 699 l 746 699 q 738 615 742 657 q 735 533 735 574 l 735 0 l 608 0 l 608 160 l 624 160 q 533 34 601 81 q 372 -12 464 -12 m 401 88 q 553 154 496 88 q 610 350 610 221 q 553 544 610 479 q 401 610 496 610 q 249 544 307 610 q 192 350 192 479 q 249 154 192 221 q 401 88 306 88 m 413 758 q 258 815 318 758 q 190 968 199 871 l 260 976 q 307 873 268 910 q 413 836 346 836 q 519 873 481 836 q 565 976 557 910 l 635 968 q 567 815 626 871 q 413 758 508 758 m 363 922 l 478 1115 l 607 1115 l 446 922 l 363 922 z "},"ặ":{"ha":840,"x_min":64,"x_max":746,"o":"m 372 -12 q 211 31 281 -12 q 103 156 142 74 q 64 350 64 238 q 103 544 64 463 q 211 668 142 625 q 372 711 281 711 q 534 665 465 711 q 625 538 603 618 l 608 538 l 624 699 l 746 699 q 738 615 742 657 q 735 533 735 574 l 735 0 l 608 0 l 608 160 l 624 160 q 533 34 601 81 q 372 -12 464 -12 m 401 88 q 553 154 496 88 q 610 350 610 221 q 553 544 610 479 q 401 610 496 610 q 249 544 307 610 q 192 350 192 479 q 249 154 192 221 q 401 88 306 88 m 342 -265 l 342 -135 l 478 -135 l 478 -265 l 342 -265 m 413 763 q 301 795 349 763 q 226 887 253 828 q 194 1028 199 946 l 271 1036 q 313 895 276 944 q 413 846 350 846 q 512 895 475 846 q 554 1036 549 944 l 631 1028 q 600 887 628 946 q 524 795 572 828 q 413 763 476 763 z "},"ằ":{"ha":840,"x_min":64,"x_max":746,"o":"m 372 -12 q 211 31 281 -12 q 103 156 142 74 q 64 350 64 238 q 103 544 64 463 q 211 668 142 625 q 372 711 281 711 q 534 665 465 711 q 625 538 603 618 l 608 538 l 624 699 l 746 699 q 738 615 742 657 q 735 533 735 574 l 735 0 l 608 0 l 608 160 l 624 160 q 533 34 601 81 q 372 -12 464 -12 m 401 88 q 553 154 496 88 q 610 350 610 221 q 553 544 610 479 q 401 610 496 610 q 249 544 307 610 q 192 350 192 479 q 249 154 192 221 q 401 88 306 88 m 413 758 q 258 815 318 758 q 190 968 199 871 l 260 976 q 307 873 268 910 q 413 836 346 836 q 519 873 481 836 q 565 976 557 910 l 635 968 q 567 815 626 871 q 413 758 508 758 m 379 922 l 218 1115 l 347 1115 l 463 922 l 379 922 z "},"ẳ":{"ha":840,"x_min":64,"x_max":746,"o":"m 372 -12 q 211 31 281 -12 q 103 156 142 74 q 64 350 64 238 q 103 544 64 463 q 211 668 142 625 q 372 711 281 711 q 534 665 465 711 q 625 538 603 618 l 608 538 l 624 699 l 746 699 q 738 615 742 657 q 735 533 735 574 l 735 0 l 608 0 l 608 160 l 624 160 q 533 34 601 81 q 372 -12 464 -12 m 401 88 q 553 154 496 88 q 610 350 610 221 q 553 544 610 479 q 401 610 496 610 q 249 544 307 610 q 192 350 192 479 q 249 154 192 221 q 401 88 306 88 m 413 758 q 258 815 318 758 q 190 968 199 871 l 260 976 q 307 873 268 910 q 413 836 346 836 q 519 873 481 836 q 565 976 557 910 l 635 968 q 567 815 626 872 q 413 758 508 758 m 375 922 q 387 966 375 950 q 415 992 399 982 q 442 1013 431 1003 q 454 1039 454 1024 q 439 1060 454 1054 q 394 1065 424 1065 q 356 1062 376 1065 q 311 1049 336 1058 l 294 1103 q 349 1122 319 1115 q 418 1128 379 1128 q 512 1108 479 1128 q 544 1057 544 1089 q 531 1014 544 1029 q 498 987 517 999 q 465 960 479 975 q 451 922 451 946 l 375 922 z "},"ẵ":{"ha":840,"x_min":64,"x_max":746,"o":"m 372 -12 q 211 31 281 -12 q 103 156 142 74 q 64 350 64 238 q 103 544 64 463 q 211 668 142 625 q 372 711 281 711 q 534 665 465 711 q 625 538 603 618 l 608 538 l 624 699 l 746 699 q 738 615 742 657 q 735 533 735 574 l 735 0 l 608 0 l 608 160 l 624 160 q 533 34 601 81 q 372 -12 464 -12 m 401 88 q 553 154 496 88 q 610 350 610 221 q 553 544 610 479 q 401 610 496 610 q 249 544 307 610 q 192 350 192 479 q 249 154 192 221 q 401 88 306 88 m 413 758 q 269 800 328 758 q 190 913 210 842 l 260 929 q 314 860 275 885 q 413 836 353 836 q 511 860 472 836 q 565 929 550 885 l 635 913 q 557 800 617 842 q 413 758 497 758 m 254 981 l 189 983 q 231 1091 194 1056 q 322 1126 267 1126 q 374 1117 350 1126 q 426 1089 397 1107 q 471 1063 456 1068 q 500 1057 486 1057 q 548 1074 532 1057 q 571 1129 564 1092 l 636 1125 q 596 1017 632 1053 q 504 982 560 982 q 451 992 476 982 q 393 1025 426 1003 q 360 1044 378 1035 q 325 1053 343 1053 q 278 1035 294 1053 q 254 981 261 1018 z "},"ǎ":{"ha":840,"x_min":64,"x_max":746,"o":"m 372 -12 q 211 31 281 -12 q 103 156 142 74 q 64 350 64 238 q 103 544 64 463 q 211 668 142 625 q 372 711 281 711 q 534 665 465 711 q 625 538 603 618 l 608 538 l 624 699 l 746 699 q 738 615 742 657 q 735 533 735 574 l 735 0 l 608 0 l 608 160 l 624 160 q 533 34 601 81 q 372 -12 464 -12 m 401 88 q 553 154 496 88 q 610 350 610 221 q 553 544 610 479 q 401 610 496 610 q 249 544 307 610 q 192 350 192 479 q 249 154 192 221 q 401 88 306 88 m 354 767 l 201 1047 l 286 1047 l 413 847 l 539 1047 l 624 1047 l 471 767 l 354 767 z "},"â":{"ha":840,"x_min":64,"x_max":746,"o":"m 372 -12 q 211 31 281 -12 q 103 156 142 74 q 64 350 64 238 q 103 544 64 463 q 211 668 142 625 q 372 711 281 711 q 534 665 465 711 q 625 538 603 618 l 608 538 l 624 699 l 746 699 q 738 615 742 657 q 735 533 735 574 l 735 0 l 608 0 l 608 160 l 624 160 q 533 34 601 81 q 372 -12 464 -12 m 401 88 q 553 154 496 88 q 610 350 610 221 q 553 544 610 479 q 401 610 496 610 q 249 544 307 610 q 192 350 192 479 q 249 154 192 221 q 401 88 306 88 m 201 767 l 354 1047 l 471 1047 l 624 767 l 539 767 l 413 967 l 286 767 l 201 767 z "},"ấ":{"ha":840,"x_min":64,"x_max":782,"o":"m 372 -12 q 211 31 281 -12 q 103 156 142 74 q 64 350 64 238 q 103 544 64 463 q 211 668 142 625 q 372 711 281 711 q 534 665 465 711 q 625 538 603 618 l 608 538 l 624 699 l 746 699 q 738 615 742 657 q 735 533 735 574 l 735 0 l 608 0 l 608 160 l 624 160 q 533 34 601 81 q 372 -12 464 -12 m 401 88 q 553 154 496 88 q 610 350 610 221 q 553 544 610 479 q 401 610 496 610 q 249 544 307 610 q 192 350 192 479 q 249 154 192 221 q 401 88 306 88 m 201 763 l 354 988 l 471 988 l 624 763 l 539 763 l 413 910 l 286 763 l 201 763 m 549 907 l 667 1115 l 783 1115 l 626 907 l 549 907 z "},"ậ":{"ha":840,"x_min":64,"x_max":746,"o":"m 372 -12 q 211 31 281 -12 q 103 156 142 74 q 64 350 64 238 q 103 544 64 463 q 211 668 142 625 q 372 711 281 711 q 534 665 465 711 q 625 538 603 618 l 608 538 l 624 699 l 746 699 q 738 615 742 657 q 735 533 735 574 l 735 0 l 608 0 l 608 160 l 624 160 q 533 34 601 81 q 372 -12 464 -12 m 401 88 q 553 154 496 88 q 610 350 610 221 q 553 544 610 479 q 401 610 496 610 q 249 544 307 610 q 192 350 192 479 q 249 154 192 221 q 401 88 306 88 m 342 -265 l 342 -135 l 478 -135 l 478 -265 l 342 -265 m 201 767 l 354 1047 l 471 1047 l 624 767 l 539 767 l 413 967 l 286 767 l 201 767 z "},"ầ":{"ha":840,"x_min":64,"x_max":746,"o":"m 372 -12 q 211 31 281 -12 q 103 156 142 74 q 64 350 64 238 q 103 544 64 463 q 211 668 142 625 q 372 711 281 711 q 534 665 465 711 q 625 538 603 618 l 608 538 l 624 699 l 746 699 q 738 615 742 657 q 735 533 735 574 l 735 0 l 608 0 l 608 160 l 624 160 q 533 34 601 81 q 372 -12 464 -12 m 401 88 q 553 154 496 88 q 610 350 610 221 q 553 544 610 479 q 401 610 496 610 q 249 544 307 610 q 192 350 192 479 q 249 154 192 221 q 401 88 306 88 m 201 763 l 354 988 l 471 988 l 624 763 l 539 763 l 413 910 l 286 763 l 201 763 m 603 907 l 447 1115 l 564 1115 l 683 907 l 603 907 z "},"ẩ":{"ha":840,"x_min":64,"x_max":746,"o":"m 372 -12 q 211 31 281 -12 q 103 156 142 74 q 64 350 64 238 q 103 544 64 463 q 211 668 142 625 q 372 711 281 711 q 534 665 465 711 q 625 538 603 618 l 608 538 l 624 699 l 746 699 q 738 615 742 657 q 735 533 735 574 l 735 0 l 608 0 l 608 160 l 624 160 q 533 34 601 81 q 372 -12 464 -12 m 401 88 q 553 154 496 88 q 610 350 610 221 q 553 544 610 479 q 401 610 496 610 q 249 544 307 610 q 192 350 192 479 q 249 154 192 221 q 401 88 306 88 m 201 763 l 354 988 l 471 988 l 624 763 l 539 763 l 413 910 l 286 763 l 201 763 m 557 907 q 569 953 557 935 q 597 982 581 971 q 624 1005 613 993 q 636 1032 636 1017 q 621 1053 636 1047 q 578 1058 606 1058 q 538 1055 558 1058 q 494 1042 517 1051 l 475 1097 q 531 1115 501 1108 q 599 1121 561 1121 q 693 1101 660 1121 q 726 1049 726 1082 q 712 1006 726 1022 q 679 976 697 989 q 647 947 661 963 q 632 907 632 932 l 557 907 z "},"ẫ":{"ha":840,"x_min":64,"x_max":746,"o":"m 372 -12 q 211 31 281 -12 q 103 156 142 74 q 64 350 64 238 q 103 544 64 463 q 211 668 142 625 q 372 711 281 711 q 534 665 465 711 q 625 538 603 618 l 608 538 l 624 699 l 746 699 q 738 615 742 657 q 735 533 735 574 l 735 0 l 608 0 l 608 160 l 624 160 q 533 34 601 81 q 372 -12 464 -12 m 401 88 q 553 154 496 88 q 610 350 610 221 q 553 544 610 479 q 401 610 496 610 q 249 544 307 610 q 192 350 192 479 q 249 154 192 221 q 401 88 306 88 m 201 763 l 354 946 l 471 946 l 624 763 l 542 763 l 413 876 l 283 763 l 201 763 m 254 981 l 189 983 q 231 1091 194 1056 q 322 1126 267 1126 q 374 1117 350 1126 q 426 1089 397 1107 q 471 1063 456 1068 q 500 1057 486 1057 q 548 1074 532 1057 q 571 1129 564 1092 l 636 1125 q 596 1017 632 1053 q 504 982 560 982 q 451 992 476 982 q 393 1025 426 1003 q 360 1044 378 1035 q 325 1053 343 1053 q 278 1035 294 1053 q 254 981 261 1018 z "},"ȁ":{"ha":840,"x_min":64,"x_max":746,"o":"m 372 -12 q 211 31 281 -12 q 103 156 142 74 q 64 350 64 238 q 103 544 64 463 q 211 668 142 625 q 372 711 281 711 q 534 665 465 711 q 625 538 603 618 l 608 538 l 624 699 l 746 699 q 738 615 742 657 q 735 533 735 574 l 735 0 l 608 0 l 608 160 l 624 160 q 533 34 601 81 q 372 -12 464 -12 m 401 88 q 553 154 496 88 q 610 350 610 221 q 553 544 610 479 q 401 610 496 610 q 249 544 307 610 q 192 350 192 479 q 249 154 192 221 q 401 88 306 88 m 471 767 l 353 1047 l 468 1047 l 540 767 l 471 767 m 288 767 l 169 1047 l 283 1047 l 357 767 l 288 767 z "},"ä":{"ha":840,"x_min":64,"x_max":746,"o":"m 372 -12 q 211 31 281 -12 q 103 156 142 74 q 64 350 64 238 q 103 544 64 463 q 211 668 142 625 q 372 711 281 711 q 534 665 465 711 q 625 538 603 618 l 608 538 l 624 699 l 746 699 q 738 615 742 657 q 735 533 735 574 l 735 0 l 608 0 l 608 160 l 624 160 q 533 34 601 81 q 372 -12 464 -12 m 401 88 q 553 154 496 88 q 610 350 610 221 q 553 544 610 479 q 401 610 496 610 q 249 544 307 610 q 192 350 192 479 q 249 154 192 221 q 401 88 306 88 m 471 842 l 471 971 l 600 971 l 600 842 l 471 842 m 225 842 l 225 971 l 354 971 l 354 842 l 225 842 z "},"ȧ":{"ha":840,"x_min":64,"x_max":746,"o":"m 372 -12 q 211 31 281 -12 q 103 156 142 74 q 64 350 64 238 q 103 544 64 463 q 211 668 142 625 q 372 711 281 711 q 534 665 465 711 q 625 538 603 618 l 608 538 l 624 699 l 746 699 q 738 615 742 657 q 735 533 735 574 l 735 0 l 608 0 l 608 160 l 624 160 q 533 34 601 81 q 372 -12 464 -12 m 401 88 q 553 154 496 88 q 610 350 610 221 q 553 544 610 479 q 401 610 496 610 q 249 544 307 610 q 192 350 192 479 q 249 154 192 221 q 401 88 306 88 m 344 842 l 344 972 l 481 972 l 481 842 l 344 842 z "},"ạ":{"ha":840,"x_min":64,"x_max":746,"o":"m 372 -12 q 211 31 281 -12 q 103 156 142 74 q 64 350 64 238 q 103 544 64 463 q 211 668 142 625 q 372 711 281 711 q 534 665 465 711 q 625 538 603 618 l 608 538 l 624 699 l 746 699 q 738 615 742 657 q 735 533 735 574 l 735 0 l 608 0 l 608 160 l 624 160 q 533 34 601 81 q 372 -12 464 -12 m 401 88 q 553 154 496 88 q 610 350 610 221 q 553 544 610 479 q 401 610 496 610 q 249 544 307 610 q 192 350 192 479 q 249 154 192 221 q 401 88 306 88 m 342 -265 l 342 -135 l 478 -135 l 478 -265 l 342 -265 z "},"à":{"ha":840,"x_min":64,"x_max":746,"o":"m 372 -12 q 211 31 281 -12 q 103 156 142 74 q 64 350 64 238 q 103 544 64 463 q 211 668 142 625 q 372 711 281 711 q 534 665 465 711 q 625 538 603 618 l 608 538 l 624 699 l 746 699 q 738 615 742 657 q 735 533 735 574 l 735 0 l 608 0 l 608 160 l 624 160 q 533 34 601 81 q 372 -12 464 -12 m 401 88 q 553 154 496 88 q 610 350 610 221 q 553 544 610 479 q 401 610 496 610 q 249 544 307 610 q 192 350 192 479 q 249 154 192 221 q 401 88 306 88 m 368 767 l 182 1047 l 314 1047 l 457 767 l 368 767 z "},"ả":{"ha":840,"x_min":64,"x_max":746,"o":"m 372 -12 q 211 31 281 -12 q 103 156 142 74 q 64 350 64 238 q 103 544 64 463 q 211 668 142 625 q 372 711 281 711 q 534 665 465 711 q 625 538 603 618 l 608 538 l 624 699 l 746 699 q 738 615 742 657 q 735 533 735 574 l 735 0 l 608 0 l 608 160 l 624 160 q 533 34 601 81 q 372 -12 464 -12 m 401 88 q 553 154 496 88 q 610 350 610 221 q 553 544 610 479 q 401 610 496 610 q 249 544 307 610 q 192 350 192 479 q 249 154 192 221 q 401 88 306 88 m 371 767 l 371 796 q 384 847 371 826 q 413 882 397 867 q 442 912 429 897 q 456 946 456 926 q 440 975 456 965 q 393 985 425 985 q 351 980 372 985 q 307 963 331 975 l 286 1025 q 346 1049 313 1042 q 418 1056 379 1056 q 520 1031 483 1056 q 557 960 557 1007 q 541 904 557 925 q 505 868 525 883 q 469 835 485 853 q 454 789 454 817 l 454 767 l 371 767 z "},"ȃ":{"ha":840,"x_min":64,"x_max":746,"o":"m 372 -12 q 211 31 281 -12 q 103 156 142 74 q 64 350 64 238 q 103 544 64 463 q 211 668 142 625 q 372 711 281 711 q 534 665 465 711 q 625 538 603 618 l 608 538 l 624 699 l 746 699 q 738 615 742 657 q 735 533 735 574 l 735 0 l 608 0 l 608 160 l 624 160 q 533 34 601 81 q 372 -12 464 -12 m 401 88 q 553 154 496 88 q 610 350 610 221 q 553 544 610 479 q 401 610 496 610 q 249 544 307 610 q 192 350 192 479 q 249 154 192 221 q 401 88 306 88 m 271 757 l 194 765 q 226 906 199 847 q 301 998 253 965 q 413 1031 349 1031 q 524 998 476 1031 q 600 906 572 965 q 631 765 628 847 l 554 757 q 512 898 549 849 q 413 947 475 947 q 313 898 350 947 q 271 757 276 849 z "},"ā":{"ha":840,"x_min":64,"x_max":746,"o":"m 372 -12 q 211 31 281 -12 q 103 156 142 74 q 64 350 64 238 q 103 544 64 463 q 211 668 142 625 q 372 711 281 711 q 534 665 465 711 q 625 538 603 618 l 608 538 l 624 699 l 746 699 q 738 615 742 657 q 735 533 735 574 l 735 0 l 608 0 l 608 160 l 624 160 q 533 34 601 81 q 372 -12 464 -12 m 401 88 q 553 154 496 88 q 610 350 610 221 q 553 544 610 479 q 401 610 496 610 q 249 544 307 610 q 192 350 192 479 q 249 154 192 221 q 401 88 306 88 m 203 865 l 203 947 l 622 947 l 622 865 l 203 865 z "},"ą":{"ha":840,"x_min":64,"x_max":801,"o":"m 372 -12 q 211 31 281 -12 q 103 156 142 74 q 64 350 64 238 q 103 544 64 463 q 211 668 142 625 q 372 711 281 711 q 534 665 465 711 q 625 538 603 618 l 608 538 l 624 699 l 746 699 q 738 615 742 657 q 735 533 735 574 l 735 0 l 608 0 l 608 160 l 624 160 q 533 34 601 81 q 372 -12 464 -12 m 401 88 q 553 154 496 88 q 610 350 610 221 q 553 544 610 479 q 401 610 496 610 q 249 544 307 610 q 192 350 192 479 q 249 154 192 221 q 401 88 306 88 m 689 -268 q 580 -231 621 -268 q 539 -131 539 -193 q 575 -26 539 -75 q 674 51 611 24 l 717 0 q 674 -26 694 -10 q 639 -66 653 -43 q 625 -117 625 -89 q 649 -174 625 -154 q 706 -193 672 -193 q 743 -189 725 -193 q 781 -176 761 -185 l 800 -244 q 751 -262 779 -256 q 689 -268 724 -268 z "},"å":{"ha":840,"x_min":64,"x_max":746,"o":"m 372 -12 q 211 31 281 -12 q 103 156 142 74 q 64 350 64 238 q 103 544 64 463 q 211 668 142 625 q 372 711 281 711 q 534 665 465 711 q 625 538 603 618 l 608 538 l 624 699 l 746 699 q 738 615 742 657 q 735 533 735 574 l 735 0 l 608 0 l 608 160 l 624 160 q 533 34 601 81 q 372 -12 464 -12 m 401 88 q 553 154 496 88 q 610 350 610 221 q 553 544 610 479 q 401 610 496 610 q 249 544 307 610 q 192 350 192 479 q 249 154 192 221 q 401 88 306 88 m 413 758 q 328 781 367 758 q 268 840 290 803 q 246 922 246 876 q 268 1004 246 968 q 328 1063 290 1040 q 413 1085 365 1085 q 497 1063 460 1085 q 557 1004 535 1040 q 579 921 579 968 q 557 840 579 876 q 498 781 535 803 q 413 758 461 758 m 413 824 q 483 852 456 824 q 510 921 510 881 q 483 992 510 964 q 413 1019 457 1019 q 343 992 371 1019 q 315 922 315 964 q 342 851 315 879 q 413 824 369 824 z "},"ǻ":{"ha":840,"x_min":64,"x_max":746,"o":"m 372 -12 q 211 31 281 -12 q 103 156 142 74 q 64 350 64 238 q 103 544 64 463 q 211 668 142 625 q 372 711 281 711 q 534 665 465 711 q 625 538 603 618 l 608 538 l 624 699 l 746 699 q 738 615 742 657 q 735 533 735 574 l 735 0 l 608 0 l 608 160 l 624 160 q 533 34 601 81 q 372 -12 464 -12 m 401 88 q 553 154 496 88 q 610 350 610 221 q 553 544 610 479 q 401 610 496 610 q 249 544 307 610 q 192 350 192 479 q 249 154 192 221 q 401 88 306 88 m 413 754 q 330 776 367 754 q 272 833 293 797 q 250 914 250 869 q 272 994 250 958 q 330 1051 293 1031 q 413 1072 367 1072 q 462 1065 439 1072 q 504 1046 485 1058 l 600 1135 l 717 1135 l 553 996 q 575 914 575 958 q 553 833 575 869 q 495 776 532 797 q 413 754 458 754 m 413 815 q 483 844 456 815 q 510 914 510 872 q 483 983 510 956 q 413 1011 456 1011 q 343 983 371 1011 q 315 914 315 956 q 343 844 315 872 q 413 815 371 815 z "},"ã":{"ha":840,"x_min":64,"x_max":746,"o":"m 372 -12 q 211 31 281 -12 q 103 156 142 74 q 64 350 64 238 q 103 544 64 463 q 211 668 142 625 q 372 711 281 711 q 534 665 465 711 q 625 538 603 618 l 608 538 l 624 699 l 746 699 q 738 615 742 657 q 735 533 735 574 l 735 0 l 608 0 l 608 160 l 624 160 q 533 34 601 81 q 372 -12 464 -12 m 401 88 q 553 154 496 88 q 610 350 610 221 q 553 544 610 479 q 401 610 496 610 q 249 544 307 610 q 192 350 192 479 q 249 154 192 221 q 401 88 306 88 m 226 818 l 158 822 q 207 963 165 913 q 311 1013 249 1013 q 367 999 340 1013 q 426 956 393 985 q 474 920 456 931 q 511 910 493 910 q 599 1017 582 910 l 667 1013 q 619 872 661 921 q 515 822 578 822 q 460 836 486 822 q 397 879 433 850 q 351 914 369 904 q 314 924 333 924 q 256 896 276 924 q 226 818 235 868 z "},"æ":{"ha":1221,"x_min":78,"x_max":1161,"o":"m 332 -12 q 199 17 257 -12 q 110 94 142 46 q 78 203 78 143 q 115 330 78 283 q 240 396 151 376 q 482 415 329 415 l 551 415 l 551 340 l 482 340 q 309 328 371 340 q 222 288 247 317 q 196 208 196 260 q 237 117 196 153 q 347 81 278 81 q 446 106 403 81 q 514 177 489 131 q 539 285 539 224 l 539 453 q 500 574 539 536 q 382 611 461 611 q 263 594 318 611 q 149 540 207 578 l 107 632 q 235 690 161 669 q 385 711 308 711 q 552 669 492 711 q 633 543 613 626 l 597 543 q 707 668 639 625 q 868 711 775 711 q 1083 623 1004 711 q 1161 379 1161 535 l 1161 339 l 643 339 l 643 415 l 1075 415 l 1051 394 q 1003 560 1051 500 q 867 619 956 619 q 715 557 771 619 q 660 372 660 494 l 660 363 q 719 159 660 231 q 892 88 778 88 q 1006 106 951 88 q 1110 167 1060 125 l 1151 79 q 1033 11 1104 35 q 889 -12 963 -12 q 685 42 765 -12 q 572 201 606 97 l 604 201 q 510 44 582 100 q 332 -12 438 -12 z "},"ǽ":{"ha":1221,"x_min":78,"x_max":1161,"o":"m 332 -12 q 199 17 257 -12 q 110 94 142 46 q 78 203 78 143 q 115 330 78 283 q 240 396 151 376 q 482 415 329 415 l 551 415 l 551 340 l 482 340 q 309 328 371 340 q 222 288 247 317 q 196 208 196 260 q 237 117 196 153 q 347 81 278 81 q 446 106 403 81 q 514 177 489 131 q 539 285 539 224 l 539 453 q 500 574 539 536 q 382 611 461 611 q 263 594 318 611 q 149 540 207 578 l 107 632 q 235 690 161 669 q 385 711 308 711 q 552 669 492 711 q 633 543 613 626 l 597 543 q 707 668 639 625 q 868 711 775 711 q 1083 623 1004 711 q 1161 379 1161 535 l 1161 339 l 643 339 l 643 415 l 1075 415 l 1051 394 q 1003 560 1051 500 q 867 619 956 619 q 715 557 771 619 q 660 372 660 494 l 660 363 q 719 159 660 231 q 892 88 778 88 q 1006 106 951 88 q 1110 167 1060 125 l 1151 79 q 1033 11 1104 35 q 889 -12 963 -12 q 685 42 765 -12 q 572 201 606 97 l 604 201 q 510 44 582 100 q 332 -12 438 -12 m 560 767 l 703 1047 l 835 1047 l 649 767 l 560 767 z "},"b":{"ha":840,"x_min":106,"x_max":776,"o":"m 468 -12 q 307 34 375 -12 q 217 163 239 81 l 232 163 l 232 0 l 106 0 l 106 1022 l 232 1022 l 232 539 l 217 539 q 308 665 240 619 q 468 711 375 711 q 631 667 561 711 q 738 543 700 624 q 776 349 776 463 q 738 155 776 236 q 630 31 700 74 q 468 -12 560 -12 m 439 88 q 591 153 533 88 q 649 349 649 219 q 591 544 649 478 q 439 610 533 610 q 287 544 343 610 q 231 350 231 479 q 287 154 231 221 q 439 88 343 88 z "},"ɓ":{"ha":840,"x_min":106,"x_max":776,"o":"m 469 -12 q 308 34 376 -12 q 217 163 239 81 l 232 163 l 232 0 l 106 0 l 106 792 q 169 972 106 908 q 353 1035 233 1035 q 397 1032 375 1035 q 435 1022 418 1029 l 419 925 q 391 932 403 931 q 364 933 379 933 q 265 897 299 933 q 232 792 232 860 l 232 539 l 217 539 q 308 665 240 619 q 469 711 376 711 q 631 668 563 711 q 738 544 700 625 q 776 350 776 463 q 738 156 776 238 q 631 31 700 74 q 469 -12 561 -12 m 440 88 q 592 154 535 88 q 649 350 649 221 q 592 544 649 479 q 440 610 535 610 q 288 544 344 610 q 231 350 231 479 q 288 154 231 221 q 440 88 344 88 z "},"c":{"ha":690,"x_min":64,"x_max":642,"o":"m 406 -12 q 225 31 301 -12 q 106 158 149 75 q 64 354 64 240 q 107 547 64 467 q 226 669 150 626 q 406 711 303 711 q 538 688 474 711 q 642 622 601 665 l 599 533 q 510 591 558 572 q 414 610 461 610 q 253 544 311 610 q 194 353 194 478 q 253 158 194 226 q 414 90 311 90 q 508 108 460 90 q 599 165 557 126 l 642 78 q 535 10 600 33 q 406 -12 471 -12 z "},"ć":{"ha":690,"x_min":64,"x_max":642,"o":"m 406 -12 q 225 31 301 -12 q 106 158 149 75 q 64 354 64 240 q 107 547 64 467 q 226 669 150 626 q 406 711 303 711 q 538 688 474 711 q 642 622 601 665 l 599 533 q 510 591 558 572 q 414 610 461 610 q 253 544 311 610 q 194 353 194 478 q 253 158 194 226 q 414 90 311 90 q 508 108 460 90 q 599 165 557 126 l 642 78 q 535 10 600 33 q 406 -12 471 -12 m 356 767 l 499 1047 l 631 1047 l 444 767 l 356 767 z "},"č":{"ha":690,"x_min":64,"x_max":642,"o":"m 406 -12 q 225 31 301 -12 q 106 158 149 75 q 64 354 64 240 q 107 547 64 467 q 226 669 150 626 q 406 711 303 711 q 538 688 474 711 q 642 622 601 665 l 599 533 q 510 591 558 572 q 414 610 461 610 q 253 544 311 610 q 194 353 194 478 q 253 158 194 226 q 414 90 311 90 q 508 108 460 90 q 599 165 557 126 l 642 78 q 535 10 600 33 q 406 -12 471 -12 m 342 767 l 189 1047 l 274 1047 l 400 847 l 526 1047 l 611 1047 l 458 767 l 342 767 z "},"ç":{"ha":690,"x_min":64,"x_max":642,"o":"m 406 -12 q 225 31 301 -12 q 106 158 149 75 q 64 354 64 240 q 107 547 64 467 q 226 669 150 626 q 406 711 303 711 q 538 688 474 711 q 642 622 601 665 l 599 533 q 510 591 558 572 q 414 610 461 610 q 253 544 311 610 q 194 353 194 478 q 253 158 194 226 q 414 90 311 90 q 508 108 460 90 q 599 165 557 126 l 642 78 q 535 10 600 33 q 406 -12 471 -12 m 404 -268 q 333 -260 367 -268 q 275 -240 299 -253 l 294 -175 q 344 -193 321 -187 q 397 -199 367 -199 q 456 -186 435 -199 q 478 -149 478 -174 q 425 -112 478 -112 q 396 -115 410 -112 q 361 -122 382 -117 l 338 -100 l 357 28 l 433 28 l 415 -78 l 379 -67 q 412 -60 394 -62 q 443 -57 429 -57 q 528 -82 494 -57 q 561 -153 561 -107 q 517 -236 561 -204 q 404 -268 474 -268 z "},"ḉ":{"ha":690,"x_min":64,"x_max":642,"o":"m 406 -12 q 225 31 301 -12 q 106 158 149 75 q 64 354 64 240 q 107 547 64 467 q 226 669 150 626 q 406 711 303 711 q 538 688 474 711 q 642 622 601 665 l 599 533 q 510 591 558 572 q 414 610 461 610 q 253 544 311 610 q 194 353 194 478 q 253 158 194 226 q 414 90 311 90 q 508 108 460 90 q 599 165 557 126 l 642 78 q 535 10 600 33 q 406 -12 471 -12 m 404 -268 q 333 -260 367 -268 q 275 -240 299 -253 l 294 -175 q 344 -193 321 -187 q 397 -199 367 -199 q 456 -186 435 -199 q 478 -149 478 -174 q 425 -112 478 -112 q 396 -115 410 -112 q 361 -122 382 -117 l 338 -100 l 357 28 l 433 28 l 415 -78 l 379 -67 q 412 -60 394 -62 q 443 -57 429 -57 q 528 -82 494 -57 q 561 -153 561 -107 q 517 -236 561 -204 q 404 -268 474 -268 m 356 767 l 499 1047 l 631 1047 l 444 767 l 356 767 z "},"ĉ":{"ha":690,"x_min":64,"x_max":642,"o":"m 406 -12 q 225 31 301 -12 q 106 158 149 75 q 64 354 64 240 q 107 547 64 467 q 226 669 150 626 q 406 711 303 711 q 538 688 474 711 q 642 622 601 665 l 599 533 q 510 591 558 572 q 414 610 461 610 q 253 544 311 610 q 194 353 194 478 q 253 158 194 226 q 414 90 311 90 q 508 108 460 90 q 599 165 557 126 l 642 78 q 535 10 600 33 q 406 -12 471 -12 m 189 767 l 342 1047 l 458 1047 l 611 767 l 526 767 l 400 967 l 274 767 l 189 767 z "},"ċ":{"ha":690,"x_min":64,"x_max":642,"o":"m 406 -12 q 225 31 301 -12 q 106 158 149 75 q 64 354 64 240 q 107 547 64 467 q 226 669 150 626 q 406 711 303 711 q 538 688 474 711 q 642 622 601 665 l 599 533 q 510 591 558 572 q 414 610 461 610 q 253 544 311 610 q 194 353 194 478 q 253 158 194 226 q 414 90 311 90 q 508 108 460 90 q 599 165 557 126 l 642 78 q 535 10 600 33 q 406 -12 471 -12 m 332 842 l 332 972 l 468 972 l 468 842 l 332 842 z "},"d":{"ha":840,"x_min":64,"x_max":735,"o":"m 372 -12 q 211 31 281 -12 q 103 156 142 74 q 64 350 64 238 q 103 544 64 463 q 211 668 142 625 q 372 711 281 711 q 533 665 464 711 q 625 539 601 619 l 608 539 l 608 1022 l 735 1022 l 735 0 l 610 0 l 610 163 l 625 163 q 534 34 603 81 q 372 -12 465 -12 m 401 88 q 553 154 496 88 q 611 350 611 221 q 553 544 611 479 q 401 610 496 610 q 249 544 307 610 q 192 350 192 479 q 249 154 192 221 q 401 88 307 88 z "},"ð":{"ha":807,"x_min":64,"x_max":743,"o":"m 399 -12 q 223 28 299 -12 q 106 142 147 68 q 64 313 64 215 q 105 483 64 410 q 219 596 146 556 q 392 636 293 636 q 561 585 494 636 q 657 428 628 533 l 624 428 q 576 653 624 546 q 435 835 528 760 l 464 831 l 190 714 l 161 779 l 397 879 l 394 861 q 303 913 353 892 q 197 949 254 935 l 222 1032 q 378 984 307 1015 q 504 911 449 953 l 476 915 l 640 985 l 669 919 l 532 861 l 538 885 q 653 744 608 822 q 721 576 699 665 q 743 390 743 486 q 703 171 743 261 q 586 34 663 81 q 399 -12 510 -12 m 400 89 q 553 149 497 89 q 610 313 610 208 q 554 476 610 417 q 401 535 499 535 q 248 476 304 535 q 192 313 192 417 q 247 148 192 207 q 400 89 303 89 z "},"ď":{"ha":840,"x_min":64,"x_max":897,"o":"m 372 -12 q 211 31 281 -12 q 103 156 142 74 q 64 350 64 238 q 103 544 64 463 q 211 668 142 625 q 372 711 281 711 q 533 665 464 711 q 625 539 601 619 l 608 539 l 608 1022 l 735 1022 l 735 0 l 610 0 l 610 163 l 625 163 q 534 34 603 81 q 372 -12 465 -12 m 401 88 q 553 154 496 88 q 611 350 611 221 q 553 544 611 479 q 401 610 496 610 q 249 544 307 610 q 192 350 192 479 q 249 154 192 221 q 401 88 307 88 m 800 758 l 800 1022 l 897 1022 l 863 758 l 800 758 z "},"đ":{"ha":840,"x_min":64,"x_max":864,"o":"m 372 -12 q 211 30 281 -12 q 103 153 142 72 q 64 343 64 233 q 103 533 64 454 q 211 656 142 613 q 372 699 281 699 q 532 652 464 699 q 622 528 600 606 l 607 528 l 607 804 l 339 804 l 339 897 l 607 897 l 607 1022 l 733 1022 l 733 897 l 864 897 l 864 804 l 733 804 l 733 0 l 608 0 l 608 161 l 624 161 q 533 34 600 81 q 372 -12 465 -12 m 401 88 q 552 153 494 88 q 610 343 610 218 q 552 533 610 468 q 401 597 494 597 q 249 533 307 597 q 192 343 192 468 q 249 153 192 218 q 401 88 307 88 z "},"ḍ":{"ha":840,"x_min":64,"x_max":735,"o":"m 372 -12 q 211 31 281 -12 q 103 156 142 74 q 64 350 64 238 q 103 544 64 463 q 211 668 142 625 q 372 711 281 711 q 533 665 464 711 q 625 539 601 619 l 608 539 l 608 1022 l 735 1022 l 735 0 l 610 0 l 610 163 l 625 163 q 534 34 603 81 q 372 -12 465 -12 m 401 88 q 553 154 496 88 q 611 350 611 221 q 553 544 611 479 q 401 610 496 610 q 249 544 307 610 q 192 350 192 479 q 249 154 192 221 q 401 88 307 88 m 356 -265 l 356 -135 l 492 -135 l 492 -265 l 356 -265 z "},"ɗ":{"ha":839,"x_min":64,"x_max":938,"o":"m 372 -12 q 210 31 279 -12 q 103 156 142 74 q 64 350 64 238 q 103 544 64 463 q 210 668 142 625 q 372 711 279 711 q 533 665 465 711 q 624 539 601 619 l 608 539 l 608 794 q 636 924 608 869 q 719 1006 664 978 q 856 1035 774 1035 q 898 1032 876 1035 q 938 1022 919 1029 l 922 925 q 892 932 904 931 q 867 933 881 933 q 769 899 804 933 q 735 792 735 864 l 735 0 l 610 0 l 610 163 l 625 163 q 533 34 601 81 q 372 -12 465 -12 m 401 88 q 553 154 496 88 q 610 350 610 221 q 553 544 610 479 q 401 610 496 610 q 249 544 306 610 q 192 350 192 479 q 249 154 192 221 q 401 88 306 88 z "},"ḏ":{"ha":840,"x_min":64,"x_max":735,"o":"m 372 -12 q 211 31 281 -12 q 103 156 142 74 q 64 350 64 238 q 103 544 64 463 q 211 668 142 625 q 372 711 281 711 q 533 665 464 711 q 625 539 601 619 l 608 539 l 608 1022 l 735 1022 l 735 0 l 610 0 l 610 163 l 625 163 q 534 34 603 81 q 372 -12 465 -12 m 401 88 q 553 154 496 88 q 611 350 611 221 q 553 544 611 479 q 401 610 496 610 q 249 544 307 610 q 192 350 192 479 q 249 154 192 221 q 401 88 307 88 m 214 -219 l 214 -137 l 633 -137 l 633 -219 l 214 -219 z "},"ǆ":{"ha":1563,"x_min":64,"x_max":1504,"o":"m 372 -12 q 211 31 281 -12 q 103 156 142 74 q 64 350 64 238 q 103 544 64 463 q 211 668 142 625 q 372 711 281 711 q 533 665 464 711 q 625 539 601 619 l 608 539 l 608 1022 l 735 1022 l 735 0 l 610 0 l 610 163 l 625 163 q 534 34 603 81 q 372 -12 465 -12 m 401 88 q 553 154 496 88 q 611 350 611 221 q 553 544 611 479 q 401 610 496 610 q 249 544 307 610 q 192 350 192 479 q 249 154 192 221 q 401 88 307 88 m 908 0 l 908 85 l 1372 633 l 1372 601 l 908 601 l 908 699 l 1489 699 l 1489 614 l 1022 63 l 1021 97 l 1504 97 l 1504 0 l 908 0 m 1143 767 l 990 1047 l 1075 1047 l 1201 847 l 1328 1047 l 1413 1047 l 1260 767 l 1143 767 z "},"e":{"ha":757,"x_min":64,"x_max":697,"o":"m 424 -12 q 160 83 257 -12 q 64 347 64 179 q 106 540 64 458 q 224 666 149 621 q 399 711 299 711 q 561 670 494 711 q 663 554 628 629 q 697 376 697 479 l 697 335 l 163 335 l 163 410 l 611 410 l 588 392 q 540 560 588 500 q 399 619 492 619 q 242 549 297 619 q 186 358 186 479 l 186 346 q 249 153 186 218 q 425 88 313 88 q 542 106 488 88 q 646 165 596 124 l 688 78 q 570 11 640 35 q 424 -12 500 -12 z "},"é":{"ha":757,"x_min":64,"x_max":697,"o":"m 424 -12 q 160 83 257 -12 q 64 347 64 179 q 106 540 64 458 q 224 666 149 621 q 399 711 299 711 q 561 670 494 711 q 663 554 628 629 q 697 376 697 479 l 697 335 l 163 335 l 163 410 l 611 410 l 588 392 q 540 560 588 500 q 399 619 492 619 q 242 549 297 619 q 186 358 186 479 l 186 346 q 249 153 186 218 q 425 88 313 88 q 542 106 488 88 q 646 165 596 124 l 688 78 q 570 11 640 35 q 424 -12 500 -12 m 354 767 l 497 1047 l 629 1047 l 443 767 l 354 767 z "},"ĕ":{"ha":757,"x_min":64,"x_max":697,"o":"m 424 -12 q 160 83 257 -12 q 64 347 64 179 q 106 540 64 458 q 224 666 149 621 q 399 711 299 711 q 561 670 494 711 q 663 554 628 629 q 697 376 697 479 l 697 335 l 163 335 l 163 410 l 611 410 l 588 392 q 540 560 588 500 q 399 619 492 619 q 242 549 297 619 q 186 358 186 479 l 186 346 q 249 153 186 218 q 425 88 313 88 q 542 106 488 88 q 646 165 596 124 l 688 78 q 570 11 640 35 q 424 -12 500 -12 m 399 763 q 287 795 335 763 q 212 887 239 828 q 181 1028 185 946 l 257 1036 q 299 895 263 944 q 399 846 336 846 q 498 895 461 846 q 540 1036 535 944 l 617 1028 q 586 887 614 946 q 510 795 558 828 q 399 763 463 763 z "},"ě":{"ha":757,"x_min":64,"x_max":697,"o":"m 424 -12 q 160 83 257 -12 q 64 347 64 179 q 106 540 64 458 q 224 666 149 621 q 399 711 299 711 q 561 670 494 711 q 663 554 628 629 q 697 376 697 479 l 697 335 l 163 335 l 163 410 l 611 410 l 588 392 q 540 560 588 500 q 399 619 492 619 q 242 549 297 619 q 186 358 186 479 l 186 346 q 249 153 186 218 q 425 88 313 88 q 542 106 488 88 q 646 165 596 124 l 688 78 q 570 11 640 35 q 424 -12 500 -12 m 340 767 l 188 1047 l 272 1047 l 399 847 l 525 1047 l 610 1047 l 457 767 l 340 767 z "},"ḝ":{"ha":757,"x_min":64,"x_max":697,"o":"m 424 -12 q 160 83 257 -12 q 64 347 64 179 q 106 540 64 458 q 224 666 149 621 q 399 711 299 711 q 561 670 494 711 q 663 554 628 629 q 697 376 697 479 l 697 335 l 163 335 l 163 410 l 611 410 l 588 392 q 540 560 588 500 q 399 619 492 619 q 242 549 297 619 q 186 358 186 479 l 186 346 q 249 153 186 218 q 425 88 313 88 q 542 106 488 88 q 646 165 596 124 l 688 78 q 570 11 640 35 q 424 -12 500 -12 m 407 -268 q 335 -260 369 -268 q 278 -240 301 -253 l 297 -175 q 347 -193 324 -187 q 400 -199 369 -199 q 459 -186 438 -199 q 481 -149 481 -174 q 428 -112 481 -112 q 399 -115 413 -112 q 364 -122 385 -117 l 340 -100 l 360 28 l 436 28 l 418 -78 l 382 -67 q 415 -60 397 -62 q 446 -57 432 -57 q 531 -82 497 -57 q 564 -153 564 -107 q 520 -236 564 -204 q 407 -268 476 -268 m 399 763 q 287 795 335 763 q 212 887 239 828 q 181 1028 185 946 l 257 1036 q 299 895 263 944 q 399 846 336 846 q 498 895 461 846 q 540 1036 535 944 l 617 1028 q 586 887 614 946 q 510 795 558 828 q 399 763 463 763 z "},"ê":{"ha":757,"x_min":64,"x_max":697,"o":"m 424 -12 q 160 83 257 -12 q 64 347 64 179 q 106 540 64 458 q 224 666 149 621 q 399 711 299 711 q 561 670 494 711 q 663 554 628 629 q 697 376 697 479 l 697 335 l 163 335 l 163 410 l 611 410 l 588 392 q 540 560 588 500 q 399 619 492 619 q 242 549 297 619 q 186 358 186 479 l 186 346 q 249 153 186 218 q 425 88 313 88 q 542 106 488 88 q 646 165 596 124 l 688 78 q 570 11 640 35 q 424 -12 500 -12 m 188 767 l 340 1047 l 457 1047 l 610 767 l 525 767 l 399 967 l 272 767 l 188 767 z "},"ế":{"ha":757,"x_min":64,"x_max":768,"o":"m 424 -12 q 160 83 257 -12 q 64 347 64 179 q 106 540 64 458 q 224 666 149 621 q 399 711 299 711 q 561 670 494 711 q 663 554 628 629 q 697 376 697 479 l 697 335 l 163 335 l 163 410 l 611 410 l 588 392 q 540 560 588 500 q 399 619 492 619 q 242 549 297 619 q 186 358 186 479 l 186 346 q 249 153 186 218 q 425 88 313 88 q 542 106 488 88 q 646 165 596 124 l 688 78 q 570 11 640 35 q 424 -12 500 -12 m 188 763 l 340 988 l 457 988 l 610 763 l 525 763 l 399 910 l 272 763 l 188 763 m 535 907 l 653 1115 l 769 1115 l 613 907 l 535 907 z "},"ệ":{"ha":757,"x_min":64,"x_max":697,"o":"m 424 -12 q 160 83 257 -12 q 64 347 64 179 q 106 540 64 458 q 224 666 149 621 q 399 711 299 711 q 561 670 494 711 q 663 554 628 629 q 697 376 697 479 l 697 335 l 163 335 l 163 410 l 611 410 l 588 392 q 540 560 588 500 q 399 619 492 619 q 242 549 297 619 q 186 358 186 479 l 186 346 q 249 153 186 218 q 425 88 313 88 q 542 106 488 88 q 646 165 596 124 l 688 78 q 570 11 640 35 q 424 -12 500 -12 m 335 -265 l 335 -135 l 471 -135 l 471 -265 l 335 -265 m 188 767 l 340 1047 l 457 1047 l 610 767 l 525 767 l 399 967 l 272 767 l 188 767 z "},"ề":{"ha":757,"x_min":64,"x_max":697,"o":"m 424 -12 q 160 83 257 -12 q 64 347 64 179 q 106 540 64 458 q 224 666 149 621 q 399 711 299 711 q 561 670 494 711 q 663 554 628 629 q 697 376 697 479 l 697 335 l 163 335 l 163 410 l 611 410 l 588 392 q 540 560 588 500 q 399 619 492 619 q 242 549 297 619 q 186 358 186 479 l 186 346 q 249 153 186 218 q 425 88 313 88 q 542 106 488 88 q 646 165 596 124 l 688 78 q 570 11 640 35 q 424 -12 500 -12 m 188 763 l 340 988 l 457 988 l 610 763 l 525 763 l 399 910 l 272 763 l 188 763 m 589 907 l 433 1115 l 550 1115 l 669 907 l 589 907 z "},"ể":{"ha":757,"x_min":64,"x_max":711,"o":"m 424 -12 q 160 83 257 -12 q 64 347 64 179 q 106 540 64 458 q 224 666 149 621 q 399 711 299 711 q 561 670 494 711 q 663 554 628 629 q 697 376 697 479 l 697 335 l 163 335 l 163 410 l 611 410 l 588 392 q 540 560 588 500 q 399 619 492 619 q 242 549 297 619 q 186 358 186 479 l 186 346 q 249 153 186 218 q 425 88 313 88 q 542 106 488 88 q 646 165 596 124 l 688 78 q 570 11 640 35 q 424 -12 500 -12 m 188 763 l 340 988 l 457 988 l 610 763 l 525 763 l 399 910 l 272 763 l 188 763 m 543 907 q 555 953 543 935 q 583 982 567 971 q 610 1005 599 993 q 622 1032 622 1017 q 607 1053 622 1047 q 564 1058 592 1058 q 524 1055 544 1058 q 481 1042 503 1051 l 461 1097 q 517 1115 488 1108 q 585 1121 547 1121 q 679 1101 646 1121 q 713 1049 713 1082 q 698 1006 713 1022 q 665 976 683 989 q 633 947 647 963 q 618 907 618 932 l 543 907 z "},"ễ":{"ha":757,"x_min":64,"x_max":697,"o":"m 424 -12 q 160 83 257 -12 q 64 347 64 179 q 106 540 64 458 q 224 666 149 621 q 399 711 299 711 q 561 670 494 711 q 663 554 628 629 q 697 376 697 479 l 697 335 l 163 335 l 163 410 l 611 410 l 588 392 q 540 560 588 500 q 399 619 492 619 q 242 549 297 619 q 186 358 186 479 l 186 346 q 249 153 186 218 q 425 88 313 88 q 542 106 488 88 q 646 165 596 124 l 688 78 q 570 11 640 35 q 424 -12 500 -12 m 188 763 l 340 946 l 457 946 l 610 763 l 528 763 l 399 876 l 269 763 l 188 763 m 240 981 l 175 983 q 217 1091 181 1056 q 308 1126 253 1126 q 360 1117 336 1126 q 413 1089 383 1107 q 457 1063 442 1068 q 486 1057 472 1057 q 534 1074 518 1057 q 557 1129 550 1092 l 622 1125 q 582 1017 618 1053 q 490 982 546 982 q 438 992 463 982 q 379 1025 413 1003 q 347 1044 364 1035 q 311 1053 329 1053 q 264 1035 281 1053 q 240 981 247 1018 z "},"ȅ":{"ha":757,"x_min":64,"x_max":697,"o":"m 424 -12 q 160 83 257 -12 q 64 347 64 179 q 106 540 64 458 q 224 666 149 621 q 399 711 299 711 q 561 670 494 711 q 663 554 628 629 q 697 376 697 479 l 697 335 l 163 335 l 163 410 l 611 410 l 588 392 q 540 560 588 500 q 399 619 492 619 q 242 549 297 619 q 186 358 186 479 l 186 346 q 249 153 186 218 q 425 88 313 88 q 542 106 488 88 q 646 165 596 124 l 688 78 q 570 11 640 35 q 424 -12 500 -12 m 457 767 l 339 1047 l 454 1047 l 526 767 l 457 767 m 274 767 l 156 1047 l 269 1047 l 343 767 l 274 767 z "},"ë":{"ha":757,"x_min":64,"x_max":697,"o":"m 424 -12 q 160 83 257 -12 q 64 347 64 179 q 106 540 64 458 q 224 666 149 621 q 399 711 299 711 q 561 670 494 711 q 663 554 628 629 q 697 376 697 479 l 697 335 l 163 335 l 163 410 l 611 410 l 588 392 q 540 560 588 500 q 399 619 492 619 q 242 549 297 619 q 186 358 186 479 l 186 346 q 249 153 186 218 q 425 88 313 88 q 542 106 488 88 q 646 165 596 124 l 688 78 q 570 11 640 35 q 424 -12 500 -12 m 457 842 l 457 971 l 586 971 l 586 842 l 457 842 m 211 842 l 211 971 l 340 971 l 340 842 l 211 842 z "},"ė":{"ha":757,"x_min":64,"x_max":697,"o":"m 424 -12 q 160 83 257 -12 q 64 347 64 179 q 106 540 64 458 q 224 666 149 621 q 399 711 299 711 q 561 670 494 711 q 663 554 628 629 q 697 376 697 479 l 697 335 l 163 335 l 163 410 l 611 410 l 588 392 q 540 560 588 500 q 399 619 492 619 q 242 549 297 619 q 186 358 186 479 l 186 346 q 249 153 186 218 q 425 88 313 88 q 542 106 488 88 q 646 165 596 124 l 688 78 q 570 11 640 35 q 424 -12 500 -12 m 331 842 l 331 972 l 467 972 l 467 842 l 331 842 z "},"ẹ":{"ha":757,"x_min":64,"x_max":697,"o":"m 424 -12 q 160 83 257 -12 q 64 347 64 179 q 106 540 64 458 q 224 666 149 621 q 399 711 299 711 q 561 670 494 711 q 663 554 628 629 q 697 376 697 479 l 697 335 l 163 335 l 163 410 l 611 410 l 588 392 q 540 560 588 500 q 399 619 492 619 q 242 549 297 619 q 186 358 186 479 l 186 346 q 249 153 186 218 q 425 88 313 88 q 542 106 488 88 q 646 165 596 124 l 688 78 q 570 11 640 35 q 424 -12 500 -12 m 335 -265 l 335 -135 l 471 -135 l 471 -265 l 335 -265 z "},"è":{"ha":757,"x_min":64,"x_max":697,"o":"m 424 -12 q 160 83 257 -12 q 64 347 64 179 q 106 540 64 458 q 224 666 149 621 q 399 711 299 711 q 561 670 494 711 q 663 554 628 629 q 697 376 697 479 l 697 335 l 163 335 l 163 410 l 611 410 l 588 392 q 540 560 588 500 q 399 619 492 619 q 242 549 297 619 q 186 358 186 479 l 186 346 q 249 153 186 218 q 425 88 313 88 q 542 106 488 88 q 646 165 596 124 l 688 78 q 570 11 640 35 q 424 -12 500 -12 m 354 767 l 168 1047 l 300 1047 l 443 767 l 354 767 z "},"ẻ":{"ha":757,"x_min":64,"x_max":697,"o":"m 424 -12 q 160 83 257 -12 q 64 347 64 179 q 106 540 64 458 q 224 666 149 621 q 399 711 299 711 q 561 670 494 711 q 663 554 628 629 q 697 376 697 479 l 697 335 l 163 335 l 163 410 l 611 410 l 588 392 q 540 560 588 500 q 399 619 492 619 q 242 549 297 619 q 186 358 186 479 l 186 346 q 249 153 186 218 q 425 88 313 88 q 542 106 488 88 q 646 165 596 124 l 688 78 q 570 11 640 35 q 424 -12 500 -12 m 357 767 l 357 796 q 370 847 357 826 q 399 882 383 867 q 428 912 415 897 q 442 946 442 926 q 426 975 442 965 q 379 985 411 985 q 338 980 358 985 q 293 963 317 975 l 272 1025 q 332 1049 299 1042 q 404 1056 365 1056 q 506 1031 469 1056 q 543 960 543 1007 q 527 904 543 925 q 491 868 511 883 q 456 835 471 853 q 440 789 440 817 l 440 767 l 357 767 z "},"ȇ":{"ha":757,"x_min":64,"x_max":697,"o":"m 424 -12 q 160 83 257 -12 q 64 347 64 179 q 106 540 64 458 q 224 666 149 621 q 399 711 299 711 q 561 670 494 711 q 663 554 628 629 q 697 376 697 479 l 697 335 l 163 335 l 163 410 l 611 410 l 588 392 q 540 560 588 500 q 399 619 492 619 q 242 549 297 619 q 186 358 186 479 l 186 346 q 249 153 186 218 q 425 88 313 88 q 542 106 488 88 q 646 165 596 124 l 688 78 q 570 11 640 35 q 424 -12 500 -12 m 257 757 l 181 765 q 212 906 185 847 q 287 998 239 965 q 399 1031 335 1031 q 510 998 463 1031 q 586 906 558 965 q 617 765 614 847 l 540 757 q 498 898 535 849 q 399 947 461 947 q 299 898 336 947 q 257 757 263 849 z "},"ē":{"ha":757,"x_min":64,"x_max":697,"o":"m 424 -12 q 160 83 257 -12 q 64 347 64 179 q 106 540 64 458 q 224 666 149 621 q 399 711 299 711 q 561 670 494 711 q 663 554 628 629 q 697 376 697 479 l 697 335 l 163 335 l 163 410 l 611 410 l 588 392 q 540 560 588 500 q 399 619 492 619 q 242 549 297 619 q 186 358 186 479 l 186 346 q 249 153 186 218 q 425 88 313 88 q 542 106 488 88 q 646 165 596 124 l 688 78 q 570 11 640 35 q 424 -12 500 -12 m 189 865 l 189 947 l 608 947 l 608 865 l 189 865 z "},"ḗ":{"ha":757,"x_min":64,"x_max":697,"o":"m 424 -12 q 160 83 257 -12 q 64 347 64 179 q 106 540 64 458 q 224 666 149 621 q 399 711 299 711 q 561 670 494 711 q 663 554 628 629 q 697 376 697 479 l 697 335 l 163 335 l 163 410 l 611 410 l 588 392 q 540 560 588 500 q 399 619 492 619 q 242 549 297 619 q 186 358 186 479 l 186 346 q 249 153 186 218 q 425 88 313 88 q 542 106 488 88 q 646 165 596 124 l 688 78 q 570 11 640 35 q 424 -12 500 -12 m 189 792 l 189 875 l 608 875 l 608 792 l 189 792 m 357 926 l 472 1119 l 601 1119 l 440 926 l 357 926 z "},"ḕ":{"ha":757,"x_min":64,"x_max":697,"o":"m 424 -12 q 160 83 257 -12 q 64 347 64 179 q 106 540 64 458 q 224 666 149 621 q 399 711 299 711 q 561 670 494 711 q 663 554 628 629 q 697 376 697 479 l 697 335 l 163 335 l 163 410 l 611 410 l 588 392 q 540 560 588 500 q 399 619 492 619 q 242 549 297 619 q 186 358 186 479 l 186 346 q 249 153 186 218 q 425 88 313 88 q 542 106 488 88 q 646 165 596 124 l 688 78 q 570 11 640 35 q 424 -12 500 -12 m 189 792 l 189 875 l 608 875 l 608 792 l 189 792 m 357 926 l 196 1119 l 325 1119 l 440 926 l 357 926 z "},"ę":{"ha":757,"x_min":64,"x_max":697,"o":"m 424 -12 q 160 83 257 -12 q 64 347 64 179 q 106 540 64 458 q 224 666 149 621 q 399 711 299 711 q 561 670 494 711 q 663 554 628 629 q 697 376 697 479 l 697 335 l 163 335 l 163 410 l 611 410 l 588 392 q 540 560 588 500 q 399 619 492 619 q 242 549 297 619 q 186 358 186 479 l 186 346 q 249 153 186 218 q 425 88 313 88 q 542 106 488 88 q 646 165 596 124 l 688 78 q 570 11 640 35 q 424 -12 500 -12 m 490 -268 q 381 -231 422 -268 q 340 -131 340 -193 q 376 -26 340 -75 q 475 51 413 24 l 518 0 q 475 -26 496 -10 q 440 -66 454 -43 q 426 -117 426 -89 q 450 -174 426 -154 q 507 -193 474 -193 q 544 -189 526 -193 q 582 -176 563 -185 l 601 -244 q 553 -262 581 -256 q 490 -268 525 -268 z "},"ẽ":{"ha":757,"x_min":64,"x_max":697,"o":"m 424 -12 q 160 83 257 -12 q 64 347 64 179 q 106 540 64 458 q 224 666 149 621 q 399 711 299 711 q 561 670 494 711 q 663 554 628 629 q 697 376 697 479 l 697 335 l 163 335 l 163 410 l 611 410 l 588 392 q 540 560 588 500 q 399 619 492 619 q 242 549 297 619 q 186 358 186 479 l 186 346 q 249 153 186 218 q 425 88 313 88 q 542 106 488 88 q 646 165 596 124 l 688 78 q 570 11 640 35 q 424 -12 500 -12 m 213 818 l 144 822 q 193 963 151 913 q 297 1013 235 1013 q 353 999 326 1013 q 413 956 379 985 q 460 920 442 931 q 497 910 479 910 q 585 1017 568 910 l 653 1013 q 606 872 647 921 q 501 822 564 822 q 446 836 472 822 q 383 879 419 850 q 338 914 356 904 q 300 924 319 924 q 242 896 263 924 q 213 818 221 868 z "},"ə":{"ha":757,"x_min":61,"x_max":693,"o":"m 358 -12 q 140 75 218 -12 q 61 314 61 163 l 61 363 l 594 363 l 594 286 l 146 286 l 169 307 q 218 140 169 200 q 360 81 267 81 q 516 149 461 81 q 571 332 571 218 l 571 349 q 508 545 571 481 q 328 610 446 610 q 217 592 271 610 q 113 533 163 575 l 75 622 q 192 689 121 667 q 343 711 263 711 q 529 668 451 711 q 650 544 607 625 q 693 351 693 464 q 651 160 693 242 q 535 33 610 79 q 358 -12 460 -12 z "},"f":{"ha":479,"x_min":8,"x_max":494,"o":"m 144 0 l 144 601 l 8 601 l 8 699 l 179 699 l 144 667 l 144 779 q 206 965 144 901 q 383 1028 267 1028 q 442 1024 411 1028 q 494 1010 474 1019 l 494 907 q 453 918 478 914 q 404 922 428 922 q 332 906 363 922 q 286 856 301 889 q 271 771 271 824 l 271 672 l 251 699 l 464 699 l 464 601 l 271 601 l 271 0 l 144 0 z "},"g":{"ha":844,"x_min":64,"x_max":750,"o":"m 417 -311 q 249 -289 325 -311 q 111 -221 172 -267 l 144 -128 q 229 -175 188 -157 q 316 -201 271 -193 q 410 -210 361 -210 q 564 -157 513 -210 q 615 -7 615 -104 l 615 189 l 629 189 q 538 63 607 110 q 376 17 469 17 q 212 59 282 17 q 103 180 142 101 q 64 364 64 258 q 103 549 64 471 q 212 669 142 626 q 376 711 282 711 q 538 665 469 711 q 628 539 606 619 l 615 551 l 628 699 l 750 699 q 742 615 746 657 q 739 533 739 574 l 739 8 q 658 -229 739 -147 q 417 -311 576 -311 m 404 117 q 557 182 500 117 q 614 364 614 247 q 557 546 614 482 q 404 610 500 610 q 249 546 307 610 q 192 364 192 482 q 249 182 192 247 q 404 117 307 117 z "},"ğ":{"ha":844,"x_min":64,"x_max":750,"o":"m 417 -311 q 249 -289 325 -311 q 111 -221 172 -267 l 144 -128 q 229 -175 188 -157 q 316 -201 271 -193 q 410 -210 361 -210 q 564 -157 513 -210 q 615 -7 615 -104 l 615 189 l 629 189 q 538 63 607 110 q 376 17 469 17 q 212 59 282 17 q 103 180 142 101 q 64 364 64 258 q 103 549 64 471 q 212 669 142 626 q 376 711 282 711 q 538 665 469 711 q 628 539 606 619 l 615 551 l 628 699 l 750 699 q 742 615 746 657 q 739 533 739 574 l 739 8 q 658 -229 739 -147 q 417 -311 576 -311 m 404 117 q 557 182 500 117 q 614 364 614 247 q 557 546 614 482 q 404 610 500 610 q 249 546 307 610 q 192 364 192 482 q 249 182 192 247 q 404 117 307 117 m 426 763 q 315 795 363 763 q 240 887 267 828 q 208 1028 213 946 l 285 1036 q 327 895 290 944 q 426 846 364 846 q 526 895 489 846 q 568 1036 563 944 l 644 1028 q 614 887 642 946 q 538 795 586 828 q 426 763 490 763 z "},"ǧ":{"ha":844,"x_min":64,"x_max":750,"o":"m 417 -311 q 249 -289 325 -311 q 111 -221 172 -267 l 144 -128 q 229 -175 188 -157 q 316 -201 271 -193 q 410 -210 361 -210 q 564 -157 513 -210 q 615 -7 615 -104 l 615 189 l 629 189 q 538 63 607 110 q 376 17 469 17 q 212 59 282 17 q 103 180 142 101 q 64 364 64 258 q 103 549 64 471 q 212 669 142 626 q 376 711 282 711 q 538 665 469 711 q 628 539 606 619 l 615 551 l 628 699 l 750 699 q 742 615 746 657 q 739 533 739 574 l 739 8 q 658 -229 739 -147 q 417 -311 576 -311 m 404 117 q 557 182 500 117 q 614 364 614 247 q 557 546 614 482 q 404 610 500 610 q 249 546 307 610 q 192 364 192 482 q 249 182 192 247 q 404 117 307 117 m 368 767 l 215 1047 l 300 1047 l 426 847 l 553 1047 l 638 1047 l 485 767 l 368 767 z "},"ĝ":{"ha":844,"x_min":64,"x_max":750,"o":"m 417 -311 q 249 -289 325 -311 q 111 -221 172 -267 l 144 -128 q 229 -175 188 -157 q 316 -201 271 -193 q 410 -210 361 -210 q 564 -157 513 -210 q 615 -7 615 -104 l 615 189 l 629 189 q 538 63 607 110 q 376 17 469 17 q 212 59 282 17 q 103 180 142 101 q 64 364 64 258 q 103 549 64 471 q 212 669 142 626 q 376 711 282 711 q 538 665 469 711 q 628 539 606 619 l 615 551 l 628 699 l 750 699 q 742 615 746 657 q 739 533 739 574 l 739 8 q 658 -229 739 -147 q 417 -311 576 -311 m 404 117 q 557 182 500 117 q 614 364 614 247 q 557 546 614 482 q 404 610 500 610 q 249 546 307 610 q 192 364 192 482 q 249 182 192 247 q 404 117 307 117 m 215 767 l 368 1047 l 485 1047 l 638 767 l 553 767 l 426 967 l 300 767 l 215 767 z "},"ģ":{"ha":844,"x_min":64,"x_max":750,"o":"m 417 -311 q 249 -289 325 -311 q 111 -221 172 -267 l 144 -128 q 229 -175 188 -157 q 316 -201 271 -193 q 410 -210 361 -210 q 564 -157 513 -210 q 615 -7 615 -104 l 615 189 l 629 189 q 538 63 607 110 q 376 17 469 17 q 212 59 282 17 q 103 180 142 101 q 64 364 64 258 q 103 549 64 471 q 212 669 142 626 q 376 711 282 711 q 538 665 469 711 q 628 539 606 619 l 615 551 l 628 699 l 750 699 q 742 615 746 657 q 739 533 739 574 l 739 8 q 658 -229 739 -147 q 417 -311 576 -311 m 404 117 q 557 182 500 117 q 614 364 614 247 q 557 546 614 482 q 404 610 500 610 q 249 546 307 610 q 192 364 192 482 q 249 182 192 247 q 404 117 307 117 m 353 786 l 353 872 q 370 971 353 925 q 426 1053 388 1017 l 481 1015 q 438 953 449 983 q 428 892 428 924 l 396 907 l 500 907 l 500 786 l 353 786 z "},"ġ":{"ha":844,"x_min":64,"x_max":750,"o":"m 417 -311 q 249 -289 325 -311 q 111 -221 172 -267 l 144 -128 q 229 -175 188 -157 q 316 -201 271 -193 q 410 -210 361 -210 q 564 -157 513 -210 q 615 -7 615 -104 l 615 189 l 629 189 q 538 63 607 110 q 376 17 469 17 q 212 59 282 17 q 103 180 142 101 q 64 364 64 258 q 103 549 64 471 q 212 669 142 626 q 376 711 282 711 q 538 665 469 711 q 628 539 606 619 l 615 551 l 628 699 l 750 699 q 742 615 746 657 q 739 533 739 574 l 739 8 q 658 -229 739 -147 q 417 -311 576 -311 m 404 117 q 557 182 500 117 q 614 364 614 247 q 557 546 614 482 q 404 610 500 610 q 249 546 307 610 q 192 364 192 482 q 249 182 192 247 q 404 117 307 117 m 358 842 l 358 972 l 494 972 l 494 842 l 358 842 z "},"ḡ":{"ha":844,"x_min":64,"x_max":750,"o":"m 417 -311 q 249 -289 325 -311 q 111 -221 172 -267 l 144 -128 q 229 -175 188 -157 q 316 -201 271 -193 q 410 -210 361 -210 q 564 -157 513 -210 q 615 -7 615 -104 l 615 189 l 629 189 q 538 63 607 110 q 376 17 469 17 q 212 59 282 17 q 103 180 142 101 q 64 364 64 258 q 103 549 64 471 q 212 669 142 626 q 376 711 282 711 q 538 665 469 711 q 628 539 606 619 l 615 551 l 628 699 l 750 699 q 742 615 746 657 q 739 533 739 574 l 739 8 q 658 -229 739 -147 q 417 -311 576 -311 m 404 117 q 557 182 500 117 q 614 364 614 247 q 557 546 614 482 q 404 610 500 610 q 249 546 307 610 q 192 364 192 482 q 249 182 192 247 q 404 117 307 117 m 217 865 l 217 947 l 636 947 l 636 865 l 217 865 z "},"ǥ":{"ha":844,"x_min":64,"x_max":833,"o":"m 417 -310 q 248 -288 324 -310 q 110 -221 172 -267 l 143 -126 q 228 -175 186 -156 q 315 -204 269 -194 q 410 -214 361 -214 q 604 -89 568 -214 l 615 -103 l 432 -103 l 432 -36 l 629 -36 l 613 -57 q 615 -35 614 -46 q 615 -14 615 -25 l 615 206 l 629 206 q 538 81 607 126 q 376 36 468 36 q 212 77 282 36 q 103 194 142 118 q 64 374 64 271 q 103 553 64 478 q 212 670 142 629 q 376 711 282 711 q 537 666 468 711 q 628 540 606 621 l 608 539 l 624 699 l 746 699 q 738 615 742 657 q 735 533 735 574 l 738 10 q 738 -21 738 -6 q 735 -50 738 -36 l 721 -36 l 833 -36 l 833 -103 l 713 -103 l 729 -87 q 628 -253 707 -197 q 417 -310 549 -310 m 403 135 q 556 197 500 135 q 613 372 613 260 q 556 548 613 486 q 403 610 500 610 q 249 548 306 610 q 192 372 192 486 q 249 197 192 258 q 403 135 306 135 z "},"h":{"ha":818,"x_min":106,"x_max":717,"o":"m 106 0 l 106 1022 l 232 1022 l 232 547 l 214 547 q 313 669 244 628 q 469 711 381 711 q 656 643 596 711 q 717 438 717 575 l 717 0 l 590 0 l 590 431 q 554 566 590 524 q 436 608 518 608 q 288 551 344 608 q 232 400 232 494 l 232 0 l 106 0 z "},"ħ":{"ha":818,"x_min":-25,"x_max":717,"o":"m 106 0 l 106 804 l -25 804 l -25 897 l 106 897 l 106 1022 l 232 1022 l 232 897 l 508 897 l 508 804 l 232 804 l 232 539 l 214 539 q 313 660 244 618 q 469 703 381 703 q 656 635 594 703 q 717 428 717 567 l 717 0 l 590 0 l 590 421 q 553 557 590 515 q 436 599 517 599 q 288 542 344 599 q 232 392 232 486 l 232 0 l 106 0 z "},"ḫ":{"ha":818,"x_min":106,"x_max":717,"o":"m 106 0 l 106 1022 l 232 1022 l 232 547 l 214 547 q 313 669 244 628 q 469 711 381 711 q 656 643 596 711 q 717 438 717 575 l 717 0 l 590 0 l 590 431 q 554 566 590 524 q 436 608 518 608 q 288 551 344 608 q 232 400 232 494 l 232 0 l 106 0 m 411 -299 q 257 -242 317 -299 q 193 -89 197 -186 l 269 -82 q 312 -182 275 -146 q 411 -218 349 -218 q 510 -182 474 -218 q 553 -82 547 -146 l 629 -89 q 566 -242 625 -186 q 411 -299 507 -299 z "},"ȟ":{"ha":818,"x_min":106,"x_max":717,"o":"m 106 0 l 106 1022 l 232 1022 l 232 547 l 214 547 q 313 669 244 628 q 469 711 381 711 q 656 643 596 711 q 717 438 717 575 l 717 0 l 590 0 l 590 431 q 554 566 590 524 q 436 608 518 608 q 288 551 344 608 q 232 400 232 494 l 232 0 l 106 0 m 357 1075 l 188 1314 l 279 1314 l 415 1154 l 551 1314 l 643 1314 l 474 1075 l 357 1075 z "},"ĥ":{"ha":818,"x_min":106,"x_max":717,"o":"m 106 0 l 106 1022 l 232 1022 l 232 547 l 214 547 q 313 669 244 628 q 469 711 381 711 q 656 643 596 711 q 717 438 717 575 l 717 0 l 590 0 l 590 431 q 554 566 590 524 q 436 608 518 608 q 288 551 344 608 q 232 400 232 494 l 232 0 l 106 0 m 188 1075 l 357 1314 l 474 1314 l 643 1075 l 551 1075 l 415 1235 l 279 1075 l 188 1075 z "},"ḥ":{"ha":818,"x_min":106,"x_max":717,"o":"m 106 0 l 106 1022 l 232 1022 l 232 547 l 214 547 q 313 669 244 628 q 469 711 381 711 q 656 643 596 711 q 717 438 717 575 l 717 0 l 590 0 l 590 431 q 554 566 590 524 q 436 608 518 608 q 288 551 344 608 q 232 400 232 494 l 232 0 l 106 0 m 343 -265 l 343 -135 l 479 -135 l 479 -265 l 343 -265 z "},"i":{"ha":338,"x_min":94,"x_max":244,"o":"m 106 0 l 106 699 l 232 699 l 232 0 l 106 0 m 94 851 l 94 988 l 244 988 l 244 851 l 94 851 z "},"ı":{"ha":338,"x_min":106,"x_max":232,"o":"m 106 0 l 106 699 l 232 699 l 232 0 l 106 0 z "},"í":{"ha":338,"x_min":106,"x_max":400,"o":"m 106 0 l 106 699 l 232 699 l 232 0 l 106 0 m 125 767 l 268 1047 l 400 1047 l 214 767 l 125 767 z "},"ĭ":{"ha":338,"x_min":-49,"x_max":388,"o":"m 106 0 l 106 699 l 232 699 l 232 0 l 106 0 m 169 763 q 58 795 106 763 q -17 887 10 828 q -49 1028 -44 946 l 28 1036 q 70 895 33 944 q 169 846 107 846 q 269 895 232 846 q 311 1036 306 944 l 388 1028 q 357 887 385 946 q 281 795 329 828 q 169 763 233 763 z "},"î":{"ha":338,"x_min":-42,"x_max":381,"o":"m 106 0 l 106 699 l 232 699 l 232 0 l 106 0 m -42 767 l 111 1047 l 228 1047 l 381 767 l 296 767 l 169 967 l 43 767 l -42 767 z "},"ȉ":{"ha":338,"x_min":-74,"x_max":297,"o":"m 106 0 l 106 699 l 232 699 l 232 0 l 106 0 m 228 767 l 110 1047 l 225 1047 l 297 767 l 228 767 m 44 767 l -74 1047 l 40 1047 l 114 767 l 44 767 z "},"ï":{"ha":338,"x_min":-18,"x_max":357,"o":"m 106 0 l 106 699 l 232 699 l 232 0 l 106 0 m 228 842 l 228 971 l 357 971 l 357 842 l 228 842 m -18 842 l -18 971 l 111 971 l 111 842 l -18 842 z "},"ḯ":{"ha":338,"x_min":-18,"x_max":372,"o":"m 106 0 l 106 699 l 232 699 l 232 0 l 106 0 m 128 926 l 243 1119 l 372 1119 l 211 926 l 128 926 m -18 767 l -18 874 l 111 874 l 111 767 l -18 767 m 228 767 l 228 874 l 357 874 l 357 767 l 228 767 z "},"ị":{"ha":338,"x_min":94,"x_max":244,"o":"m 106 0 l 106 699 l 232 699 l 232 0 l 106 0 m 94 851 l 94 988 l 244 988 l 244 851 l 94 851 m 107 -265 l 107 -135 l 243 -135 l 243 -265 l 107 -265 z "},"ì":{"ha":338,"x_min":-61,"x_max":232,"o":"m 106 0 l 106 699 l 232 699 l 232 0 l 106 0 m 125 767 l -61 1047 l 71 1047 l 214 767 l 125 767 z "},"ỉ":{"ha":338,"x_min":43,"x_max":314,"o":"m 106 0 l 106 699 l 232 699 l 232 0 l 106 0 m 128 767 l 128 796 q 141 847 128 826 q 170 882 154 867 q 199 912 186 897 q 213 946 213 926 q 197 975 213 965 q 150 985 182 985 q 108 980 129 985 q 64 963 88 975 l 43 1025 q 103 1049 69 1042 q 175 1056 136 1056 q 277 1031 240 1056 q 314 960 314 1007 q 298 904 314 925 q 262 868 282 883 q 226 835 242 853 q 211 789 211 817 l 211 767 l 128 767 z "},"ȋ":{"ha":338,"x_min":-49,"x_max":388,"o":"m 106 0 l 106 699 l 232 699 l 232 0 l 106 0 m 28 757 l -49 765 q -17 906 -44 847 q 58 998 10 965 q 169 1031 106 1031 q 281 998 233 1031 q 357 906 329 965 q 388 765 385 847 l 311 757 q 269 898 306 849 q 169 947 232 947 q 70 898 107 947 q 28 757 33 849 z "},"ī":{"ha":338,"x_min":-40,"x_max":379,"o":"m 106 0 l 106 699 l 232 699 l 232 0 l 106 0 m -40 865 l -40 947 l 379 947 l 379 865 l -40 865 z "},"į":{"ha":338,"x_min":35,"x_max":296,"o":"m 106 0 l 106 699 l 232 699 l 232 0 l 106 0 m 94 839 l 94 975 l 244 975 l 244 839 l 94 839 m 185 -268 q 76 -231 117 -268 q 35 -131 35 -193 q 71 -26 35 -75 q 169 51 107 24 l 213 0 q 169 -26 190 -10 q 135 -66 149 -43 q 121 -117 121 -89 q 144 -174 121 -154 q 201 -193 168 -193 q 239 -189 221 -193 q 276 -176 257 -185 l 296 -244 q 247 -262 275 -256 q 185 -268 219 -268 z "},"ĩ":{"ha":338,"x_min":-85,"x_max":424,"o":"m 106 0 l 106 699 l 232 699 l 232 0 l 106 0 m -17 818 l -85 822 q -36 963 -78 913 q 68 1013 6 1013 q 124 999 97 1013 q 183 956 150 985 q 231 920 213 931 q 268 910 250 910 q 356 1017 339 910 l 424 1013 q 376 872 418 921 q 272 822 335 822 q 217 836 243 822 q 154 879 190 850 q 108 914 126 904 q 71 924 90 924 q 13 896 33 924 q -17 818 -8 868 z "},"j":{"ha":338,"x_min":-81,"x_max":250,"o":"m 19 -306 q -31 -301 -1 -306 q -81 -289 -61 -297 l -81 -185 q -42 -195 -64 -190 q -1 -200 -19 -200 q 84 -165 56 -200 q 113 -49 113 -129 l 113 699 l 239 699 l 239 -60 q 185 -243 239 -181 q 19 -306 131 -306 m 100 851 l 100 988 l 250 988 l 250 851 l 100 851 z "},"ȷ":{"ha":338,"x_min":-79,"x_max":240,"o":"m 21 -306 q -30 -301 0 -306 q -79 -289 -60 -297 l -79 -185 q -41 -195 -62 -190 q 0 -200 -19 -200 q 85 -165 56 -200 q 114 -49 114 -129 l 114 699 l 240 699 l 240 -60 q 186 -243 240 -181 q 21 -306 132 -306 z "},"ĵ":{"ha":338,"x_min":-79,"x_max":388,"o":"m 21 -306 q -30 -301 0 -306 q -79 -289 -60 -297 l -79 -185 q -41 -195 -62 -190 q 0 -200 -19 -200 q 85 -165 56 -200 q 114 -49 114 -129 l 114 699 l 240 699 l 240 -60 q 186 -243 240 -181 q 21 -306 132 -306 m -35 767 l 118 1047 l 235 1047 l 388 767 l 303 767 l 176 967 l 50 767 l -35 767 z "},"k":{"ha":726,"x_min":106,"x_max":740,"o":"m 106 0 l 106 1022 l 232 1022 l 232 390 l 235 390 l 550 699 l 707 699 l 332 332 l 333 392 l 740 0 l 579 0 l 235 325 l 232 325 l 232 0 l 106 0 z "},"ǩ":{"ha":726,"x_min":106,"x_max":740,"o":"m 106 0 l 106 1022 l 232 1022 l 232 390 l 235 390 l 550 699 l 707 699 l 332 332 l 333 392 l 740 0 l 579 0 l 235 325 l 232 325 l 232 0 l 106 0 m 313 1075 l 143 1314 l 235 1314 l 371 1154 l 507 1314 l 599 1314 l 429 1075 l 313 1075 z "},"ķ":{"ha":726,"x_min":106,"x_max":740,"o":"m 106 0 l 106 1022 l 232 1022 l 232 390 l 235 390 l 550 699 l 707 699 l 332 332 l 333 392 l 740 0 l 579 0 l 235 325 l 232 325 l 232 0 l 106 0 m 363 -375 l 308 -337 q 351 -275 340 -304 q 361 -212 361 -246 l 392 -229 l 289 -229 l 289 -108 l 436 -108 l 436 -194 q 419 -293 436 -247 q 363 -375 401 -339 z "},"ĸ":{"ha":726,"x_min":106,"x_max":740,"o":"m 106 0 l 106 699 l 232 699 l 232 390 l 235 390 l 550 699 l 707 699 l 332 332 l 333 392 l 740 0 l 579 0 l 235 325 l 232 325 l 232 0 l 106 0 z "},"l":{"ha":338,"x_min":106,"x_max":232,"o":"m 106 0 l 106 1022 l 232 1022 l 232 0 l 106 0 z "},"ĺ":{"ha":338,"x_min":106,"x_max":425,"o":"m 106 0 l 106 1022 l 232 1022 l 232 0 l 106 0 m 122 1075 l 286 1314 l 425 1314 l 217 1075 l 122 1075 z "},"ľ":{"ha":338,"x_min":106,"x_max":393,"o":"m 106 0 l 106 1022 l 232 1022 l 232 0 l 106 0 m 296 758 l 296 1022 l 393 1022 l 358 758 l 296 758 z "},"ļ":{"ha":338,"x_min":96,"x_max":243,"o":"m 106 0 l 106 1022 l 232 1022 l 232 0 l 106 0 m 169 -375 l 115 -337 q 158 -275 147 -304 q 168 -212 168 -246 l 199 -229 l 96 -229 l 96 -108 l 243 -108 l 243 -194 q 226 -293 243 -247 q 169 -375 208 -339 z "},"ŀ":{"ha":338,"x_min":106,"x_max":460,"o":"m 106 0 l 106 1022 l 232 1022 l 232 0 l 106 0 m 306 424 l 306 563 l 460 563 l 460 424 l 306 424 z "},"ḷ":{"ha":338,"x_min":101,"x_max":238,"o":"m 106 0 l 106 1022 l 232 1022 l 232 0 l 106 0 m 101 -265 l 101 -135 l 238 -135 l 238 -265 l 101 -265 z "},"ǉ":{"ha":675,"x_min":106,"x_max":589,"o":"m 106 0 l 106 1022 l 232 1022 l 232 0 l 106 0 m 357 -306 q 306 -301 336 -306 q 257 -289 276 -297 l 257 -185 q 296 -195 274 -190 q 336 -200 318 -200 q 422 -165 393 -200 q 450 -49 450 -129 l 450 699 l 576 699 l 576 -60 q 522 -243 576 -181 q 357 -306 468 -306 m 438 851 l 438 988 l 588 988 l 588 851 l 438 851 z "},"ḻ":{"ha":338,"x_min":-40,"x_max":379,"o":"m 106 0 l 106 1022 l 232 1022 l 232 0 l 106 0 m -40 -219 l -40 -137 l 379 -137 l 379 -219 l -40 -219 z "},"ł":{"ha":338,"x_min":-46,"x_max":385,"o":"m 106 0 l 106 1022 l 232 1022 l 232 0 l 106 0 m 6 351 l -46 439 l 333 658 l 385 571 l 6 351 z "},"m":{"ha":1226,"x_min":94,"x_max":1125,"o":"m 106 0 l 106 533 q 103 615 106 574 q 94 699 100 657 l 217 699 l 231 549 l 214 549 q 303 669 242 626 q 449 711 364 711 q 590 670 535 711 q 665 542 646 629 l 644 542 q 738 665 671 619 q 893 711 804 711 q 1067 644 1008 711 q 1125 435 1125 576 l 1125 0 l 999 0 l 999 428 q 965 566 999 524 q 860 608 932 608 q 726 551 775 608 q 678 394 678 493 l 678 0 l 551 0 l 551 428 q 519 566 551 524 q 413 608 486 608 q 280 551 328 608 q 232 394 232 493 l 232 0 l 106 0 z "},"ṃ":{"ha":1226,"x_min":94,"x_max":1125,"o":"m 106 0 l 106 533 q 103 615 106 574 q 94 699 100 657 l 217 699 l 231 549 l 214 549 q 303 669 242 626 q 449 711 364 711 q 590 670 535 711 q 665 542 646 629 l 644 542 q 738 665 671 619 q 893 711 804 711 q 1067 644 1008 711 q 1125 435 1125 576 l 1125 0 l 999 0 l 999 428 q 965 566 999 524 q 860 608 932 608 q 726 551 775 608 q 678 394 678 493 l 678 0 l 551 0 l 551 428 q 519 566 551 524 q 413 608 486 608 q 280 551 328 608 q 232 394 232 493 l 232 0 l 106 0 m 546 -265 l 546 -135 l 682 -135 l 682 -265 l 546 -265 z "},"n":{"ha":818,"x_min":94,"x_max":717,"o":"m 106 0 l 106 533 q 103 615 106 574 q 94 699 100 657 l 217 699 l 231 549 l 214 549 q 313 669 246 628 q 468 711 379 711 q 654 644 592 711 q 717 435 717 576 l 717 0 l 590 0 l 590 428 q 553 566 590 524 q 436 608 515 608 q 287 551 342 608 q 232 397 232 494 l 232 0 l 106 0 z "},"ń":{"ha":818,"x_min":94,"x_max":717,"o":"m 106 0 l 106 533 q 103 615 106 574 q 94 699 100 657 l 217 699 l 231 549 l 214 549 q 313 669 246 628 q 468 711 379 711 q 654 644 592 711 q 717 435 717 576 l 717 0 l 590 0 l 590 428 q 553 566 590 524 q 436 608 515 608 q 287 551 342 608 q 232 397 232 494 l 232 0 l 106 0 m 365 767 l 508 1047 l 640 1047 l 454 767 l 365 767 z "},"ŉ":{"ha":942,"x_min":94,"x_max":840,"o":"m 168 792 l 115 829 q 155 888 146 860 q 164 943 164 915 l 199 928 l 93 928 l 93 1053 l 239 1053 l 239 967 q 224 874 239 917 q 168 792 210 831 m 228 0 l 228 533 q 225 615 228 574 q 217 699 222 657 l 339 699 l 353 549 l 336 549 q 435 669 368 628 q 590 711 501 711 q 776 644 714 711 q 839 435 839 576 l 839 0 l 713 0 l 713 428 q 675 566 713 524 q 558 608 638 608 q 409 551 464 608 q 354 397 354 494 l 354 0 l 228 0 z "},"ň":{"ha":818,"x_min":94,"x_max":717,"o":"m 106 0 l 106 533 q 103 615 106 574 q 94 699 100 657 l 217 699 l 231 549 l 214 549 q 313 669 246 628 q 468 711 379 711 q 654 644 592 711 q 717 435 717 576 l 717 0 l 590 0 l 590 428 q 553 566 590 524 q 436 608 515 608 q 287 551 342 608 q 232 397 232 494 l 232 0 l 106 0 m 351 767 l 199 1047 l 283 1047 l 410 847 l 536 1047 l 621 1047 l 468 767 l 351 767 z "},"ņ":{"ha":818,"x_min":94,"x_max":717,"o":"m 106 0 l 106 533 q 103 615 106 574 q 94 699 100 657 l 217 699 l 231 549 l 214 549 q 313 669 246 628 q 468 711 379 711 q 654 644 592 711 q 717 435 717 576 l 717 0 l 590 0 l 590 428 q 553 566 590 524 q 436 608 515 608 q 287 551 342 608 q 232 397 232 494 l 232 0 l 106 0 m 410 -375 l 356 -337 q 398 -275 388 -304 q 408 -212 408 -246 l 439 -229 l 336 -229 l 336 -108 l 483 -108 l 483 -194 q 466 -293 483 -247 q 410 -375 449 -339 z "},"ṅ":{"ha":818,"x_min":94,"x_max":717,"o":"m 106 0 l 106 533 q 103 615 106 574 q 94 699 100 657 l 217 699 l 231 549 l 214 549 q 313 669 246 628 q 468 711 379 711 q 654 644 592 711 q 717 435 717 576 l 717 0 l 590 0 l 590 428 q 553 566 590 524 q 436 608 515 608 q 287 551 342 608 q 232 397 232 494 l 232 0 l 106 0 m 342 842 l 342 972 l 478 972 l 478 842 l 342 842 z "},"ṇ":{"ha":818,"x_min":94,"x_max":717,"o":"m 106 0 l 106 533 q 103 615 106 574 q 94 699 100 657 l 217 699 l 231 549 l 214 549 q 313 669 246 628 q 468 711 379 711 q 654 644 592 711 q 717 435 717 576 l 717 0 l 590 0 l 590 428 q 553 566 590 524 q 436 608 515 608 q 287 551 342 608 q 232 397 232 494 l 232 0 l 106 0 m 342 -265 l 342 -135 l 478 -135 l 478 -265 l 342 -265 z "},"ŋ":{"ha":818,"x_min":94,"x_max":717,"o":"m 106 0 l 106 533 q 103 615 106 574 q 94 699 100 657 l 217 699 l 231 549 l 214 549 q 313 669 246 628 q 468 711 381 711 q 654 644 592 711 q 717 435 717 576 l 717 -54 q 659 -240 717 -175 q 483 -306 601 -306 q 431 -301 457 -306 q 383 -289 404 -297 l 383 -185 q 419 -195 401 -190 q 463 -200 438 -200 q 558 -162 525 -200 q 590 -43 590 -124 l 590 428 q 553 566 590 524 q 438 608 517 608 q 288 551 343 608 q 232 397 232 494 l 232 0 l 106 0 z "},"ǌ":{"ha":1156,"x_min":94,"x_max":1069,"o":"m 106 0 l 106 533 q 103 615 106 574 q 94 699 100 657 l 217 699 l 231 549 l 214 549 q 313 669 246 628 q 468 711 379 711 q 654 644 592 711 q 717 435 717 576 l 717 0 l 590 0 l 590 428 q 553 566 590 524 q 436 608 515 608 q 287 551 342 608 q 232 397 232 494 l 232 0 l 106 0 m 838 -306 q 787 -301 817 -306 q 738 -289 757 -297 l 738 -185 q 776 -195 754 -190 q 817 -200 799 -200 q 902 -165 874 -200 q 931 -49 931 -129 l 931 699 l 1057 699 l 1057 -60 q 1003 -243 1057 -181 q 838 -306 949 -306 m 918 851 l 918 988 l 1068 988 l 1068 851 l 918 851 z "},"ṉ":{"ha":818,"x_min":94,"x_max":717,"o":"m 106 0 l 106 533 q 103 615 106 574 q 94 699 100 657 l 217 699 l 231 549 l 214 549 q 313 669 246 628 q 468 711 379 711 q 654 644 592 711 q 717 435 717 576 l 717 0 l 590 0 l 590 428 q 553 566 590 524 q 436 608 515 608 q 287 551 342 608 q 232 397 232 494 l 232 0 l 106 0 m 200 -219 l 200 -137 l 619 -137 l 619 -219 l 200 -219 z "},"ñ":{"ha":818,"x_min":94,"x_max":717,"o":"m 106 0 l 106 533 q 103 615 106 574 q 94 699 100 657 l 217 699 l 231 549 l 214 549 q 313 669 246 628 q 468 711 379 711 q 654 644 592 711 q 717 435 717 576 l 717 0 l 590 0 l 590 428 q 553 566 590 524 q 436 608 515 608 q 287 551 342 608 q 232 397 232 494 l 232 0 l 106 0 m 224 818 l 156 822 q 204 963 163 913 q 308 1013 246 1013 q 364 999 338 1013 q 424 956 390 985 q 472 920 453 931 q 508 910 490 910 q 596 1017 579 910 l 664 1013 q 617 872 658 921 q 513 822 575 822 q 457 836 483 822 q 394 879 431 850 q 349 914 367 904 q 311 924 331 924 q 253 896 274 924 q 224 818 232 868 z "},"o":{"ha":800,"x_min":64,"x_max":736,"o":"m 400 -12 q 222 31 297 -12 q 106 156 147 75 q 64 350 64 238 q 106 542 64 461 q 222 667 147 624 q 400 711 297 711 q 578 667 503 711 q 695 542 654 624 q 736 350 736 461 q 695 156 736 238 q 578 31 654 75 q 400 -12 503 -12 m 400 88 q 551 154 494 88 q 608 350 608 221 q 551 544 608 479 q 400 610 494 610 q 248 544 304 610 q 192 350 192 479 q 248 154 192 221 q 400 88 304 88 z "},"ó":{"ha":800,"x_min":64,"x_max":736,"o":"m 400 -12 q 222 31 297 -12 q 106 156 147 75 q 64 350 64 238 q 106 542 64 461 q 222 667 147 624 q 400 711 297 711 q 578 667 503 711 q 695 542 654 624 q 736 350 736 461 q 695 156 736 238 q 578 31 654 75 q 400 -12 503 -12 m 400 88 q 551 154 494 88 q 608 350 608 221 q 551 544 608 479 q 400 610 494 610 q 248 544 304 610 q 192 350 192 479 q 248 154 192 221 q 400 88 304 88 m 357 767 l 500 1047 l 632 1047 l 446 767 l 357 767 z "},"ŏ":{"ha":800,"x_min":64,"x_max":736,"o":"m 400 -12 q 222 31 297 -12 q 106 156 147 75 q 64 350 64 238 q 106 542 64 461 q 222 667 147 624 q 400 711 297 711 q 578 667 503 711 q 695 542 654 624 q 736 350 736 461 q 695 156 736 238 q 578 31 654 75 q 400 -12 503 -12 m 400 88 q 551 154 494 88 q 608 350 608 221 q 551 544 608 479 q 400 610 494 610 q 248 544 304 610 q 192 350 192 479 q 248 154 192 221 q 400 88 304 88 m 401 763 q 290 795 338 763 q 215 887 242 828 q 183 1028 188 946 l 260 1036 q 302 895 265 944 q 401 846 339 846 q 501 895 464 846 q 543 1036 538 944 l 619 1028 q 589 887 617 946 q 513 795 561 828 q 401 763 465 763 z "},"ô":{"ha":800,"x_min":64,"x_max":736,"o":"m 400 -12 q 222 31 297 -12 q 106 156 147 75 q 64 350 64 238 q 106 542 64 461 q 222 667 147 624 q 400 711 297 711 q 578 667 503 711 q 695 542 654 624 q 736 350 736 461 q 695 156 736 238 q 578 31 654 75 q 400 -12 503 -12 m 400 88 q 551 154 494 88 q 608 350 608 221 q 551 544 608 479 q 400 610 494 610 q 248 544 304 610 q 192 350 192 479 q 248 154 192 221 q 400 88 304 88 m 190 767 l 343 1047 l 460 1047 l 613 767 l 528 767 l 401 967 l 275 767 l 190 767 z "},"ố":{"ha":800,"x_min":64,"x_max":771,"o":"m 400 -12 q 222 31 297 -12 q 106 156 147 75 q 64 350 64 238 q 106 542 64 461 q 222 667 147 624 q 400 711 297 711 q 578 667 503 711 q 695 542 654 624 q 736 350 736 461 q 695 156 736 238 q 578 31 654 75 q 400 -12 503 -12 m 400 88 q 551 154 494 88 q 608 350 608 221 q 551 544 608 479 q 400 610 494 610 q 248 544 304 610 q 192 350 192 479 q 248 154 192 221 q 400 88 304 88 m 190 763 l 343 988 l 460 988 l 613 763 l 528 763 l 401 910 l 275 763 l 190 763 m 538 907 l 656 1115 l 772 1115 l 615 907 l 538 907 z "},"ộ":{"ha":800,"x_min":64,"x_max":736,"o":"m 400 -12 q 222 31 297 -12 q 106 156 147 75 q 64 350 64 238 q 106 542 64 461 q 222 667 147 624 q 400 711 297 711 q 578 667 503 711 q 695 542 654 624 q 736 350 736 461 q 695 156 736 238 q 578 31 654 75 q 400 -12 503 -12 m 400 88 q 551 154 494 88 q 608 350 608 221 q 551 544 608 479 q 400 610 494 610 q 248 544 304 610 q 192 350 192 479 q 248 154 192 221 q 400 88 304 88 m 333 -265 l 333 -135 l 469 -135 l 469 -265 l 333 -265 m 190 767 l 343 1047 l 460 1047 l 613 767 l 528 767 l 401 967 l 275 767 l 190 767 z "},"ồ":{"ha":800,"x_min":64,"x_max":736,"o":"m 400 -12 q 222 31 297 -12 q 106 156 147 75 q 64 350 64 238 q 106 542 64 461 q 222 667 147 624 q 400 711 297 711 q 578 667 503 711 q 695 542 654 624 q 736 350 736 461 q 695 156 736 238 q 578 31 654 75 q 400 -12 503 -12 m 400 88 q 551 154 494 88 q 608 350 608 221 q 551 544 608 479 q 400 610 494 610 q 248 544 304 610 q 192 350 192 479 q 248 154 192 221 q 400 88 304 88 m 190 763 l 343 988 l 460 988 l 613 763 l 528 763 l 401 910 l 275 763 l 190 763 m 592 907 l 436 1115 l 553 1115 l 672 907 l 592 907 z "},"ổ":{"ha":800,"x_min":64,"x_max":736,"o":"m 400 -12 q 222 31 297 -12 q 106 156 147 75 q 64 350 64 238 q 106 542 64 461 q 222 667 147 624 q 400 711 297 711 q 578 667 503 711 q 695 542 654 624 q 736 350 736 461 q 695 156 736 238 q 578 31 654 75 q 400 -12 503 -12 m 400 88 q 551 154 494 88 q 608 350 608 221 q 551 544 608 479 q 400 610 494 610 q 248 544 304 610 q 192 350 192 479 q 248 154 192 221 q 400 88 304 88 m 190 763 l 343 988 l 460 988 l 613 763 l 528 763 l 401 910 l 275 763 l 190 763 m 546 907 q 558 953 546 935 q 585 982 569 971 q 613 1005 601 993 q 625 1032 625 1017 q 610 1053 625 1047 q 567 1058 594 1058 q 526 1055 547 1058 q 483 1042 506 1051 l 464 1097 q 520 1115 490 1108 q 588 1121 550 1121 q 682 1101 649 1121 q 715 1049 715 1082 q 701 1006 715 1022 q 668 976 686 989 q 635 947 650 963 q 621 907 621 932 l 546 907 z "},"ỗ":{"ha":800,"x_min":64,"x_max":736,"o":"m 400 -12 q 222 31 297 -12 q 106 156 147 75 q 64 350 64 238 q 106 542 64 461 q 222 667 147 624 q 400 711 297 711 q 578 667 503 711 q 695 542 654 624 q 736 350 736 461 q 695 156 736 238 q 578 31 654 75 q 400 -12 503 -12 m 400 88 q 551 154 494 88 q 608 350 608 221 q 551 544 608 479 q 400 610 494 610 q 248 544 304 610 q 192 350 192 479 q 248 154 192 221 q 400 88 304 88 m 190 763 l 343 946 l 460 946 l 613 763 l 531 763 l 401 876 l 272 763 l 190 763 m 243 981 l 178 983 q 219 1091 183 1056 q 311 1126 256 1126 q 363 1117 339 1126 q 415 1089 386 1107 q 460 1063 444 1068 q 489 1057 475 1057 q 537 1074 521 1057 q 560 1129 553 1092 l 625 1125 q 585 1017 621 1053 q 493 982 549 982 q 440 992 465 982 q 382 1025 415 1003 q 349 1044 367 1035 q 314 1053 332 1053 q 267 1035 283 1053 q 243 981 250 1018 z "},"ȍ":{"ha":800,"x_min":64,"x_max":736,"o":"m 400 -12 q 222 31 297 -12 q 106 156 147 75 q 64 350 64 238 q 106 542 64 461 q 222 667 147 624 q 400 711 297 711 q 578 667 503 711 q 695 542 654 624 q 736 350 736 461 q 695 156 736 238 q 578 31 654 75 q 400 -12 503 -12 m 400 88 q 551 154 494 88 q 608 350 608 221 q 551 544 608 479 q 400 610 494 610 q 248 544 304 610 q 192 350 192 479 q 248 154 192 221 q 400 88 304 88 m 460 767 l 342 1047 l 457 1047 l 529 767 l 460 767 m 276 767 l 158 1047 l 272 1047 l 346 767 l 276 767 z "},"ö":{"ha":800,"x_min":64,"x_max":736,"o":"m 400 -12 q 222 31 297 -12 q 106 156 147 75 q 64 350 64 238 q 106 542 64 461 q 222 667 147 624 q 400 711 297 711 q 578 667 503 711 q 695 542 654 624 q 736 350 736 461 q 695 156 736 238 q 578 31 654 75 q 400 -12 503 -12 m 400 88 q 551 154 494 88 q 608 350 608 221 q 551 544 608 479 q 400 610 494 610 q 248 544 304 610 q 192 350 192 479 q 248 154 192 221 q 400 88 304 88 m 460 842 l 460 971 l 589 971 l 589 842 l 460 842 m 214 842 l 214 971 l 343 971 l 343 842 l 214 842 z "},"ȫ":{"ha":800,"x_min":64,"x_max":736,"o":"m 400 -12 q 222 31 297 -12 q 106 156 147 75 q 64 350 64 238 q 106 542 64 461 q 222 667 147 624 q 400 711 297 711 q 578 667 503 711 q 695 542 654 624 q 736 350 736 461 q 695 156 736 238 q 578 31 654 75 q 400 -12 503 -12 m 400 88 q 551 154 494 88 q 608 350 608 221 q 551 544 608 479 q 400 610 494 610 q 248 544 304 610 q 192 350 192 479 q 248 154 192 221 q 400 88 304 88 m 192 982 l 192 1064 l 611 1064 l 611 982 l 192 982 m 214 801 l 214 907 l 343 907 l 343 801 l 214 801 m 460 801 l 460 907 l 589 907 l 589 801 l 460 801 z "},"ȱ":{"ha":800,"x_min":64,"x_max":736,"o":"m 400 -12 q 222 31 297 -12 q 106 156 147 75 q 64 350 64 238 q 106 542 64 461 q 222 667 147 624 q 400 711 297 711 q 578 667 503 711 q 695 542 654 624 q 736 350 736 461 q 695 156 736 238 q 578 31 654 75 q 400 -12 503 -12 m 400 88 q 551 154 494 88 q 608 350 608 221 q 551 544 608 479 q 400 610 494 610 q 248 544 304 610 q 192 350 192 479 q 248 154 192 221 q 400 88 304 88 m 192 982 l 192 1064 l 611 1064 l 611 982 l 192 982 m 338 801 l 338 907 l 467 907 l 467 801 l 338 801 z "},"ọ":{"ha":800,"x_min":64,"x_max":736,"o":"m 400 -12 q 222 31 297 -12 q 106 156 147 75 q 64 350 64 238 q 106 542 64 461 q 222 667 147 624 q 400 711 297 711 q 578 667 503 711 q 695 542 654 624 q 736 350 736 461 q 695 156 736 238 q 578 31 654 75 q 400 -12 503 -12 m 400 88 q 551 154 494 88 q 608 350 608 221 q 551 544 608 479 q 400 610 494 610 q 248 544 304 610 q 192 350 192 479 q 248 154 192 221 q 400 88 304 88 m 333 -265 l 333 -135 l 469 -135 l 469 -265 l 333 -265 z "},"ò":{"ha":800,"x_min":64,"x_max":736,"o":"m 400 -12 q 222 31 297 -12 q 106 156 147 75 q 64 350 64 238 q 106 542 64 461 q 222 667 147 624 q 400 711 297 711 q 578 667 503 711 q 695 542 654 624 q 736 350 736 461 q 695 156 736 238 q 578 31 654 75 q 400 -12 503 -12 m 400 88 q 551 154 494 88 q 608 350 608 221 q 551 544 608 479 q 400 610 494 610 q 248 544 304 610 q 192 350 192 479 q 248 154 192 221 q 400 88 304 88 m 357 767 l 171 1047 l 303 1047 l 446 767 l 357 767 z "},"ỏ":{"ha":800,"x_min":64,"x_max":736,"o":"m 400 -12 q 222 31 297 -12 q 106 156 147 75 q 64 350 64 238 q 106 542 64 461 q 222 667 147 624 q 400 711 297 711 q 578 667 503 711 q 695 542 654 624 q 736 350 736 461 q 695 156 736 238 q 578 31 654 75 q 400 -12 503 -12 m 400 88 q 551 154 494 88 q 608 350 608 221 q 551 544 608 479 q 400 610 494 610 q 248 544 304 610 q 192 350 192 479 q 248 154 192 221 q 400 88 304 88 m 360 767 l 360 796 q 373 847 360 826 q 402 882 386 867 q 431 912 418 897 q 444 946 444 926 q 429 975 444 965 q 382 985 414 985 q 340 980 361 985 q 296 963 319 975 l 275 1025 q 335 1049 301 1042 q 407 1056 368 1056 q 509 1031 472 1056 q 546 960 546 1007 q 530 904 546 925 q 494 868 514 883 q 458 835 474 853 q 443 789 443 817 l 443 767 l 360 767 z "},"ơ":{"ha":800,"x_min":64,"x_max":736,"o":"m 400 -12 q 222 31 297 -12 q 106 156 147 75 q 64 350 64 238 q 106 542 64 461 q 222 667 147 624 q 400 711 297 711 q 578 667 503 711 q 695 542 654 624 q 736 350 736 461 q 695 156 736 238 q 578 31 654 75 q 400 -12 503 -12 m 400 88 q 551 154 494 88 q 608 350 608 221 q 551 544 608 479 q 400 610 494 610 q 248 544 304 610 q 192 350 192 479 q 248 154 192 221 q 400 88 304 88 m 540 625 l 472 668 l 472 699 q 562 715 529 700 q 608 765 594 731 q 622 854 622 800 l 622 878 l 733 878 l 733 836 q 710 728 733 774 q 644 656 688 683 q 540 625 601 629 z "},"ớ":{"ha":800,"x_min":64,"x_max":736,"o":"m 400 -12 q 222 31 297 -12 q 106 156 147 75 q 64 350 64 238 q 106 542 64 461 q 222 667 147 624 q 400 711 297 711 q 578 667 503 711 q 695 542 654 624 q 736 350 736 461 q 695 156 736 238 q 578 31 654 75 q 400 -12 503 -12 m 400 88 q 551 154 494 88 q 608 350 608 221 q 551 544 608 479 q 400 610 494 610 q 248 544 304 610 q 192 350 192 479 q 248 154 192 221 q 400 88 304 88 m 540 625 l 472 668 l 472 699 q 562 715 529 700 q 608 765 594 731 q 622 854 622 800 l 622 878 l 733 878 l 733 836 q 710 728 733 774 q 644 656 688 683 q 540 625 601 629 m 347 767 l 490 1047 l 622 1047 l 436 767 l 347 767 z "},"ợ":{"ha":800,"x_min":64,"x_max":736,"o":"m 400 -12 q 222 31 297 -12 q 106 156 147 75 q 64 350 64 238 q 106 542 64 461 q 222 667 147 624 q 400 711 297 711 q 578 667 503 711 q 695 542 654 624 q 736 350 736 461 q 695 156 736 238 q 578 31 654 75 q 400 -12 503 -12 m 400 88 q 551 154 494 88 q 608 350 608 221 q 551 544 608 479 q 400 610 494 610 q 248 544 304 610 q 192 350 192 479 q 248 154 192 221 q 400 88 304 88 m 540 625 l 472 668 l 472 699 q 562 715 529 700 q 608 765 594 731 q 622 854 622 800 l 622 878 l 733 878 l 733 836 q 710 728 733 774 q 644 656 688 683 q 540 625 601 629 m 332 -265 l 332 -135 l 468 -135 l 468 -265 l 332 -265 z "},"ờ":{"ha":800,"x_min":64,"x_max":736,"o":"m 400 -12 q 222 31 297 -12 q 106 156 147 75 q 64 350 64 238 q 106 542 64 461 q 222 667 147 624 q 400 711 297 711 q 578 667 503 711 q 695 542 654 624 q 736 350 736 461 q 695 156 736 238 q 578 31 654 75 q 400 -12 503 -12 m 400 88 q 551 154 494 88 q 608 350 608 221 q 551 544 608 479 q 400 610 494 610 q 248 544 304 610 q 192 350 192 479 q 248 154 192 221 q 400 88 304 88 m 540 625 l 472 668 l 472 699 q 562 715 529 700 q 608 765 594 731 q 622 854 622 800 l 622 878 l 733 878 l 733 836 q 710 728 733 774 q 644 656 688 683 q 540 625 601 629 m 347 767 l 161 1047 l 293 1047 l 436 767 l 347 767 z "},"ở":{"ha":800,"x_min":64,"x_max":736,"o":"m 400 -12 q 222 31 297 -12 q 106 156 147 75 q 64 350 64 238 q 106 542 64 461 q 222 667 147 624 q 400 711 297 711 q 578 667 503 711 q 695 542 654 624 q 736 350 736 461 q 695 156 736 238 q 578 31 654 75 q 400 -12 503 -12 m 400 88 q 551 154 494 88 q 608 350 608 221 q 551 544 608 479 q 400 610 494 610 q 248 544 304 610 q 192 350 192 479 q 248 154 192 221 q 400 88 304 88 m 540 625 l 472 668 l 472 699 q 562 715 529 700 q 608 765 594 731 q 622 854 622 800 l 622 878 l 733 878 l 733 836 q 710 728 733 774 q 644 656 688 683 q 540 625 601 629 m 350 767 l 350 796 q 363 847 350 826 q 392 882 376 867 q 422 912 408 897 q 435 946 435 926 q 419 975 435 965 q 372 985 404 985 q 331 980 351 985 q 286 963 310 975 l 265 1025 q 325 1049 292 1042 q 397 1056 358 1056 q 499 1031 463 1056 q 536 960 536 1007 q 520 904 536 925 q 484 868 504 883 q 449 835 464 853 q 433 789 433 817 l 433 767 l 350 767 z "},"ỡ":{"ha":800,"x_min":64,"x_max":736,"o":"m 400 -12 q 222 31 297 -12 q 106 156 147 75 q 64 350 64 238 q 106 542 64 461 q 222 667 147 624 q 400 711 297 711 q 578 667 503 711 q 695 542 654 624 q 736 350 736 461 q 695 156 736 238 q 578 31 654 75 q 400 -12 503 -12 m 400 88 q 551 154 494 88 q 608 350 608 221 q 551 544 608 479 q 400 610 494 610 q 248 544 304 610 q 192 350 192 479 q 248 154 192 221 q 400 88 304 88 m 540 625 l 472 668 l 472 699 q 562 715 529 700 q 608 765 594 731 q 622 854 622 800 l 622 878 l 733 878 l 733 836 q 710 728 733 774 q 644 656 688 683 q 540 625 601 629 m 207 818 l 138 822 q 185 963 146 913 q 283 1013 224 1013 q 335 1000 311 1013 q 396 956 360 988 q 442 919 425 929 q 478 910 460 910 q 561 1017 546 910 l 631 1013 q 585 872 624 921 q 486 822 546 822 q 430 837 456 822 q 372 879 404 851 q 326 914 343 904 q 290 924 308 924 q 207 818 222 924 z "},"ő":{"ha":800,"x_min":64,"x_max":736,"o":"m 400 -12 q 222 31 297 -12 q 106 156 147 75 q 64 350 64 238 q 106 542 64 461 q 222 667 147 624 q 400 711 297 711 q 578 667 503 711 q 695 542 654 624 q 736 350 736 461 q 695 156 736 238 q 578 31 654 75 q 400 -12 503 -12 m 400 88 q 551 154 494 88 q 608 350 608 221 q 551 544 608 479 q 400 610 494 610 q 248 544 304 610 q 192 350 192 479 q 248 154 192 221 q 400 88 304 88 m 457 767 l 531 1047 l 644 1047 l 526 767 l 457 767 m 274 767 l 346 1047 l 461 1047 l 343 767 l 274 767 z "},"ȏ":{"ha":800,"x_min":64,"x_max":736,"o":"m 400 -12 q 222 31 297 -12 q 106 156 147 75 q 64 350 64 238 q 106 542 64 461 q 222 667 147 624 q 400 711 297 711 q 578 667 503 711 q 695 542 654 624 q 736 350 736 461 q 695 156 736 238 q 578 31 654 75 q 400 -12 503 -12 m 400 88 q 551 154 494 88 q 608 350 608 221 q 551 544 608 479 q 400 610 494 610 q 248 544 304 610 q 192 350 192 479 q 248 154 192 221 q 400 88 304 88 m 260 757 l 183 765 q 215 906 188 847 q 290 998 242 965 q 401 1031 338 1031 q 513 998 465 1031 q 589 906 561 965 q 619 765 617 847 l 543 757 q 501 898 538 849 q 401 947 464 947 q 302 898 339 947 q 260 757 265 849 z "},"ō":{"ha":800,"x_min":64,"x_max":736,"o":"m 400 -12 q 222 31 297 -12 q 106 156 147 75 q 64 350 64 238 q 106 542 64 461 q 222 667 147 624 q 400 711 297 711 q 578 667 503 711 q 695 542 654 624 q 736 350 736 461 q 695 156 736 238 q 578 31 654 75 q 400 -12 503 -12 m 400 88 q 551 154 494 88 q 608 350 608 221 q 551 544 608 479 q 400 610 494 610 q 248 544 304 610 q 192 350 192 479 q 248 154 192 221 q 400 88 304 88 m 192 865 l 192 947 l 611 947 l 611 865 l 192 865 z "},"ṓ":{"ha":800,"x_min":64,"x_max":736,"o":"m 400 -12 q 222 31 297 -12 q 106 156 147 75 q 64 350 64 238 q 106 542 64 461 q 222 667 147 624 q 400 711 297 711 q 578 667 503 711 q 695 542 654 624 q 736 350 736 461 q 695 156 736 238 q 578 31 654 75 q 400 -12 503 -12 m 400 88 q 551 154 494 88 q 608 350 608 221 q 551 544 608 479 q 400 610 494 610 q 248 544 304 610 q 192 350 192 479 q 248 154 192 221 q 400 88 304 88 m 192 792 l 192 875 l 611 875 l 611 792 l 192 792 m 360 926 l 475 1119 l 604 1119 l 443 926 l 360 926 z "},"ṑ":{"ha":800,"x_min":64,"x_max":736,"o":"m 400 -12 q 222 31 297 -12 q 106 156 147 75 q 64 350 64 238 q 106 542 64 461 q 222 667 147 624 q 400 711 297 711 q 578 667 503 711 q 695 542 654 624 q 736 350 736 461 q 695 156 736 238 q 578 31 654 75 q 400 -12 503 -12 m 400 88 q 551 154 494 88 q 608 350 608 221 q 551 544 608 479 q 400 610 494 610 q 248 544 304 610 q 192 350 192 479 q 248 154 192 221 q 400 88 304 88 m 192 792 l 192 875 l 611 875 l 611 792 l 192 792 m 360 926 l 199 1119 l 328 1119 l 443 926 l 360 926 z "},"ǫ":{"ha":800,"x_min":64,"x_max":736,"o":"m 400 -12 q 222 31 297 -12 q 106 156 147 75 q 64 350 64 238 q 106 542 64 461 q 222 667 147 624 q 400 711 297 711 q 578 667 503 711 q 695 542 654 624 q 736 350 736 461 q 695 156 736 238 q 578 31 654 75 q 400 -12 503 -12 m 400 88 q 551 154 494 88 q 608 350 608 221 q 551 544 608 479 q 400 610 494 610 q 248 544 304 610 q 192 350 192 479 q 248 154 192 221 q 400 88 304 88 m 450 -268 q 341 -231 382 -268 q 300 -131 300 -193 q 336 -26 300 -75 q 435 51 372 24 l 478 0 q 435 -26 456 -10 q 400 -66 414 -43 q 386 -117 386 -89 q 410 -174 386 -154 q 467 -193 433 -193 q 504 -189 486 -193 q 542 -176 522 -185 l 561 -244 q 513 -262 540 -256 q 450 -268 485 -268 z "},"ø":{"ha":800,"x_min":64,"x_max":736,"o":"m 400 -12 q 222 31 297 -12 q 106 156 147 75 q 64 350 64 238 q 106 542 64 461 q 222 667 147 624 q 400 711 297 711 q 578 667 503 711 q 695 542 654 624 q 736 350 736 461 q 695 156 736 238 q 578 31 654 75 q 400 -12 503 -12 m 400 88 q 559 156 501 88 q 617 350 617 224 q 559 543 617 476 q 400 610 501 610 q 241 543 299 610 q 183 350 183 476 q 241 156 183 224 q 400 88 299 88 m 208 -58 l 143 -18 l 593 757 l 660 717 l 208 -58 z "},"ǿ":{"ha":800,"x_min":64,"x_max":736,"o":"m 400 -12 q 222 31 297 -12 q 106 156 147 75 q 64 350 64 238 q 106 542 64 461 q 222 667 147 624 q 400 711 297 711 q 578 667 503 711 q 695 542 654 624 q 736 350 736 461 q 695 156 736 238 q 578 31 654 75 q 400 -12 503 -12 m 400 88 q 559 156 501 88 q 617 350 617 224 q 559 543 617 476 q 400 610 501 610 q 241 543 299 610 q 183 350 183 476 q 241 156 183 224 q 400 88 299 88 m 208 -58 l 143 -18 l 593 757 l 660 717 l 208 -58 m 356 767 l 499 1047 l 631 1047 l 444 767 l 356 767 z "},"õ":{"ha":800,"x_min":64,"x_max":736,"o":"m 400 -12 q 222 31 297 -12 q 106 156 147 75 q 64 350 64 238 q 106 542 64 461 q 222 667 147 624 q 400 711 297 711 q 578 667 503 711 q 695 542 654 624 q 736 350 736 461 q 695 156 736 238 q 578 31 654 75 q 400 -12 503 -12 m 400 88 q 551 154 494 88 q 608 350 608 221 q 551 544 608 479 q 400 610 494 610 q 248 544 304 610 q 192 350 192 479 q 248 154 192 221 q 400 88 304 88 m 215 818 l 147 822 q 196 963 154 913 q 300 1013 238 1013 q 356 999 329 1013 q 415 956 382 985 q 463 920 444 931 q 500 910 482 910 q 588 1017 571 910 l 656 1013 q 608 872 650 921 q 504 822 567 822 q 449 836 475 822 q 386 879 422 850 q 340 914 358 904 q 303 924 322 924 q 244 896 265 924 q 215 818 224 868 z "},"ṍ":{"ha":800,"x_min":64,"x_max":736,"o":"m 400 -12 q 222 31 297 -12 q 106 156 147 75 q 64 350 64 238 q 106 542 64 461 q 222 667 147 624 q 400 711 297 711 q 578 667 503 711 q 695 542 654 624 q 736 350 736 461 q 695 156 736 238 q 578 31 654 75 q 400 -12 503 -12 m 400 88 q 551 154 494 88 q 608 350 608 221 q 551 544 608 479 q 400 610 494 610 q 248 544 304 610 q 192 350 192 479 q 248 154 192 221 q 400 88 304 88 m 243 761 l 178 765 q 219 872 183 836 q 311 908 256 908 q 360 899 336 908 q 413 869 385 889 q 456 845 439 853 q 489 838 472 838 q 537 855 521 838 q 560 910 553 872 l 625 906 q 584 799 619 835 q 493 763 549 763 q 442 773 467 763 q 388 803 417 783 q 347 826 364 818 q 314 833 329 833 q 267 816 283 833 q 243 761 250 799 m 360 926 l 475 1119 l 604 1119 l 443 926 l 360 926 z "},"ṏ":{"ha":800,"x_min":64,"x_max":736,"o":"m 400 -12 q 222 31 297 -12 q 106 156 147 75 q 64 350 64 238 q 106 542 64 461 q 222 667 147 624 q 400 711 297 711 q 578 667 503 711 q 695 542 654 624 q 736 350 736 461 q 695 156 736 238 q 578 31 654 75 q 400 -12 503 -12 m 400 88 q 551 154 494 88 q 608 350 608 221 q 551 544 608 479 q 400 610 494 610 q 248 544 304 610 q 192 350 192 479 q 248 154 192 221 q 400 88 304 88 m 243 761 l 178 765 q 219 872 183 836 q 311 908 256 908 q 360 899 336 908 q 413 869 385 889 q 456 845 439 853 q 489 838 472 838 q 537 855 521 838 q 560 910 553 872 l 625 906 q 584 799 619 835 q 493 763 549 763 q 442 773 467 763 q 388 803 417 783 q 347 826 364 818 q 314 833 329 833 q 267 816 283 833 q 243 761 250 799 m 214 964 l 214 1069 l 343 1069 l 343 964 l 214 964 m 460 964 l 460 1069 l 589 1069 l 589 964 l 460 964 z "},"ȭ":{"ha":800,"x_min":64,"x_max":736,"o":"m 400 -12 q 222 31 297 -12 q 106 156 147 75 q 64 350 64 238 q 106 542 64 461 q 222 667 147 624 q 400 711 297 711 q 578 667 503 711 q 695 542 654 624 q 736 350 736 461 q 695 156 736 238 q 578 31 654 75 q 400 -12 503 -12 m 400 88 q 551 154 494 88 q 608 350 608 221 q 551 544 608 479 q 400 610 494 610 q 248 544 304 610 q 192 350 192 479 q 248 154 192 221 q 400 88 304 88 m 192 982 l 192 1064 l 611 1064 l 611 982 l 192 982 m 243 761 l 178 765 q 219 872 183 836 q 311 908 256 908 q 360 899 336 908 q 413 869 385 889 q 456 845 439 853 q 489 838 472 838 q 537 855 521 838 q 560 910 553 872 l 625 906 q 584 799 619 835 q 493 763 549 763 q 442 773 467 763 q 388 803 417 783 q 347 826 364 818 q 314 833 329 833 q 267 816 283 833 q 243 761 250 799 z "},"œ":{"ha":1296,"x_min":64,"x_max":1236,"o":"m 400 -12 q 222 31 297 -12 q 105 157 146 75 q 64 350 64 239 q 105 544 64 463 q 222 668 146 625 q 400 711 297 711 q 581 658 507 711 q 690 504 656 604 l 654 504 q 764 658 689 604 q 943 711 839 711 q 1158 622 1079 711 q 1236 379 1236 533 l 1236 336 l 710 336 l 710 411 l 1151 411 l 1126 394 q 1078 560 1126 500 q 940 619 1031 619 q 788 549 842 619 q 735 360 735 479 l 735 351 q 795 153 735 219 q 971 88 856 88 q 1082 107 1029 88 q 1183 165 1135 126 l 1226 78 q 1153 28 1196 49 q 1065 -3 1111 7 q 975 -12 1018 -12 q 769 41 850 -12 q 654 196 689 94 l 689 196 q 581 41 656 94 q 400 -12 507 -12 m 401 88 q 553 154 496 88 q 610 350 610 221 q 553 544 610 478 q 401 610 496 610 q 249 544 306 610 q 192 350 192 478 q 249 154 192 221 q 401 88 306 88 z "},"p":{"ha":840,"x_min":94,"x_max":776,"o":"m 106 -300 l 106 533 q 103 615 106 574 q 94 699 100 657 l 217 699 l 232 538 l 217 538 q 306 665 238 618 q 468 711 374 711 q 631 668 561 711 q 738 544 700 625 q 776 350 776 463 q 738 156 776 238 q 631 31 700 74 q 468 -12 561 -12 q 308 34 375 -12 q 217 160 240 81 l 232 160 l 232 -300 l 106 -300 m 439 88 q 592 154 535 88 q 649 350 649 221 q 592 544 649 479 q 439 610 535 610 q 287 544 343 610 q 231 350 231 479 q 287 154 231 221 q 439 88 343 88 z "},"þ":{"ha":840,"x_min":106,"x_max":776,"o":"m 106 -300 l 106 1022 l 232 1022 l 232 538 l 217 538 q 306 665 238 618 q 468 711 375 711 q 631 668 561 711 q 738 544 700 625 q 776 350 776 463 q 738 156 776 238 q 631 31 700 74 q 469 -12 563 -12 q 308 34 375 -12 q 217 160 240 81 l 232 160 l 232 -300 l 106 -300 m 440 88 q 592 154 535 88 q 649 350 649 221 q 592 544 649 479 q 440 610 535 610 q 288 544 344 610 q 231 350 231 479 q 288 154 231 221 q 440 88 344 88 z "},"q":{"ha":840,"x_min":64,"x_max":746,"o":"m 608 -300 l 608 160 l 624 160 q 533 34 601 81 q 372 -12 464 -12 q 211 31 281 -12 q 103 156 142 74 q 64 350 64 238 q 103 544 64 463 q 211 668 142 625 q 372 711 281 711 q 534 665 465 711 q 625 538 603 618 l 608 538 l 624 699 l 746 699 q 738 615 742 657 q 735 533 735 574 l 735 -300 l 608 -300 m 401 88 q 553 154 496 88 q 610 350 610 221 q 553 544 610 479 q 401 610 496 610 q 249 544 307 610 q 192 350 192 479 q 249 154 192 221 q 401 88 306 88 z "},"r":{"ha":514,"x_min":94,"x_max":508,"o":"m 104 0 l 104 528 q 102 613 104 569 q 94 699 100 657 l 217 699 l 232 524 l 211 522 q 259 628 225 586 q 341 691 293 671 q 440 711 389 711 q 478 710 463 711 q 508 703 493 708 l 506 590 q 467 601 485 599 q 425 603 450 603 q 320 575 364 603 q 253 501 276 547 q 231 403 231 456 l 231 0 l 104 0 z "},"ŕ":{"ha":514,"x_min":94,"x_max":544,"o":"m 104 0 l 104 528 q 102 613 104 569 q 94 699 100 657 l 217 699 l 232 524 l 211 522 q 259 628 225 586 q 341 691 293 671 q 440 711 389 711 q 478 710 463 711 q 508 703 493 708 l 506 590 q 467 601 485 599 q 425 603 450 603 q 320 575 364 603 q 253 501 276 547 q 231 403 231 456 l 231 0 l 104 0 m 269 767 l 413 1047 l 544 1047 l 358 767 l 269 767 z "},"ř":{"ha":514,"x_min":94,"x_max":525,"o":"m 104 0 l 104 528 q 102 613 104 569 q 94 699 100 657 l 217 699 l 232 524 l 211 522 q 259 628 225 586 q 341 691 293 671 q 440 711 389 711 q 478 710 463 711 q 508 703 493 708 l 506 590 q 467 601 485 599 q 425 603 450 603 q 320 575 364 603 q 253 501 276 547 q 231 403 231 456 l 231 0 l 104 0 m 256 767 l 103 1047 l 188 1047 l 314 847 l 440 1047 l 525 1047 l 372 767 l 256 767 z "},"ŗ":{"ha":514,"x_min":93,"x_max":508,"o":"m 104 0 l 104 528 q 102 613 104 569 q 94 699 100 657 l 217 699 l 232 524 l 211 522 q 259 628 225 586 q 341 691 293 671 q 440 711 389 711 q 478 710 463 711 q 508 703 493 708 l 506 590 q 467 601 485 599 q 425 603 450 603 q 320 575 364 603 q 253 501 276 547 q 231 403 231 456 l 231 0 l 104 0 m 168 -375 l 114 -337 q 156 -275 146 -304 q 167 -212 167 -246 l 197 -229 l 94 -229 l 94 -108 l 242 -108 l 242 -194 q 224 -293 242 -247 q 168 -375 207 -339 z "},"ȑ":{"ha":514,"x_min":72,"x_max":508,"o":"m 104 0 l 104 528 q 102 613 104 569 q 94 699 100 657 l 217 699 l 232 524 l 211 522 q 259 628 225 586 q 341 691 293 671 q 440 711 389 711 q 478 710 463 711 q 508 703 493 708 l 506 590 q 467 601 485 599 q 425 603 450 603 q 320 575 364 603 q 253 501 276 547 q 231 403 231 456 l 231 0 l 104 0 m 372 767 l 254 1047 l 369 1047 l 442 767 l 372 767 m 189 767 l 71 1047 l 185 1047 l 258 767 l 189 767 z "},"ṛ":{"ha":514,"x_min":94,"x_max":508,"o":"m 104 0 l 104 528 q 102 613 104 569 q 94 699 100 657 l 217 699 l 232 524 l 211 522 q 259 628 225 586 q 341 691 293 671 q 440 711 389 711 q 478 710 463 711 q 508 703 493 708 l 506 590 q 467 601 485 599 q 425 603 450 603 q 320 575 364 603 q 253 501 276 547 q 231 403 231 456 l 231 0 l 104 0 m 100 -265 l 100 -135 l 236 -135 l 236 -265 l 100 -265 z "},"ȓ":{"ha":514,"x_min":94,"x_max":532,"o":"m 104 0 l 104 528 q 102 613 104 569 q 94 699 100 657 l 217 699 l 232 524 l 211 522 q 259 628 225 586 q 341 691 293 671 q 440 711 389 711 q 478 710 463 711 q 508 703 493 708 l 506 590 q 467 601 485 599 q 425 603 450 603 q 320 575 364 603 q 253 501 276 547 q 231 403 231 456 l 231 0 l 104 0 m 172 757 l 96 765 q 127 906 100 847 q 202 998 154 965 q 314 1031 250 1031 q 426 998 378 1031 q 501 906 474 965 q 532 765 529 847 l 456 757 q 413 898 450 849 q 314 947 376 947 q 215 898 251 947 q 172 757 178 849 z "},"ṟ":{"ha":514,"x_min":-42,"x_max":508,"o":"m 104 0 l 104 528 q 102 613 104 569 q 94 699 100 657 l 217 699 l 232 524 l 211 522 q 259 628 225 586 q 341 691 293 671 q 440 711 389 711 q 478 710 463 711 q 508 703 493 708 l 506 590 q 467 601 485 599 q 425 603 450 603 q 320 575 364 603 q 253 501 276 547 q 231 403 231 456 l 231 0 l 104 0 m -42 -219 l -42 -137 l 378 -137 l 378 -219 l -42 -219 z "},"s":{"ha":690,"x_min":64,"x_max":624,"o":"m 342 -12 q 184 10 257 -12 q 64 74 111 32 l 104 161 q 217 102 156 122 q 344 82 279 82 q 465 111 424 82 q 506 189 506 140 q 479 251 506 228 q 396 286 453 275 l 264 313 q 130 380 175 333 q 85 500 85 426 q 118 609 85 561 q 213 684 151 657 q 358 711 275 711 q 501 689 435 711 q 610 624 567 667 l 568 539 q 472 597 525 576 q 363 617 418 617 q 243 585 282 617 q 204 504 204 554 q 228 442 204 467 q 304 406 251 418 l 436 379 q 576 315 529 360 q 624 197 624 271 q 588 85 624 132 q 490 13 553 38 q 342 -12 426 -12 z "},"ś":{"ha":690,"x_min":64,"x_max":624,"o":"m 342 -12 q 184 10 257 -12 q 64 74 111 32 l 104 161 q 217 102 156 122 q 344 82 279 82 q 465 111 424 82 q 506 189 506 140 q 479 251 506 228 q 396 286 453 275 l 264 313 q 130 380 175 333 q 85 500 85 426 q 118 609 85 561 q 213 684 151 657 q 358 711 275 711 q 501 689 435 711 q 610 624 567 667 l 568 539 q 472 597 525 576 q 363 617 418 617 q 243 585 282 617 q 204 504 204 554 q 228 442 204 467 q 304 406 251 418 l 436 379 q 576 315 529 360 q 624 197 624 271 q 588 85 624 132 q 490 13 553 38 q 342 -12 426 -12 m 308 767 l 451 1047 l 583 1047 l 397 767 l 308 767 z "},"ṥ":{"ha":690,"x_min":64,"x_max":624,"o":"m 342 -12 q 184 10 257 -12 q 64 74 111 32 l 104 161 q 217 102 156 122 q 344 82 279 82 q 465 111 424 82 q 506 189 506 140 q 479 251 506 228 q 396 286 453 275 l 264 313 q 130 380 175 333 q 85 500 85 426 q 118 609 85 561 q 213 684 151 657 q 358 711 275 711 q 501 689 435 711 q 610 624 567 667 l 568 539 q 472 597 525 576 q 363 617 418 617 q 243 585 282 617 q 204 504 204 554 q 228 442 204 467 q 304 406 251 418 l 436 379 q 576 315 529 360 q 624 197 624 271 q 588 85 624 132 q 490 13 553 38 q 342 -12 426 -12 m 308 767 l 456 1047 l 588 1047 l 397 767 l 308 767 m 224 1049 l 224 1154 l 353 1154 l 353 1049 l 224 1049 z "}}}
